<?xml version="1.0" encoding="UTF-8"?>
<svg width="40px" height="40px" viewBox="0 0 40 40" version="1.1" xmlns="http://www.w3.org/2000/svg" xmlns:xlink="http://www.w3.org/1999/xlink">
    <!-- Generator: Sketch 52.4 (67378) - http://www.bohemiancoding.com/sketch -->
    <title>vk</title>
    <desc>Created with Sketch.</desc>
    <g id="Page-1" stroke="none" stroke-width="1" fill="none" fill-rule="evenodd">
        <g id="Artboard" transform="translate(-210.000000, -1896.000000)">
            <g id="Футер" transform="translate(-1.000000, 1809.000000)">
                <g id="Покупателям" transform="translate(91.000000, 51.000000)">
                    <g id="Group-16">
                        <g id="Group-26">
                            <g id="vk" transform="translate(120.000000, 36.000000)">
                                <circle id="XMLID_11_" fill="#4D76A1" cx="20" cy="20" r="20"></circle>
                                <path d="M19.2623272,28.1209205 L20.8381811,28.1209205 C20.8381811,28.1209205 21.3141942,28.0703848 21.5572114,27.817014 C21.7809017,27.5844112 21.7737436,27.1475889 21.7737436,27.1475889 C21.7737436,27.1475889 21.7429638,25.1026231 22.7243382,24.8014857 C23.6917543,24.504848 24.9340411,26.7779166 26.2507721,27.6519076 C27.2464627,28.3133716 28.003073,28.168341 28.003073,28.168341 L31.5237804,28.1209205 C31.5237804,28.1209205 33.3655574,28.0111957 32.4922702,26.6107334 C32.4206893,26.4961627 31.9836878,25.5747513 29.874556,23.6813927 C27.6670005,21.6997697 27.9626297,22.0202908 30.6218608,18.5925157 C32.2413791,16.5049753 32.8888285,15.2305062 32.6866124,14.6846513 C32.4937018,14.1647565 31.3025953,14.3021721 31.3025953,14.3021721 L27.3384441,14.3260554 C27.3384441,14.3260554 27.0446045,14.2872883 26.8266406,14.4132814 C26.6136874,14.5368516 26.4766099,14.824836 26.4766099,14.824836 C26.4766099,14.824836 25.8492032,16.4402481 25.0124222,17.814058 C23.2472368,20.7129388 22.541449,20.8659305 22.2529779,20.6859403 C21.5819068,20.2664246 21.7494061,19.0006089 21.7494061,18.1013501 C21.7494061,15.2921182 22.1899867,14.1207973 20.8915088,13.817583 C20.4605917,13.7168577 20.1434883,13.6503998 19.0415,13.6396696 C17.6270611,13.6254781 16.4298703,13.6438233 15.751999,13.9650366 C15.3010392,14.1786019 14.953156,14.6545375 15.1650355,14.6818822 C15.4270216,14.7158034 16.0204274,14.8366045 16.3350256,15.2509282 C16.7412473,15.7853606 16.7269311,16.9857569 16.7269311,16.9857569 C16.7269311,16.9857569 16.9602849,20.2927309 16.1818424,20.7035932 C15.6474908,20.9853471 14.9145023,20.4100707 13.3407958,17.7801368 C12.5344368,16.4329793 11.9256411,14.9439064 11.9256411,14.9439064 C11.9256411,14.9439064 11.8082484,14.6656138 11.5988742,14.5167758 C11.3447619,14.3364394 10.9897206,14.278981 10.9897206,14.278981 L7.22277481,14.3028643 C7.22277481,14.3028643 6.65728557,14.3180943 6.44970091,14.555889 C6.26502214,14.7673775 6.43502682,15.2048922 6.43502682,15.2048922 C6.43502682,15.2048922 9.3841606,21.8776831 12.7234104,25.2403849 C15.7852841,28.3234095 19.2623272,28.1209205 19.2623272,28.1209205 Z" id="Path" fill="#FFFFFF"></path>
                            </g>
                        </g>
                    </g>
                </g>
            </g>
        </g>
    </g>
</svg>