<?xml version="1.0" encoding="UTF-8"?>
<svg width="11px" height="7px" viewBox="0 0 11 7" version="1.1" xmlns="http://www.w3.org/2000/svg" xmlns:xlink="http://www.w3.org/1999/xlink">
    <!-- Generator: Sketch 52.2 (67145) - http://www.bohemiancoding.com/sketch -->
    <title>Shape</title>
    <desc>Created with Sketch.</desc>
    <g id="Symbols" stroke="none" stroke-width="1" fill="none" fill-rule="evenodd">
        <g id="Шапка" transform="translate(-375.000000, -172.000000)" fill="#282828" fill-rule="nonzero">
            <g id="Нижняя-панель">
                <g transform="translate(150.000000, 142.000000)">
                    <g id="Каталог-товаров" transform="translate(0.000000, 3.000000)">
                        <g id="Group-5" transform="translate(32.000000, 18.000000)">
                            <g id="chevron-arrow-down" transform="translate(193.000000, 9.000000)">
                                <path d="M10.7387111,0.798375706 L10.2092833,0.263678451 C10.0258173,0.0879094619 9.81153865,0 9.56694198,0 C9.31730055,0 9.10556901,0.0879094619 8.93140115,0.263678451 L5.50002473,3.72817511 L2.06867303,0.26377832 C1.8945299,0.0880093306 1.6827489,9.98687439e-05 1.43320639,9.98687439e-05 C1.18848608,9.98687439e-05 0.974256887,0.0880093306 0.790766111,0.26377832 L0.268287254,0.798475575 C0.0893961125,0.978963362 0,1.19525409 0,1.44714803 C0,1.7037358 0.0894950294,1.91757975 0.268262525,2.08862994 L4.86453336,6.72915597 C5.03405213,6.90966872 5.24575894,7 5.5,7 C5.74946832,7 5.96367278,6.90969369 6.14239082,6.72915597 L10.7386864,2.08862994 C10.9128542,1.91276109 11,1.6989421 11,1.44714803 C11.0000247,1.19994793 10.912879,0.983782029 10.7387111,0.798375706 Z" id="Shape"></path>
                            </g>
                        </g>
                    </g>
                </g>
            </g>
        </g>
    </g>
</svg>