<?xml version="1.0" encoding="UTF-8"?>
<svg width="31px" height="31px" viewBox="0 0 31 31" version="1.1" xmlns="http://www.w3.org/2000/svg" xmlns:xlink="http://www.w3.org/1999/xlink">
    <!-- Generator: Sketch 52.4 (67378) - http://www.bohemiancoding.com/sketch -->
    <title>chef (1)</title>
    <desc>Created with Sketch.</desc>
    <g id="Page-1" stroke="none" stroke-width="1" fill="none" fill-rule="evenodd">
        <g id="Artboard" transform="translate(-676.000000, -1774.000000)" fill="#D0679F">
            <g id="Group-3" transform="translate(50.000000, 1716.000000)">
                <g id="Group-2" transform="translate(626.000000, 58.000000)">
                    <g id="chef-(1)">
                        <path d="M8.44255319,14.7744681 C8.44255319,14.385583 8.12787021,14.0709 7.73898511,14.0709 C7.3501,14.0709 7.03541702,14.385583 7.03541702,14.7744681 C7.03541702,16.6219362 9.0732383,19.1585936 9.30547447,19.4423426 C9.44497447,19.6113915 9.64693617,19.6993128 9.85028298,19.6993128 C10.0069319,19.6993128 10.164966,19.6470745 10.2961553,19.5398936 C10.5963936,19.2932128 10.6396617,18.8501106 10.3937064,18.5491468 C9.63941702,17.6298979 8.44255319,15.7926532 8.44255319,14.7744681 Z" id="Path"></path>
                        <path d="M23.2170213,14.0709 C22.8281362,14.0709 22.5134532,14.385583 22.5134532,14.7744681 C22.5134532,15.7892234 21.3165894,17.6285128 20.562234,18.5498723 C20.3162787,18.8501106 20.3602064,19.2932787 20.6605106,19.5398936 C20.7910404,19.6470745 20.9490745,19.6993128 21.106383,19.6993128 C21.3097298,19.6993128 21.5110319,19.6113915 21.6505319,19.4423426 C21.8827681,19.1585936 23.9205894,16.6220021 23.9205894,14.7744681 C23.9205894,14.385583 23.6059064,14.0709 23.2170213,14.0709 Z" id="Path"></path>
                        <path d="M15.4780362,14.0709 C15.0891511,14.0709 14.7744681,14.385583 14.7744681,14.7744681 L14.7744681,18.9957447 C14.7744681,19.3846298 15.0891511,19.6993128 15.4780362,19.6993128 C15.8669213,19.6993128 16.1816043,19.3846298 16.1816043,18.9957447 L16.1816043,14.7744681 C16.1815383,14.385583 15.8668553,14.0709 15.4780362,14.0709 Z" id="Path"></path>
                        <path d="M23.2170213,2.81420638 C22.7906723,2.81420638 22.3451298,2.8706 21.8824383,2.95654255 C20.3329,1.15023191 18.0390979,0 15.4780362,0 C12.9169745,0 10.6231064,1.15023191 9.07363404,2.9564766 C8.6108766,2.8706 8.16533404,2.81414043 7.73905106,2.81414043 C3.47167021,2.81420638 0,6.2858766 0,10.5531915 C0,13.477283 1.64893617,16.1355 4.23776596,17.449834 L4.22404681,28.0820426 C4.22338723,28.8494574 4.52151489,29.5709 5.06361915,30.1136638 C5.60638298,30.6571532 6.3271,30.9560064 7.09458085,30.9560064 L23.8642617,30.9560064 C25.4472404,30.9560064 26.7347957,29.6684511 26.7347957,28.0854723 L26.7347957,17.4395447 C29.3139957,16.1217809 30.9560723,13.4676532 30.9560723,10.5531915 C30.9560064,6.2858766 27.4843362,2.81420638 23.2170213,2.81420638 Z M25.3276596,28.0855383 C25.3276596,28.8921319 24.6708553,29.5490021 23.8641957,29.5490021 L7.09451489,29.5490021 C6.70358511,29.5490021 6.33600426,29.3964426 6.05911489,29.1196191 C5.78288511,28.8427298 5.63039149,28.4751489 5.63105106,28.0835596 L5.63474468,25.3276596 L25.3276596,25.3276596 L25.3276596,28.0855383 Z M25.7632426,16.3443872 C25.7261085,16.3594915 25.6910851,16.377366 25.6581064,16.3986702 C25.5694596,16.4536128 25.4966426,16.5264957 25.4423596,16.6102617 C25.387417,16.6933681 25.350283,16.7896 25.3351787,16.8926255 C25.3289787,16.9318043 25.326934,16.970983 25.3275936,17.0108213 L25.3275936,23.9205234 L5.63652553,23.9205234 L5.6455617,17.0203851 C5.64622128,16.9819319 5.6441766,16.9427532 5.63870213,16.9049596 C5.62359787,16.7984383 5.58441915,16.6995021 5.52736596,16.6136255 C5.47374255,16.5332234 5.40369574,16.4631766 5.31847872,16.4095532 C5.28345532,16.3875894 5.24632128,16.3683298 5.20786809,16.3525 C2.89869787,15.3426915 1.40707021,13.0684787 1.40707021,10.5531915 C1.40707021,7.06153617 4.24739574,4.2212766 7.73898511,4.2212766 C7.87545106,4.2212766 8.01950213,4.23776596 8.16084894,4.24891277 C7.44903617,5.48601064 7.03541702,6.91557234 7.03541702,8.44255319 C7.03541702,8.8314383 7.3501,9.14612128 7.73898511,9.14612128 C8.12787021,9.14612128 8.44255319,8.8314383 8.44255319,8.44255319 C8.44255319,4.56339787 11.5988809,1.40707021 15.4780362,1.40707021 C19.3571915,1.40707021 22.5134532,4.56339787 22.5134532,8.44255319 C22.5134532,8.8314383 22.8281362,9.14612128 23.2170213,9.14612128 C23.6059064,9.14612128 23.9205894,8.8314383 23.9205894,8.44255319 C23.9205894,6.91557234 23.5069702,5.4860766 22.7951574,4.24891277 C22.9365043,4.23776596 23.0805553,4.2212766 23.2170213,4.2212766 C26.7086766,4.2212766 29.5489362,7.06160213 29.5489362,10.5531915 C29.5489362,13.0595745 28.0635085,15.3309511 25.7632426,16.3443872 Z" id="Shape" fill-rule="nonzero"></path>
                    </g>
                </g>
            </g>
        </g>
    </g>
</svg>