<?xml version="1.0" encoding="UTF-8"?>
<svg width="22px" height="18px" viewBox="0 0 22 18" version="1.1" xmlns="http://www.w3.org/2000/svg" xmlns:xlink="http://www.w3.org/1999/xlink">
    <!-- Generator: Sketch 52.2 (67145) - http://www.bohemiancoding.com/sketch -->
    <title>list</title>
    <desc>Created with Sketch.</desc>
    <g id="Page-1" stroke="none" stroke-width="1" fill="none" fill-rule="evenodd">
        <g id="Товары-по-акции" transform="translate(-38.000000, -160.000000)" fill="#282828" fill-rule="nonzero">
            <g id="Шапка" transform="translate(0.000000, -35.000000)">
                <g id="Нижняя-панель" transform="translate(16.000000, 101.000000)">
                    <g id="list" transform="translate(22.000000, 94.000000)">
                        <path d="M20.6098747,0.407375473 L1.37399165,0.407375473 C0.549596659,0.407375473 0,0.748639728 0,1.26053611 L0,2.96685739 C0,3.47875377 0.549596659,3.82001803 1.37399165,3.82001803 L20.6098747,3.82001803 C21.4342697,3.82001803 21.4342697,0.407375473 20.6098747,0.407375473 Z" id="Shape"></path>
                        <path d="M20.6098747,7.23266058 L1.37399165,7.23266058 C0.549596659,7.23266058 0,7.57392483 0,8.08582122 L0,9.79214249 C0,10.3040389 0.549596659,10.6453031 1.37399165,10.6453031 L20.6098747,10.6453031 C21.4342697,10.6453031 21.4342697,7.23266058 20.6098747,7.23266058 Z" id="Shape"></path>
                        <path d="M20.6098747,14.0579457 L1.37399165,14.0579457 C0.549596659,14.0579457 0,14.3992099 0,14.9111063 L0,16.6174276 C0,17.129324 0.549596659,17.4705882 1.37399165,17.4705882 L20.6098747,17.4705882 C21.4342697,17.4705882 21.4342697,14.0579457 20.6098747,14.0579457 Z" id="Shape"></path>
                    </g>
                </g>
            </g>
        </g>
    </g>
</svg>