<?xml version="1.0" encoding="UTF-8"?>
<svg width="25px" height="31px" viewBox="0 0 25 31" version="1.1" xmlns="http://www.w3.org/2000/svg" xmlns:xlink="http://www.w3.org/1999/xlink">
    <!-- Generator: Sketch 52.4 (67378) - http://www.bohemiancoding.com/sketch -->
    <title>coffee-bean</title>
    <desc>Created with Sketch.</desc>
    <g id="Page-1" stroke="none" stroke-width="1" fill="none" fill-rule="evenodd">
        <g id="Artboard" transform="translate(-127.000000, -1775.000000)" fill="#E8B846" fill-rule="nonzero">
            <g id="Group-3" transform="translate(50.000000, 1716.000000)">
                <g id="Group-2" transform="translate(70.000000, 55.000000)">
                    <g id="coffee-bean">
                        <path d="M32.9261124,20.7098695 C32.5582425,17.1542874 30.8353289,13.6746431 28.0746171,10.9138778 C22.3253841,5.1679613 13.8002521,4.33939421 9.07194254,9.07280516 C4.34025802,13.8045813 5.16712158,22.3265035 10.914667,28.0741603 C13.6753788,30.8349255 17.1549557,32.5578726 20.710469,32.9257496 C21.1846499,32.9746874 21.652081,33 22.1127621,33 C25.1704698,33 27.9041819,31.9284316 29.9173416,29.9152329 C32.2325595,27.6016576 33.3024197,24.3312646 32.9261124,20.7098695 Z M23.9533489,23.0814276 C22.0939687,21.6617825 20.077974,21.1002562 17.8887038,20.5004061 C12.3772076,18.9891173 9.63978674,14.390267 9,9 C10.5528157,10.8728651 11.6991003,13.0123303 13.6051316,14.5802716 C15.6361213,16.2498542 17.8720427,16.8580355 20.3278907,17.5695243 C25.7194269,19.1341331 28.386871,23.6929934 29,29 C27.3172276,26.9771724 26.0826391,24.7076877 23.9533489,23.0814276 Z" id="Shape" transform="translate(19.500000, 19.500000) rotate(46.000000) translate(-19.500000, -19.500000) "></path>
                    </g>
                </g>
            </g>
        </g>
    </g>
</svg>