<?xml version="1.0" encoding="UTF-8"?>
<svg width="1006px" height="562px" viewBox="0 0 1006 562" version="1.1" xmlns="http://www.w3.org/2000/svg" xmlns:xlink="http://www.w3.org/1999/xlink">
    <!-- Generator: Sketch 52.2 (67145) - http://www.bohemiancoding.com/sketch -->
    <title>logo-2</title>
    <desc>Created with Sketch.</desc>
    <defs>
        <linearGradient x1="100%" y1="50%" x2="0%" y2="50%" id="linearGradient-1">
            <stop stop-color="#F5B900" offset="0%"></stop>
            <stop stop-color="#FB620D" offset="100%"></stop>
        </linearGradient>
        <path d="M24.4150337,0 L94.8430154,0 C111.276211,0 141.090723,3.32977955 141.090723,31.157223 C141.090723,61.8387631 111.041451,71.5902604 100.712014,73.9686744 L100.712014,74.4443572 C121.136129,75.1578814 137.099804,86.0985856 137.099804,107.979994 C137.099804,157.451005 85.9221377,159.591577 69.9584618,159.591577 C39.4098099,159.591577 21.1913318,159.591577 15.3030274,159.591577 C9.41472302,159.591577 4.31371388,159.591577 0,159.591577 L7.3426017e-16,149.092702 L15.0246361,146.5103 L18.5460352,143.180521 L42.0220291,16.173215 L39.4396698,12.8434354 C36.113534,12.1035212 33.1867767,10.6533308 30.659398,8.49286415 C28.1320193,6.33239747 26.0505645,3.50144275 24.4150337,0 Z M72.5452943,12.4438646 L61.9175117,69.9277374 C64.2792412,70.165274 66.6409706,70.4028107 69.2388731,70.4028107 C85.0624605,70.4028107 94.5093784,65.4145408 99.7051832,60.4262708 C104.900988,55.4380009 109.624447,47.5992909 109.624447,34.5347744 C109.624447,17.4321346 96.8711078,11.9687913 80.5751745,11.9687913 C76.5602344,11.9687913 74.9070238,11.9687913 72.5452943,12.4438646 Z M58.9813722,83.418841 L47.7069352,145.54828 C50.5255445,145.786324 54.9883425,146.262411 59.6860246,146.262411 C68.8465046,146.262411 104.548888,147.214587 104.548888,108.651487 C104.548888,99.3677775 105.018657,82.7047095 71.6651139,82.7047095 C70.0209251,82.7047095 65.3232431,82.7047095 58.9813722,83.418841 Z M192.830909,43.3632371 L201.743278,43.3632371 L187.905653,109.244006 L188.374725,109.244006 C233.171106,51.687522 250.0577,41.6983801 260.846358,41.6983801 C269.289655,41.6983801 275.387592,48.8334814 275.387592,57.8712764 C275.387592,70.9522955 264.598934,75.7090297 256.390173,78.3252335 L247.946876,64.5307043 C239.972651,69.2874385 234.343787,71.1901322 221.444305,88.3143754 C232.93657,113.049393 243.725228,131.838493 244.663372,133.50335 C247.71234,138.022248 254.044813,146.584369 263.895326,146.584369 C266.944295,146.584369 272.104087,145.870859 276.0912,144.681676 L276.0912,153.719471 C265.537078,157.287021 252.403061,160.616735 242.083475,160.616735 C228.714922,160.616735 220.975233,148.249226 214.408224,135.168207 L200.805134,107.579149 L185.325756,126.843923 L179.931428,159.189715 L152.256176,159.189715 L171.019059,62.3901739 L152.256176,59.5361334 L152.256176,51.2118485 L192.830909,43.3632371 Z M285.059973,49.9862791 L321.295741,41.6983801 C323.88401,42.4087715 327.413468,43.8295541 330.472331,48.3286993 C332.354709,50.9334675 335.884167,57.3269896 339.178327,78.1651356 L347.413729,129.786906 C360.119778,96.1617162 364.590424,85.0322519 383.178902,41.9351772 L390.473115,41.9351772 L409.061594,48.0919022 L409.061594,54.4854242 L395.179059,62.299729 C383.4142,77.2179471 376.355284,95.9249191 368.825774,112.974311 C354.237348,146.362704 350.70789,154.8874 333.766492,178.803909 C325.060496,190.880562 317.766283,197.510881 312.589745,201.299635 C306.707315,205.561983 298.236616,209.824331 290.001214,209.824331 C282.471704,209.824331 270.000953,203.667606 270.000953,191.590953 C270.000953,180.935083 278.471652,177.146329 283.883487,175.725546 L299.648399,190.643765 C311.177961,188.749388 324.589901,172.883981 334.707681,152.519429 L331.554732,152.519429 C328.19567,152.519429 325.310149,150.133374 324.679292,146.834083 L311.413259,77.4547443 C310.236773,71.2980193 308.82499,65.8516857 305.530829,59.6949607 L285.059973,57.8005838 L285.059973,49.9862791 Z M472.373144,73.2805775 C467.491498,57.9884398 462.98297,51.8298757 458.84756,54.8048852 C444.201499,65.3412466 430.949385,88.2062559 430.949385,110.000058 C430.949385,118.054289 432.590454,143.16454 453.689914,143.16454 C462.364137,143.16454 475.023813,138.189867 490.027873,125.160964 L490.027873,139.137424 C482.99472,145.296542 463.067452,161.641894 441.030238,161.641894 C426.963932,161.641894 417.820832,155.482776 412.897625,150.271214 C407.271102,144.112096 400.941264,133.215195 400.941264,115.685398 C400.941264,79.6782464 429.777193,42.7235383 467.990659,42.7235383 C476.89932,42.7235383 493.310011,46.750654 493.310011,61.4377815 C493.310011,68.4633558 488.961008,73.6668346 480.263001,77.0482178 L480.263004,77.0482254 C477.174467,78.2489059 473.69737,76.7184959 472.496689,73.629959 C472.45192,73.5147983 472.410719,73.3982823 472.373144,73.2805775 Z M546.090244,43.1957324 L555.008106,43.1957324 L544.682161,91.5956273 L585.516581,91.5956273 L594.903803,46.028897 L622.830792,42.7235383 L607.576554,115.913623 C605.93379,123.704826 604.995068,128.898961 604.995068,133.148708 C604.995068,138.342843 606.637832,145.189657 616.729097,145.189657 C620.718666,145.189657 627.055042,143.773075 630.34057,142.59259 L630.34057,151.564278 C620.718666,155.105733 605.93379,159.591577 595.373165,159.591577 C585.2819,159.591577 575.894677,154.869636 575.894677,143.536978 C575.894677,138.106746 577.06808,133.856999 577.772122,130.315543 L582.700414,105.289256 L542.335355,105.289256 L533.652174,158.174995 L505.490505,158.174995 L524.264951,62.0834963 L505.490505,59.2503317 L505.490505,50.986935 L546.090244,43.1957324 Z M681.014549,43.7486966 L689.915679,43.7486966 L678.906386,92.1394656 C687.807516,89.7673691 696.708647,89.2929498 701.861933,89.2929498 C718.258752,89.2929498 737.934935,96.4092393 737.934935,121.790672 C737.934935,145.986057 715.916349,161.641894 684.059672,161.641894 C679.374867,161.641894 667.428613,160.930265 659.230203,157.13491 C646.581229,151.204669 644.238826,140.055815 644.238826,132.702316 C644.238826,129.618591 645.175787,123.688349 645.878508,120.367414 L659.230203,62.7254687 L640.490982,59.8789529 L640.490982,51.5766151 L681.014549,43.7486966 Z M679.888743,103.675226 L674.931565,124.695995 C674.459453,126.349314 673.98734,130.364517 673.98734,132.490213 C673.98734,146.425329 686.026201,148.314837 690.747323,148.314837 C702.314071,148.314837 714.588988,140.28443 714.588988,121.153169 C714.588988,109.343748 707.271249,100.1324 695.704501,100.1324 C689.803098,100.1324 684.137752,101.785718 679.888743,103.675226 Z M764.177249,46.028897 L792.29214,42.7235383 L776.935267,115.913623 C775.28145,123.704826 774.336411,128.898961 774.336411,133.148708 C774.336411,138.342843 775.990228,145.189657 786.14939,145.189657 C790.165803,145.189657 796.544812,143.773075 799.852446,142.59259 L799.852446,151.564278 C790.165803,155.105733 775.28145,159.591577 764.649768,159.591577 C754.490606,159.591577 745.040223,154.869636 745.040223,143.536978 C745.040223,138.106746 746.221521,134.329193 746.930299,130.315543 L764.177249,46.028897 Z M853.645904,43.1960562 L862.563366,43.1960562 L849.187172,113.837471 C848.717832,116.672578 847.309812,125.177899 847.309812,128.013006 C847.309812,135.80955 852.003213,140.770987 859.277985,140.770987 C865.144737,140.770987 877.582251,135.80955 887.907734,129.1943 L903.630629,46.0311631 L931.556367,42.7235383 L917.945503,115.963801 C916.537482,123.051568 915.364132,128.485523 915.364132,132.974443 C915.364132,139.825951 919.353523,145.259906 926.628295,145.259906 C929.444336,145.259906 935.076418,144.551129 940.94317,142.424799 L940.94317,151.402638 C927.801646,155.655298 924.046925,156.600334 921.934894,157.072852 C916.772152,158.254146 908.5587,159.6717 903.630629,159.6717 C892.131795,159.6717 886.499713,152.347673 886.499713,141.243505 L886.499713,140.06221 C881.571642,143.606094 862.328696,160.616735 842.14707,160.616735 C827.832196,160.616735 819.149403,153.05645 819.149403,136.990844 C819.149403,132.974443 820.088084,126.595452 820.557424,123.524086 L831.821587,62.0967691 L813.047982,59.2616622 L813.047982,50.9926003 L853.645904,43.1960562 Z" id="path-2"></path>
        <filter x="-1.0%" y="-4.3%" width="101.9%" height="108.6%" filterUnits="objectBoundingBox" id="filter-3">
            <feGaussianBlur stdDeviation="9" in="SourceAlpha" result="shadowBlurInner1"></feGaussianBlur>
            <feOffset dx="0" dy="0" in="shadowBlurInner1" result="shadowOffsetInner1"></feOffset>
            <feComposite in="shadowOffsetInner1" in2="SourceAlpha" operator="arithmetic" k2="-1" k3="1" result="shadowInnerInner1"></feComposite>
            <feColorMatrix values="0 0 0 0 1   0 0 0 0 1   0 0 0 0 1  0 0 0 0.5 0" type="matrix" in="shadowInnerInner1"></feColorMatrix>
        </filter>
        <path d="M378.501543,187.737559 L382.942651,189.529589 C387.739047,207.449891 391.647222,230.208674 393.068376,252.967457 L393.423665,252.967457 L430.906615,189.529589 L447.249891,189.529589 L435.347722,244.544915 C433.748924,251.713036 433.393635,254.93869 433.393635,257.447532 C433.393635,260.31478 434.104212,266.407683 441.920562,266.407683 C444.940515,266.407683 450.0922,265.153262 452.934509,264.078044 L452.934509,269.454134 C445.473448,273.3966 438.190031,276.084646 431.439548,276.084646 C422.912621,276.084646 418.826801,272.500585 418.826801,264.794856 C418.826801,260.673186 419.892667,256.193111 420.247956,254.580284 L432.150125,200.998582 L431.794836,200.998582 L388.094336,274.471819 L382.054429,274.471819 C381.699141,249.741802 380.810919,237.555997 373.527502,202.790612 L373.172214,202.790612 C363.579421,253.505066 352.387829,276.084646 335.689264,276.084646 C329.649357,276.084646 326.096471,272.142179 326.096471,266.945292 C326.096471,261.927607 329.294069,258.164344 334.090465,257.268329 L344.038547,265.511668 C355.230138,252.250645 362.335911,219.098087 366.066441,200.998582 L351.499608,198.48974 L351.499608,193.830462 L378.501543,187.737559 Z M533.940315,188.095965 L543.177819,188.095965 C539.624933,197.056116 538.381423,204.224236 536.427335,213.721996 L530.03214,245.44093 C528.966274,251.175427 528.255697,254.042675 528.255697,257.447532 C528.255697,262.465216 531.630939,266.407683 536.782624,266.407683 C538.736711,266.407683 541.756665,266.049277 547.796571,264.078044 L547.796571,269.454134 C538.203778,274.113412 528.255697,276.084646 525.946321,276.084646 C519.373481,276.084646 515.110018,271.425367 515.110018,262.10681 L515.110018,261.031592 C505.517225,271.60457 497.87852,276.084646 488.108083,276.084646 C469.100141,276.084646 463.948456,257.626735 463.948456,244.724118 C463.948456,218.739681 480.824666,187.916762 514.399441,187.916762 C517.597038,187.916762 523.281656,188.275168 530.387429,192.038431 L533.940315,188.095965 Z M524.525167,206.016267 L517.419394,195.264086 C516.353528,195.084883 515.465307,195.084883 514.399441,195.084883 C492.016258,195.084883 478.870579,218.202072 478.870579,243.290494 C478.870579,263.361232 488.463371,264.974059 494.147989,264.974059 C503.385494,264.974059 511.024199,257.626735 515.287662,253.325863 L524.525167,206.016267 Z M566.093935,209.241921 L566.093935,201.715394 L577.640815,194.547274 C583.680722,190.78401 590.431206,187.916762 599.135777,187.916762 C606.952127,187.916762 618.143718,192.396837 618.143718,206.016267 C618.143718,218.381275 609.616791,224.65338 599.66871,230.387877 L587.766541,237.555997 C580.30548,242.215276 575.509084,247.23296 575.509084,254.759487 C575.509084,265.332465 585.634809,265.690871 589.542984,265.690871 C600.556932,265.690871 612.4591,259.239562 621.696605,251.533833 L621.696605,259.777171 C612.814389,268.02051 597.536978,276.084646 584.213655,276.084646 C582.259568,276.084646 574.620862,275.905443 568.7586,272.679788 C560.94225,268.378916 559.521096,261.210795 559.521096,256.909923 C559.521096,245.261727 569.291533,237.555997 576.397305,233.434328 L590.60885,225.190989 C594.161736,223.040553 603.221596,217.843666 603.221596,207.270688 C603.221596,201.536191 600.023999,196.876913 593.273515,196.876913 C589.187696,196.876913 583.325433,199.206552 579.06197,201.715394 L566.093935,209.241921 Z M703.412988,188.095965 L712.650492,188.095965 C709.097606,197.056116 707.854095,204.224236 705.900008,213.721996 L699.504813,245.44093 C698.438947,251.175427 697.72837,254.042675 697.72837,257.447532 C697.72837,262.465216 701.103612,266.407683 706.255297,266.407683 C708.209384,266.407683 711.229337,266.049277 717.269244,264.078044 L717.269244,269.454134 C707.676451,274.113412 697.72837,276.084646 695.418994,276.084646 C688.846154,276.084646 684.582691,271.425367 684.582691,262.10681 L684.582691,261.031592 C674.989898,271.60457 667.351193,276.084646 657.580755,276.084646 C638.572814,276.084646 633.421129,257.626735 633.421129,244.724118 C633.421129,218.739681 650.297339,187.916762 683.872113,187.916762 C687.069711,187.916762 692.754329,188.275168 699.860101,192.038431 L703.412988,188.095965 Z M693.997839,206.016267 L686.892067,195.264086 C685.826201,195.084883 684.937979,195.084883 683.872113,195.084883 C661.48893,195.084883 648.343251,218.202072 648.343251,243.290494 C648.343251,263.361232 657.936044,264.974059 663.620662,264.974059 C672.858166,264.974059 680.496872,257.626735 684.760335,253.325863 L693.997839,206.016267 Z M741.42887,235.047155 L741.42887,226.087004 L752.265173,226.087004 C767.009651,226.087004 776.247155,217.306057 776.247155,208.166703 C776.247155,199.385755 768.253161,196.876913 762.746187,196.876913 C751.554596,196.876913 739.474783,203.686627 733.61252,207.808297 L733.61252,199.564958 C743.382958,192.217634 755.107482,187.916762 767.542584,187.916762 C776.602444,187.916762 791.169277,189.887995 791.169277,206.19547 C791.169277,218.022869 781.576484,225.011786 771.806047,228.416644 L771.806047,228.77505 C781.576484,230.56708 787.616391,237.197591 787.616391,246.695351 C787.616391,256.013908 782.64235,276.084646 747.824065,276.084646 C727.572614,276.084646 722.243285,267.124495 722.243285,260.31478 C722.243285,254.401081 726.329104,250.996224 731.303144,250.996224 C735.033675,250.996224 737.69834,253.14666 739.119494,254.401081 L735.921897,263.361232 C738.231273,265.870074 742.139447,268.916525 749.067576,268.916525 C767.720228,268.916525 772.694269,255.655502 772.694269,248.487381 C772.694269,242.036073 769.496671,233.255125 756.706281,233.255125 L741.42887,235.047155 Z M833.448623,187.737559 L836.290932,190.246401 L825.099341,242.573682 C823.145253,251.533833 823.145253,254.580284 823.145253,255.655502 C823.145253,263.361232 828.474583,265.870074 833.093335,265.870074 C842.330839,265.870074 850.147188,260.852389 858.674115,254.401081 L872.175083,189.529589 L886.386628,189.529589 L874.484459,244.724118 C873.063305,251.175427 872.530372,254.221878 872.530372,257.447532 C872.530372,262.465216 875.905614,266.407683 881.057299,266.407683 C883.011386,266.407683 886.031339,266.049277 892.071246,264.078044 L892.071246,269.454134 C884.43254,273.217397 877.149124,276.084646 869.688063,276.084646 C864.536378,276.084646 857.785894,274.471819 857.785894,263.898841 C857.785894,262.823623 857.785894,261.927607 857.963538,261.031592 C850.324833,267.841307 837.356798,276.084646 825.632274,276.084646 C816.750058,276.084646 808.57842,271.962976 808.57842,259.239562 C808.57842,256.193111 809.466641,250.996224 809.999574,248.308178 L820.302944,200.998582 L805.380822,198.48974 L805.380822,193.830462 L833.448623,187.737559 Z M931.152994,188.095965 L935.771746,188.095965 L928.48833,225.370192 L962.951326,225.370192 L970.234743,189.529589 L984.446288,189.529589 L972.544119,244.544915 C970.94532,251.713036 970.590031,254.93869 970.590031,257.447532 C970.590031,262.465216 973.965273,266.407683 979.116958,266.407683 C981.071046,266.407683 984.090999,266.049277 990.130906,264.078044 L990.130906,269.454134 C982.4922,273.217397 975.031139,276.084646 967.925367,276.084646 C956.733775,276.084646 955.312621,269.095728 955.312621,264.794856 C955.312621,261.927607 956.200842,257.268329 956.733775,254.580284 L961.352527,233.255125 L927.067175,233.255125 L919.783758,274.471819 L904.861636,274.471819 L919.42847,201.177785 L904.861636,198.48974 L904.861636,193.830462 L931.152994,188.095965 Z" id="path-4"></path>
        <filter x="-1.4%" y="-10.2%" width="102.7%" height="120.4%" filterUnits="objectBoundingBox" id="filter-5">
            <feGaussianBlur stdDeviation="9" in="SourceAlpha" result="shadowBlurInner1"></feGaussianBlur>
            <feOffset dx="0" dy="0" in="shadowBlurInner1" result="shadowOffsetInner1"></feOffset>
            <feComposite in="shadowOffsetInner1" in2="SourceAlpha" operator="arithmetic" k2="-1" k3="1" result="shadowInnerInner1"></feComposite>
            <feColorMatrix values="0 0 0 0 1   0 0 0 0 1   0 0 0 0 1  0 0 0 0.5 0" type="matrix" in="shadowInnerInner1"></feColorMatrix>
        </filter>
    </defs>
    <g id="Page-1" stroke="none" stroke-width="1" fill="none" fill-rule="evenodd">
        <g id="logo-2" transform="translate(0.000000, -5.000000)">
            <g id="logo-leave" transform="translate(0.000000, 0.000000)">
                <g id="leave" transform="translate(937.551942, 106.047086) rotate(2.000000) translate(-937.551942, -106.047086) translate(870.517001, 2.763622)" fill="#F5B80A" fill-rule="nonzero">
                    <path d="M66.6589205,85.556592 C66.582724,85.6790925 66.2873929,86.151088 66.2163601,86.2652869 C64.5984047,88.8664627 64.0463012,90.4743006 64.0463012,93.7946573 L64.0463012,94.1701762 L63.9712156,94.5379539 C63.5595975,96.554106 63.166251,100.729799 62.8240212,106.915248 C62.7117576,108.944297 60.9925776,110.497224 58.9841252,110.383809 C56.9756728,110.270395 55.438508,108.533585 55.5507717,106.504537 C55.8949174,100.284459 56.2897776,95.9681171 56.7636428,93.4264945 C56.813254,88.7830596 57.8147509,85.9407805 60.0484387,82.349696 C60.1263807,82.2243892 60.4217118,81.7523937 60.490999,81.6410011 C61.8196244,79.5049792 62.2184977,78.4063422 62.2184977,76.2489405 L62.2184977,75.8992705 L62.2836913,75.5558592 C63.0321305,71.613411 63.5255657,65.3831666 63.7414879,56.9395674 C63.793439,54.9080299 65.4657236,53.3036899 67.4766402,53.3561737 C69.4875567,53.4086575 71.0756119,55.0980907 71.0236608,57.1296282 C70.8039759,65.7203637 70.3032033,72.189208 69.5004863,76.6051386 C69.4475956,80.1596668 68.5891719,82.45334 66.6589205,85.556592 Z" id="Line-2"></path>
                    <path d="M22.5011303,191.67434 C30.7014362,182.437529 39.8954188,174.684746 50.8383565,167.299159 C54.7814904,164.637867 58.8707567,162.069403 63.8314308,159.097171 C66.3353216,157.596942 74.8011838,152.618559 76.2396771,151.761925 C87.2015971,145.234011 93.8701555,140.647603 99.7633214,135.20555 C106.815364,128.693331 111.948578,121.443783 115.510207,112.493115 C122.885167,86.6839373 124.080305,72.7215263 121.998077,55.0459975 C121.853948,53.8225258 121.693522,52.5447201 121.487649,50.9652696 C121.378519,50.1280335 120.991285,47.1986297 120.931286,46.7411661 C119.838167,38.4066515 119.163031,31.5642755 118.918559,24.5286554 C114.771812,29.3694804 110.022004,33.847422 104.624077,38.1075924 C96.6267109,44.4193003 89.6029585,48.7927462 74.0455729,57.6885192 C73.5455106,57.9744467 73.5455106,57.9744467 73.0458812,58.260152 C57.6467737,67.0665955 50.5046577,71.5564033 42.810991,77.7873221 C29.8696534,88.2682053 21.1633447,100.182859 16.0592392,115.887506 C7.46352418,147.148264 9.68746195,172.269248 22.5011303,191.67434 Z M5.63562379,112.573371 C11.4327893,94.6534663 21.4243056,80.9597083 35.9764043,69.1743078 C44.2735185,62.4546711 51.7629977,57.7464975 67.6630375,48.6535809 C68.1634067,48.3674524 68.1634067,48.3674524 68.6632728,48.0816371 C83.7529888,39.4532794 90.4661174,35.2732481 97.8971943,29.4084686 C107.471491,21.8522095 114.622738,13.6907901 119.812943,3.84495024 C122.564129,-1.37405957 130.413047,0.83974401 130.09034,6.74371127 C129.296102,21.2743965 129.866226,30.8252273 131.763516,45.2911709 C131.822266,45.7391092 132.210309,48.674637 132.32103,49.5240822 C132.532353,51.1453325 132.698159,52.4659955 132.848411,53.7414479 C135.112934,72.9644362 133.774305,88.4466482 125.931854,115.822438 C125.882956,115.993128 125.825927,116.161332 125.760967,116.326464 C121.563776,126.995927 115.434126,135.690125 107.135547,143.353459 C100.549295,149.435544 93.3534577,154.384596 81.7884248,161.271669 C80.3102314,162.151945 71.8615633,167.120217 69.4053633,168.591871 C64.5995149,171.471338 60.667825,173.940828 56.9083203,176.478186 C44.760768,184.676789 35.0422113,193.253517 26.4604637,204.005566 C24.2828588,206.733881 20.1723271,206.747547 17.9769954,204.033769 C-0.736758929,180.900606 -4.77290746,150.305551 5.56565756,112.807024 C5.58727176,112.728628 5.61059954,112.650724 5.63562379,112.573371 Z" id="Line"></path>
                    <path d="M24.5825196,197.011025 L17.3039456,196.711682 C18.5476885,165.846489 24.600976,143.319512 35.2422651,126.432582 C43.6316801,113.119208 53.4283026,104.53575 69.8741775,94.0494934 C70.9086589,93.389885 71.98054,92.713322 73.3113304,91.8785068 C73.9078379,91.5043129 76.1781743,90.083152 76.7125224,89.7480134 C89.3305604,81.8340865 95.5586245,77.2164289 101.536934,70.5869447 C113.323488,57.5165669 119.285368,39.6693034 119.285368,11.9588673 L126.569971,11.9588673 C126.569971,41.4021359 120.015512,61.0233189 106.921921,75.5431007 C100.360363,82.8193624 93.7151506,87.7463051 80.5547571,96.0003928 C80.0167143,96.3378487 77.7467213,97.7587947 77.1540794,98.1305636 C75.8371686,98.9566721 74.7794306,99.624308 73.7622157,100.272907 C58.1446712,110.231001 49.0854021,118.168416 41.3873143,130.384706 C31.4950581,146.082976 25.7772812,167.361369 24.5825196,197.011025 Z" id="Path-2"></path>
                    <path d="M32.3115459,147.843087 C30.4436722,148.597424 28.3241571,147.679197 27.5774766,145.792169 C26.8307961,143.905141 27.7397027,141.763891 29.6075765,141.009554 C46.4247951,134.217951 58.2722723,130.443165 65.3996619,129.67074 C79.4071228,128.152695 91.2311304,128.664345 100.745938,130.453847 C102.713204,130.823842 104.423854,131.2231 105.873875,131.626302 C106.777891,131.877678 107.413403,132.082377 107.776492,132.21509 C109.668081,132.906488 110.646718,135.016136 109.962338,136.927123 C109.277959,138.838109 107.189724,139.826781 105.298135,139.135384 C105.112715,139.067611 104.658964,138.921458 103.940724,138.721739 C102.686985,138.373117 101.176393,138.020551 99.4126962,137.688843 C90.5837517,136.028335 79.4699199,135.547415 66.1766527,136.988061 C59.9084159,137.667375 48.536829,141.290536 32.3115459,147.843087 Z" id="Path-4"></path>
                </g>
                <g id="lol" transform="translate(0.000000, 185.711614)">
                    <g id="Вкусный">
                        <use fill="url(#linearGradient-1)" fill-rule="evenodd" xlink:href="#path-2"></use>
                        <use fill="black" fill-opacity="1" filter="url(#filter-3)" xlink:href="#path-2"></use>
                    </g>
                    <g id="магазин">
                        <use fill="#F5B900" fill-rule="evenodd" xlink:href="#path-4"></use>
                        <use fill="black" fill-opacity="1" filter="url(#filter-5)" xlink:href="#path-4"></use>
                    </g>
                </g>
            </g>
            <path d="M258.708218,551.913455 L258.708218,508.959709 L242,508.959709 L242,501 L284.5952,501 L284.5952,508.959709 L267.886982,508.959709 L267.886982,551.913455 L258.708218,551.913455 Z M279.766788,533.627636 C279.766788,522.441018 288.730424,514.481309 299.773624,514.481309 C310.960242,514.481309 319.923879,522.441018 319.923879,533.627636 C319.923879,544.885964 310.960242,552.773964 299.845333,552.773964 C288.730424,552.773964 279.766788,544.885964 279.766788,533.627636 Z M289.017261,533.627636 C289.017261,540.44 293.893479,545.029382 299.845333,545.029382 C305.797188,545.029382 310.745115,540.44 310.745115,533.627636 C310.745115,526.886982 305.797188,522.225891 299.845333,522.225891 C293.893479,522.225891 289.017261,526.886982 289.017261,533.627636 Z M325.421576,551.913455 L325.421576,515.341818 L342.41663,515.341818 C349.802667,515.341818 354.750594,518.640436 354.750594,524.807418 C354.750594,528.177745 353.029576,531.332945 349.946085,532.838836 L349.946085,532.910545 C354.320339,534.057891 356.399903,537.643345 356.399903,541.300509 C356.399903,548.614836 350.448048,551.913455 342.775176,551.913455 L325.421576,551.913455 Z M334.52863,530.400727 L340.480485,530.400727 C343.922521,530.400727 345.57183,528.392873 345.57183,525.596218 C345.57183,522.942982 343.922521,521.293673 340.337067,521.293673 L334.52863,521.293673 L334.52863,530.400727 Z M334.52863,545.889891 L341.197576,545.889891 C345.284994,545.889891 347.221139,543.810327 347.221139,541.013673 C347.221139,538.0736 345.141576,536.065745 341.197576,536.065745 L334.52863,536.065745 L334.52863,545.889891 Z M359.172655,541.802473 C359.172655,530.830982 372.367127,528.966545 380.470255,528.966545 L382.047855,528.966545 L382.047855,528.464582 C382.047855,523.660073 378.964364,522.010764 375.163782,522.010764 C371.578327,522.010764 367.921164,523.516655 364.981091,525.524509 L361.610764,518.998982 C364.622545,516.560873 370.502691,514.481309 375.952582,514.481309 C385.489891,514.481309 391.154909,519.787782 391.154909,529.038255 L391.154909,551.913455 L382.693236,551.913455 L382.693236,548.829964 C382.693236,547.324073 382.908364,546.176727 382.908364,546.176727 L382.764945,546.176727 C380.541964,550.049018 376.167709,552.773964 371.219782,552.773964 C364.622545,552.773964 359.172655,548.471418 359.172655,541.802473 Z M368.208,541.013673 C368.208,543.451782 370.072436,545.818182 373.7296,545.818182 C378.820945,545.818182 382.119564,540.655127 382.119564,536.209164 L382.119564,535.205236 L380.541964,535.205236 C375.952582,535.205236 368.208,535.850618 368.208,541.013673 Z M398.373624,566.255273 L398.373624,515.341818 L406.691879,515.341818 L406.691879,518.066764 C406.691879,519.429236 406.548461,520.648291 406.548461,520.648291 L406.691879,520.648291 C409.058279,516.704291 413.504242,514.481309 418.45217,514.481309 C428.348024,514.481309 434.658424,522.2976 434.658424,533.627636 C434.658424,545.244509 427.559224,552.773964 417.950206,552.773964 C413.791079,552.773964 409.990497,550.909527 407.40897,547.610909 L407.265552,547.610909 C407.265552,547.610909 407.480679,548.901673 407.480679,550.766109 L407.480679,566.255273 L398.373624,566.255273 Z M407.193842,533.842764 C407.193842,539.507782 410.349042,545.101091 416.300897,545.101091 C421.320533,545.101091 425.479661,541.013673 425.479661,533.771055 C425.479661,526.815273 421.750788,522.2976 416.444315,522.2976 C411.639806,522.2976 407.193842,525.739636 407.193842,533.842764 Z M474.791612,551.913455 L474.791612,515.341818 L483.898667,515.341818 L483.898667,551.913455 L474.791612,551.913455 Z M440.371248,551.913455 L440.371248,515.341818 L449.478303,515.341818 L449.478303,527.890909 L456.00383,527.890909 C464.608921,527.890909 469.771976,532.050036 469.771976,540.009745 C469.771976,547.108945 465.541139,551.913455 455.932121,551.913455 L440.371248,551.913455 Z M449.478303,545.674764 L454.497939,545.674764 C458.657067,545.674764 460.593212,543.236655 460.593212,539.938036 C460.593212,536.567709 458.657067,534.057891 454.354521,534.057891 L449.478303,534.057891 L449.478303,545.674764 Z M517.195588,544.599127 L530.748606,544.599127 L530.748606,522.656145 L521.641552,522.656145 L521.641552,524.377164 C521.641552,529.898764 520.99617,538.288727 517.195588,544.599127 Z M503.570861,544.599127 L508.088533,544.599127 C512.104242,538.718982 512.964752,529.253382 512.964752,522.942982 L512.964752,515.341818 L539.855661,515.341818 L539.855661,544.599127 L545.090424,544.599127 L545.090424,560.518545 L536.843879,560.518545 L536.843879,551.913455 L512.032533,551.913455 L512.032533,560.518545 L503.570861,560.518545 L503.570861,544.599127 Z M546.213867,552.272 L546.213867,544.240582 C550.731539,543.5952 553.886739,539.794618 553.886739,526.815273 L553.886739,515.341818 L580.562521,515.341818 L580.562521,551.913455 L571.455467,551.913455 L571.455467,522.727855 L562.563539,522.727855 L562.563539,526.815273 C562.563539,542.734691 558.332703,551.913455 546.213867,552.272 Z M584.697745,551.913455 L592.729164,540.224873 C593.589673,538.8624 594.378473,538.001891 594.378473,538.001891 L594.378473,537.930182 C590.291055,536.424291 586.992436,532.408582 586.992436,527.173818 C586.992436,519.644364 592.2272,515.341818 600.1152,515.341818 L616.536582,515.341818 L616.536582,551.913455 L607.429527,551.913455 L607.429527,539.507782 L602.696727,539.507782 L594.521891,551.913455 L584.697745,551.913455 Z M602.625018,533.197382 L607.429527,533.197382 L607.429527,521.293673 L602.696727,521.293673 C598.752727,521.293673 596.099491,522.942982 596.099491,527.102109 C596.099491,531.261236 598.896145,533.197382 602.625018,533.197382 Z M640.152776,551.913455 L640.152776,515.341818 L649.25983,515.341818 L649.25983,529.325091 L653.705794,529.325091 L662.597721,515.341818 L672.708703,515.341818 L661.09183,532.767127 L661.09183,532.910545 L674.142885,551.913455 L663.601648,551.913455 L653.99263,537.069673 L649.25983,537.069673 L649.25983,551.913455 L640.152776,551.913455 Z M673.760436,533.627636 C673.760436,522.441018 682.724073,514.481309 693.767273,514.481309 C704.953891,514.481309 713.917527,522.441018 713.917527,533.627636 C713.917527,544.885964 704.953891,552.773964 693.838982,552.773964 C682.724073,552.773964 673.760436,544.885964 673.760436,533.627636 Z M683.010909,533.627636 C683.010909,540.44 687.887127,545.029382 693.838982,545.029382 C699.790836,545.029382 704.738764,540.44 704.738764,533.627636 C704.738764,526.886982 699.790836,522.225891 693.838982,522.225891 C687.887127,522.225891 683.010909,526.886982 683.010909,533.627636 Z M719.415224,551.913455 L719.415224,515.341818 L728.522279,515.341818 L728.522279,529.468509 L744.154861,529.468509 L744.154861,515.341818 L753.261915,515.341818 L753.261915,551.913455 L744.154861,551.913455 L744.154861,537.141382 L728.522279,537.141382 L728.522279,551.913455 L719.415224,551.913455 Z M770.663321,544.599127 L784.216339,544.599127 L784.216339,522.656145 L775.109285,522.656145 L775.109285,524.377164 C775.109285,529.898764 774.463903,538.288727 770.663321,544.599127 Z M757.038594,544.599127 L761.556267,544.599127 C765.571976,538.718982 766.432485,529.253382 766.432485,522.942982 L766.432485,515.341818 L793.323394,515.341818 L793.323394,544.599127 L798.558158,544.599127 L798.558158,560.518545 L790.311612,560.518545 L790.311612,551.913455 L765.500267,551.913455 L765.500267,560.518545 L757.038594,560.518545 L757.038594,544.599127 Z M803.123636,551.913455 L803.123636,515.341818 L811.800436,515.341818 L811.800436,534.9184 C811.800436,536.567709 811.657018,538.718982 811.585309,539.292655 L811.728727,539.292655 C812.158982,538.360436 813.521455,536.352582 814.453673,534.9184 L828.006691,515.341818 L836.826909,515.341818 L836.826909,551.913455 L828.150109,551.913455 L828.150109,532.408582 C828.150109,531.046109 828.293527,528.966545 828.365236,528.034327 L828.221818,528.034327 C827.791564,529.038255 826.429091,530.9744 825.496873,532.408582 L811.943855,551.913455 L803.123636,551.913455 Z M853.08097,551.913455 L853.08097,523.0864 L841.033842,523.0864 L841.033842,515.341818 L874.235152,515.341818 L874.235152,523.0864 L862.116315,523.0864 L862.116315,551.913455 L853.08097,551.913455 Z M875.215176,533.627636 C875.215176,522.369309 882.888048,514.481309 893.859539,514.481309 C904.329067,514.481309 910.065794,522.154182 910.065794,531.834909 C910.065794,532.982255 909.922376,534.201309 909.778958,535.348655 L884.609067,535.348655 C885.182739,541.730764 890.058958,545.029382 895.580558,545.029382 C899.30943,545.029382 903.110012,543.380073 906.050085,541.013673 L909.635539,547.5392 C905.906667,550.837818 900.169939,552.773964 894.935176,552.773964 C882.816339,552.773964 875.215176,544.025455 875.215176,533.627636 Z M884.824194,529.109964 L900.958739,529.109964 C900.88703,524.233745 897.73183,521.365382 893.644412,521.365382 C888.983321,521.365382 885.684703,524.448873 884.824194,529.109964 Z M915.6352,566.255273 L915.6352,515.341818 L923.953455,515.341818 L923.953455,518.066764 C923.953455,519.429236 923.810036,520.648291 923.810036,520.648291 L923.953455,520.648291 C926.319855,516.704291 930.765818,514.481309 935.713745,514.481309 C945.6096,514.481309 951.92,522.2976 951.92,533.627636 C951.92,545.244509 944.8208,552.773964 935.211782,552.773964 C931.052655,552.773964 927.252073,550.909527 924.670545,547.610909 L924.527127,547.610909 C924.527127,547.610909 924.742255,548.901673 924.742255,550.766109 L924.742255,566.255273 L915.6352,566.255273 Z M924.455418,533.842764 C924.455418,539.507782 927.610618,545.101091 933.562473,545.101091 C938.582109,545.101091 942.741236,541.013673 942.741236,533.771055 C942.741236,526.815273 939.012364,522.2976 933.705891,522.2976 C928.901382,522.2976 924.455418,525.739636 924.455418,533.842764 Z M954.83617,541.802473 C954.83617,530.830982 968.030642,528.966545 976.13377,528.966545 L977.71137,528.966545 L977.71137,528.464582 C977.71137,523.660073 974.627879,522.010764 970.827297,522.010764 C967.241842,522.010764 963.584679,523.516655 960.644606,525.524509 L957.274279,518.998982 C960.286061,516.560873 966.166206,514.481309 971.616097,514.481309 C981.153406,514.481309 986.818424,519.787782 986.818424,529.038255 L986.818424,551.913455 L978.356752,551.913455 L978.356752,548.829964 C978.356752,547.324073 978.571879,546.176727 978.571879,546.176727 L978.428461,546.176727 C976.205479,550.049018 971.831224,552.773964 966.883297,552.773964 C960.286061,552.773964 954.83617,548.471418 954.83617,541.802473 Z M963.871515,541.013673 C963.871515,543.451782 965.735952,545.818182 969.393115,545.818182 C974.484461,545.818182 977.783079,540.655127 977.783079,536.209164 L977.783079,535.205236 L976.205479,535.205236 C971.616097,535.205236 963.871515,535.850618 963.871515,541.013673 Z" id="Товары-для-кондитера" fill="#F5B80A" fill-rule="nonzero"></path>
        </g>
    </g>
</svg>