<?xml version="1.0" encoding="UTF-8"?>
<svg width="981px" height="484px" viewBox="0 0 981 484" version="1.1" xmlns="http://www.w3.org/2000/svg" xmlns:xlink="http://www.w3.org/1999/xlink">
    <!-- Generator: Sketch 52.2 (67145) - http://www.bohemiancoding.com/sketch -->
    <title>logo</title>
    <desc>Created with Sketch.</desc>
    <defs>
        <linearGradient x1="100%" y1="50%" x2="0%" y2="50%" id="linearGradient-1">
            <stop stop-color="#868686" offset="0%"></stop>
            <stop stop-color="#1F1F1F" offset="100%"></stop>
        </linearGradient>
    </defs>
    <g id="Page-1" stroke="none" stroke-width="1" fill="none" fill-rule="evenodd">
        <g id="logo" transform="translate(0.000000, -4.000000)">
            <g id="Group">
                <path d="M24.747246,106.23569 L96.1335324,106.23569 C112.790332,106.23569 143.010528,109.587643 143.010528,137.600389 C143.010528,168.486237 112.552378,178.302669 102.08239,180.696921 L102.08239,181.175772 C122.784413,181.894047 138.965304,192.907606 138.965304,214.934722 C138.965304,264.735159 87.0912694,266.889986 70.9103777,266.889986 C39.9460543,266.889986 21.4796796,266.889986 15.5112538,266.889986 C9.542828,266.889986 4.37241005,266.889986 0,266.889986 L7.44251158e-16,256.321199 L15.2290745,253.721601 L18.7983888,250.369649 L42.5938176,122.516602 L39.9763205,119.16465 C36.6049264,118.419808 33.638345,116.959961 31.0765766,114.785108 C28.5148081,112.610255 26.4050312,109.760449 24.747246,106.23569 Z M73.5324093,118.762418 L62.7600157,176.629076 C65.1538809,176.868194 67.547746,177.107312 70.1809977,177.107312 C86.2198946,177.107312 95.7953559,172.085826 101.06186,167.064339 C106.328362,162.042852 111.116093,154.151944 111.116093,141.000432 C111.116093,123.783905 98.189221,118.284181 81.6715507,118.284181 C77.6019803,118.284181 75.9262745,118.284181 73.5324093,118.762418 Z M59.7839247,190.210017 L48.3560775,252.753175 C51.2130393,252.992804 55.736562,253.472062 60.4981645,253.472062 C69.7832907,253.472062 105.971472,254.430577 105.971472,215.610686 C105.971472,206.265157 106.447633,189.491129 72.640252,189.491129 C70.9736909,189.491129 66.2120883,189.491129 59.7839247,190.210017 Z M196.448988,149.887683 L205.482626,149.887683 L191.456714,216.207151 L191.932168,216.207151 C237.338089,158.267399 254.454457,148.211739 265.389914,148.211739 C273.948098,148.211739 280.129009,155.394354 280.129009,164.49233 C280.129009,177.660456 269.193551,182.448865 260.873095,185.082491 L252.31491,171.196104 C244.232181,175.984513 238.526726,177.899876 225.451722,195.13815 C237.100362,220.037878 248.035819,238.952095 248.986728,240.628038 C252.077184,245.177026 258.495821,253.796163 268.48037,253.796163 C271.570825,253.796163 276.800826,253.077902 280.84219,251.8808 L280.84219,260.978777 C270.14446,264.570085 256.83173,267.92197 246.371727,267.92197 C232.821269,267.92197 224.976268,255.472106 218.319902,242.303981 L204.531717,214.531208 L188.841713,233.924266 L183.373984,266.485448 L155.322159,266.485448 L174.340346,169.041319 L155.322159,166.168274 L155.322159,157.788558 L196.448988,149.887683 Z M288.938749,156.554827 L325.667572,148.211739 C328.291059,148.926861 331.868542,150.357105 334.969027,154.88621 C336.877018,157.508323 340.4545,163.94442 343.793485,184.921326 L352.140944,236.886846 C365.019883,203.037747 369.55136,191.834171 388.39277,148.450113 L395.786234,148.450113 L414.627644,154.647836 L414.627644,161.083932 L400.556211,168.950272 C388.63127,183.967831 381.476303,202.799372 373.84434,219.962296 C359.057411,253.573022 355.479929,262.154484 338.308011,286.230252 C329.483553,298.387324 322.090089,305.061794 316.843115,308.875777 C310.880643,313.166508 302.294685,317.457239 293.947224,317.457239 C286.315261,317.457239 273.674822,311.259517 273.674822,299.102446 C273.674822,288.375618 282.26078,284.561635 287.746255,283.131392 L303.725677,298.14895 C315.412121,296.241959 329.006556,280.270904 339.262006,259.770745 L335.943365,259.770745 C332.608424,259.770745 329.742202,257.397879 329.109856,254.113468 L315.65062,184.206205 C314.458126,178.008482 313.027132,172.525882 309.688149,166.328159 L288.938749,164.421168 L288.938749,156.554827 Z M472.866094,180.100608 C467.906132,164.636155 463.325943,158.404459 459.125528,161.40552 C444.28018,172.012044 430.847746,195.029311 430.847746,216.968238 C430.847746,225.076102 432.511145,250.353561 453.897703,250.353561 C462.689954,250.353561 475.521889,245.345763 490.730107,232.230099 L490.730107,246.299629 C483.601254,252.49976 463.402839,268.953956 441.065768,268.953956 C426.808063,268.953956 417.540555,262.753824 412.550357,257.507559 C406.847275,251.307428 400.431308,240.337964 400.431308,222.691436 C400.431308,186.444514 429.659604,149.243724 468.393036,149.243724 C477.422916,149.243724 494.056905,153.297656 494.056905,168.082585 C494.056905,175.200002 489.592376,180.459742 480.663319,183.861808 L480.66332,183.861812 C477.583373,185.035304 474.138165,183.482217 472.968235,180.392894 C472.931679,180.296365 472.897621,180.198904 472.866094,180.100608 Z M546.56106,149.719063 L555.600266,149.719063 L545.133817,198.441251 L586.523866,198.441251 L596.038819,152.571093 L624.345807,149.243724 L608.884006,222.921181 C607.218891,230.764265 606.267395,235.992988 606.267395,240.271034 C606.267395,245.499757 607.93251,252.392164 618.161089,252.392164 C622.204944,252.392164 628.627533,250.966149 631.957769,249.777803 L631.957769,258.809232 C622.204944,262.374271 607.218891,266.889986 596.514566,266.889986 C586.285992,266.889986 576.771038,262.136602 576.771038,250.72848 C576.771038,245.262087 577.960407,240.984042 578.674029,237.419003 L583.669379,212.226066 L542.755079,212.226066 L533.953747,265.463971 L505.408885,265.463971 L524.438792,168.732599 L505.408885,165.880569 L505.408885,157.562147 L546.56106,149.719063 Z M677.355748,150.275709 L686.377995,150.275709 L675.218901,198.988711 C684.241148,196.600819 693.263394,196.123241 698.486798,196.123241 C715.10673,196.123241 735.050642,203.286918 735.050642,228.837365 C735.050642,253.193866 712.732454,268.953956 680.442305,268.953956 C675.693753,268.953956 663.58495,268.237588 655.274984,264.41696 C642.4539,258.447229 640.079624,247.224136 640.079624,239.82167 C640.079624,236.717409 641.029333,230.74768 641.741614,227.404629 L655.274984,169.378847 L636.280781,166.513376 L636.280781,158.155753 L677.355748,150.275709 Z M676.214624,210.601288 L671.189992,231.762035 C670.711459,233.426363 670.23292,237.468303 670.23292,239.608153 C670.23292,253.636064 682.435597,255.538154 687.220953,255.538154 C698.945091,255.538154 711.387031,247.454274 711.387031,228.195616 C711.387031,216.307557 703.969723,207.03487 692.245585,207.03487 C686.263882,207.03487 680.521448,208.699199 676.214624,210.601288 Z M759.661531,152.571093 L788.158975,149.243724 L772.593142,222.921181 C770.916822,230.764265 769.958926,235.992988 769.958926,240.271034 C769.958926,245.499757 771.635246,252.392164 781.932641,252.392164 C786.003704,252.392164 792.469516,250.966149 795.822155,249.777803 L795.822155,258.809232 C786.003704,262.374271 770.916822,266.889986 760.140476,266.889986 C749.84308,266.889986 740.264108,262.136602 740.264108,250.72848 C740.264108,245.262087 741.461477,241.45938 742.1799,237.419003 L759.661531,152.571093 Z M845.37631,149.719389 L854.415115,149.719389 L840.85691,220.831203 C840.381186,223.68519 838.954001,232.247147 838.954001,235.101134 C838.954001,242.949594 843.711266,247.94407 851.085028,247.94407 C857.031606,247.94407 869.638357,242.949594 880.104335,236.290294 L896.041173,152.573374 L924.34689,149.243724 L910.550826,222.971693 C909.123648,230.106658 907.934328,235.576797 907.934328,240.095609 C907.934328,246.992741 911.978004,252.462881 919.351766,252.462881 C922.206123,252.462881 927.914842,251.749385 933.86142,249.608894 L933.86142,258.646517 C920.541079,262.927495 916.735269,263.878825 914.594501,264.354489 C909.361513,265.543649 901.036296,266.970642 896.041173,266.970642 C884.385876,266.970642 878.677157,259.597846 878.677157,248.419734 L878.677157,247.230573 C873.682033,250.798055 854.17725,267.92197 833.721013,267.92197 C819.211359,267.92197 810.410419,260.311342 810.410419,244.138755 C810.410419,240.095609 811.361873,233.67414 811.837597,230.582323 L823.255035,168.745961 L804.225976,165.891975 L804.225976,157.56785 L845.37631,149.719389 Z" id="Вкусный" fill="url(#linearGradient-1)" fill-rule="nonzero"></path>
                <path d="M381.878434,293.710438 L386.380492,295.510399 C391.242714,313.510002 395.204524,336.369499 396.645183,359.228996 L397.005348,359.228996 L435.002714,295.510399 L451.570287,295.510399 L439.504772,350.769183 C437.884031,357.969023 437.523866,361.208952 437.523866,363.728897 C437.523866,366.608833 438.244195,372.728699 446.167818,372.728699 C449.229217,372.728699 454.451603,371.468727 457.33292,370.38875 L457.33292,375.788632 C449.769463,379.748544 442.386089,382.448485 435.542961,382.448485 C426.899011,382.448485 422.757117,378.848565 422.757117,371.108735 C422.757117,366.968826 423.837611,362.468924 424.197776,360.848961 L436.26329,307.030144 L435.903125,307.030144 L391.602879,380.828521 L385.48008,380.828521 C385.119915,355.989067 384.219504,343.749337 376.836129,308.830105 L376.475965,308.830105 C366.75152,359.768984 355.406335,382.448485 338.478598,382.448485 C332.355799,382.448485 328.754154,378.488573 328.754154,373.268687 C328.754154,368.228799 331.995635,364.448881 336.857857,363.548901 L346.942466,371.828719 C358.287652,358.509012 365.490944,325.209744 369.272673,307.030144 L354.505923,304.5102 L354.505923,299.830302 L381.878434,293.710438 Z M536.467147,294.07043 L545.831426,294.07043 C542.22978,303.070232 540.969204,310.270073 538.988299,319.809863 L532.505335,351.669162 C531.424842,357.429035 530.704512,360.308972 530.704512,363.728897 C530.704512,368.768787 534.126077,372.728699 539.348463,372.728699 C541.329369,372.728699 544.390768,372.368707 550.513566,370.38875 L550.513566,375.788632 C540.789121,380.468528 530.704512,382.448485 528.363442,382.448485 C521.700397,382.448485 517.378422,377.768588 517.378422,368.408794 L517.378422,367.328818 C507.653977,377.948583 499.910438,382.448485 490.005911,382.448485 C470.737105,382.448485 465.514718,363.908893 465.514718,350.949178 C465.514718,324.849752 482.622536,293.890434 516.658093,293.890434 C519.899574,293.890434 525.662207,294.250426 532.8655,298.030343 L536.467147,294.07043 Z M526.922784,312.070033 L519.719492,301.270271 C518.638999,301.090275 517.738586,301.090275 516.658093,301.090275 C493.967723,301.090275 480.641631,324.309765 480.641631,349.50921 C480.641631,369.668766 490.366075,371.288731 496.12871,371.288731 C505.492989,371.288731 513.236528,363.908893 517.558504,359.588988 L526.922784,312.070033 Z M563.095434,315.309962 L563.095434,307.750128 L574.800783,300.550287 C580.923582,296.77037 587.766709,293.890434 596.590742,293.890434 C604.514365,293.890434 615.85955,298.390335 615.85955,312.070033 C615.85955,324.48976 607.215599,330.789622 597.130989,336.549495 L585.065474,343.749337 C577.502018,348.429234 572.639795,353.469123 572.639795,361.028957 C572.639795,371.648723 582.904488,372.008714 586.866298,372.008714 C598.031403,372.008714 610.096918,365.528857 619.461193,357.789027 L619.461193,366.068845 C610.457077,374.348663 594.970002,382.448485 581.463829,382.448485 C579.482923,382.448485 571.739384,382.268489 565.796669,379.028561 C557.873047,374.708655 556.432388,367.508814 556.432388,363.188909 C556.432388,351.489166 566.336915,343.749337 573.540208,339.609427 L587.946792,331.32961 C591.548438,329.169658 600.732637,323.949772 600.732637,313.330006 C600.732637,307.570132 597.491153,302.890236 590.648027,302.890236 C586.506133,302.890236 580.563418,305.230183 576.241442,307.750128 L563.095434,315.309962 Z M700.310187,294.07043 L709.674468,294.07043 C706.072819,303.070232 704.812245,310.270073 702.831335,319.809863 L696.348373,351.669162 C695.267879,357.429035 694.547555,360.308972 694.547555,363.728897 C694.547555,368.768787 697.969118,372.728699 703.1915,372.728699 C705.17241,372.728699 708.233809,372.368707 714.356606,370.38875 L714.356606,375.788632 C704.63216,380.468528 694.547555,382.448485 692.20648,382.448485 C685.543439,382.448485 681.22146,377.768588 681.22146,368.408794 L681.22146,367.328818 C671.49702,377.948583 663.753478,382.448485 653.848953,382.448485 C634.580146,382.448485 629.357759,363.908893 629.357759,350.949178 C629.357759,324.849752 646.465576,293.890434 680.50113,293.890434 C683.742614,293.890434 689.505246,294.250426 696.708538,298.030343 L700.310187,294.07043 Z M690.765821,312.070033 L683.562529,301.270271 C682.48204,301.090275 681.581625,301.090275 680.50113,301.090275 C657.810761,301.090275 644.484672,324.309765 644.484672,349.50921 C644.484672,369.668766 654.209118,371.288731 659.97175,371.288731 C669.336031,371.288731 677.079567,363.908893 681.401546,359.588988 L690.765821,312.070033 Z M736.85893,341.229392 L736.85893,332.22959 L747.84395,332.22959 C762.790784,332.22959 772.155059,323.409784 772.155059,314.229986 C772.155059,305.41018 764.051358,302.890236 758.468805,302.890236 C747.123621,302.890236 734.878026,309.730085 728.935309,313.869994 L728.935309,305.590177 C738.839834,298.210339 750.725269,293.890434 763.331028,293.890434 C772.515224,293.890434 787.281972,295.87039 787.281972,312.25003 C787.281972,324.129768 777.557532,331.149614 767.653001,334.569539 L767.653001,334.92953 C777.557532,336.729491 783.680329,343.389345 783.680329,352.929134 C783.680329,362.288928 778.638027,382.448485 743.341892,382.448485 C722.812512,382.448485 717.410038,373.448683 717.410038,366.608833 C717.410038,360.668965 721.551932,357.24904 726.59424,357.24904 C730.375968,357.24904 733.077202,359.408992 734.517862,360.668965 L731.276378,369.668766 C733.617446,372.188711 737.57926,375.248643 744.602466,375.248643 C763.511108,375.248643 768.553416,361.928936 768.553416,354.729095 C768.553416,348.249238 765.311932,339.429432 752.346008,339.429432 L736.85893,341.229392 Z M828.152694,293.710438 L831.034013,296.230382 L819.688822,348.789226 C817.707918,357.789027 817.707918,360.848961 817.707918,361.928936 C817.707918,369.668766 823.110386,372.188711 827.792529,372.188711 C837.15681,372.188711 845.080432,367.148821 853.724383,360.668965 L867.410637,295.510399 L881.81722,295.510399 L869.751706,350.949178 C868.311046,357.429035 867.770802,360.488968 867.770802,363.728897 C867.770802,368.768787 871.192365,372.728699 876.414753,372.728699 C878.395657,372.728699 881.457055,372.368707 887.579852,370.38875 L887.579852,375.788632 C879.836316,379.568549 872.452939,382.448485 864.889483,382.448485 C859.667095,382.448485 852.823968,380.828521 852.823968,370.208754 C852.823968,369.128778 852.823968,368.228799 853.004053,367.328818 C845.260511,374.168668 832.114502,382.448485 820.229073,382.448485 C811.224957,382.448485 802.94117,378.308577 802.94117,365.528857 C802.94117,362.468924 803.841585,357.24904 804.38183,354.549099 L814.826605,307.030144 L799.699686,304.5102 L799.699686,299.830302 L828.152694,293.710438 Z M920.236919,294.07043 L924.919057,294.07043 L917.53568,331.509606 L952.47165,331.509606 L959.855027,295.510399 L974.26161,295.510399 L962.196096,350.769183 C960.575351,357.969023 960.215186,361.208952 960.215186,363.728897 C960.215186,368.768787 963.636755,372.728699 968.859137,372.728699 C970.840047,372.728699 973.901445,372.368707 980.024242,370.38875 L980.024242,375.788632 C972.2807,379.568549 964.717244,382.448485 957.513952,382.448485 C946.168767,382.448485 944.728108,375.428639 944.728108,371.108735 C944.728108,368.228799 945.628523,363.548901 946.168767,360.848961 L950.850911,339.429432 L916.095026,339.429432 L908.711649,380.828521 L893.584736,380.828521 L908.351484,307.21014 L893.584736,304.5102 L893.584736,299.830302 L920.236919,294.07043 Z" id="магазин" fill="#808080" fill-rule="nonzero"></path>
                <g transform="translate(834.049912, 0.000000)" fill="#DEB96E" id="Path">
                    <path d="M110.341056,79.9877426 C107.806801,74.8953024 100.956996,69.4703812 100.956675,58.4596504 C100.956354,47.4504693 103.655849,39.6907499 106.189807,34.5969083 C108.28301,30.3894909 116.62906,16.6484976 116.851577,9.43767669 C88.852425,9.94993686 80.8392084,21.9406474 71.8416477,32.5435408 C62.8035916,43.1913745 60.2969884,58.9425202 60.2020677,72.3385697 C60.1071463,85.7346191 66.0242537,108.701993 74.913851,119.983396 C81.190087,127.948294 90.6985081,134.332329 100.991569,133.431803 C104.793401,123.879389 107.962252,117.95571 110.340466,113.174906 C112.575395,108.685445 114.505066,104.806563 114.504826,96.5822206 C114.504586,88.3578793 112.574689,84.4788841 110.341056,79.9877426 Z" transform="translate(88.526260, 71.477185) rotate(-175.000000) translate(-88.526260, -71.477185) "></path>
                    <path d="M55.5111207,72.8155216 C52.9768653,67.7230814 46.1270605,62.2981602 46.1267395,51.2874294 C46.1264185,40.2782483 48.8259137,32.518529 51.3598721,27.4246873 C53.4530743,23.2172699 61.7991242,9.47627671 62.0216411,2.26545571 C34.0224896,2.77771589 26.0092727,14.7684264 17.0117119,25.3713198 C7.97365631,36.0191535 5.46705315,51.7702992 5.37213196,65.1663487 C5.27721076,78.5623981 11.1943182,101.529772 20.0839156,112.811174 C26.3601515,120.776073 35.8685728,127.160107 46.1616333,126.259581 C49.9634657,116.707168 53.1323167,110.783489 55.5105304,106.002685 C57.7454599,101.513224 59.6751307,97.6343415 59.674891,89.4099996 C59.6746512,81.1856583 57.7447541,77.3066632 55.5111207,72.8155216 Z" transform="translate(33.696324, 64.304964) rotate(5.000000) translate(-33.696324, -64.304964) "></path>
                </g>
            </g>
            <path d="M252.559418,472.682424 L252.559418,429.728679 L235.8512,429.728679 L235.8512,421.76897 L278.4464,421.76897 L278.4464,429.728679 L261.738182,429.728679 L261.738182,472.682424 L252.559418,472.682424 Z M273.617988,454.396606 C273.617988,443.209988 282.581624,435.250279 293.624824,435.250279 C304.811442,435.250279 313.775079,443.209988 313.775079,454.396606 C313.775079,465.654933 304.811442,473.542933 293.696533,473.542933 C282.581624,473.542933 273.617988,465.654933 273.617988,454.396606 Z M282.868461,454.396606 C282.868461,461.20897 287.744679,465.798352 293.696533,465.798352 C299.648388,465.798352 304.596315,461.20897 304.596315,454.396606 C304.596315,447.655952 299.648388,442.994861 293.696533,442.994861 C287.744679,442.994861 282.868461,447.655952 282.868461,454.396606 Z M319.272776,472.682424 L319.272776,436.110788 L336.26783,436.110788 C343.653867,436.110788 348.601794,439.409406 348.601794,445.576388 C348.601794,448.946715 346.880776,452.101915 343.797285,453.607806 L343.797285,453.679515 C348.171539,454.826861 350.251103,458.412315 350.251103,462.069479 C350.251103,469.383806 344.299248,472.682424 336.626376,472.682424 L319.272776,472.682424 Z M328.37983,451.169697 L334.331685,451.169697 C337.773721,451.169697 339.42303,449.161842 339.42303,446.365188 C339.42303,443.711952 337.773721,442.062642 334.188267,442.062642 L328.37983,442.062642 L328.37983,451.169697 Z M328.37983,466.658861 L335.048776,466.658861 C339.136194,466.658861 341.072339,464.579297 341.072339,461.782642 C341.072339,458.84257 338.992776,456.834715 335.048776,456.834715 L328.37983,456.834715 L328.37983,466.658861 Z M353.023855,462.571442 C353.023855,451.599952 366.218327,449.735515 374.321455,449.735515 L375.899055,449.735515 L375.899055,449.233552 C375.899055,444.429042 372.815564,442.779733 369.014982,442.779733 C365.429527,442.779733 361.772364,444.285624 358.832291,446.293479 L355.461964,439.767952 C358.473745,437.329842 364.353891,435.250279 369.803782,435.250279 C379.341091,435.250279 385.006109,440.556752 385.006109,449.807224 L385.006109,472.682424 L376.544436,472.682424 L376.544436,469.598933 C376.544436,468.093042 376.759564,466.945697 376.759564,466.945697 L376.616145,466.945697 C374.393164,470.817988 370.018909,473.542933 365.070982,473.542933 C358.473745,473.542933 353.023855,469.240388 353.023855,462.571442 Z M362.0592,461.782642 C362.0592,464.220752 363.923636,466.587152 367.5808,466.587152 C372.672145,466.587152 375.970764,461.424097 375.970764,456.978133 L375.970764,455.974206 L374.393164,455.974206 C369.803782,455.974206 362.0592,456.619588 362.0592,461.782642 Z M392.224824,487.024242 L392.224824,436.110788 L400.543079,436.110788 L400.543079,438.835733 C400.543079,440.198206 400.399661,441.417261 400.399661,441.417261 L400.543079,441.417261 C402.909479,437.473261 407.355442,435.250279 412.30337,435.250279 C422.199224,435.250279 428.509624,443.06657 428.509624,454.396606 C428.509624,466.013479 421.410424,473.542933 411.801406,473.542933 C407.642279,473.542933 403.841697,471.678497 401.26017,468.379879 L401.116752,468.379879 C401.116752,468.379879 401.331879,469.670642 401.331879,471.535079 L401.331879,487.024242 L392.224824,487.024242 Z M401.045042,454.611733 C401.045042,460.276752 404.200242,465.870061 410.152097,465.870061 C415.171733,465.870061 419.330861,461.782642 419.330861,454.540024 C419.330861,447.584242 415.601988,443.06657 410.295515,443.06657 C405.491006,443.06657 401.045042,446.508606 401.045042,454.611733 Z M468.642812,472.682424 L468.642812,436.110788 L477.749867,436.110788 L477.749867,472.682424 L468.642812,472.682424 Z M434.222448,472.682424 L434.222448,436.110788 L443.329503,436.110788 L443.329503,448.659879 L449.85503,448.659879 C458.460121,448.659879 463.623176,452.819006 463.623176,460.778715 C463.623176,467.877915 459.392339,472.682424 449.783321,472.682424 L434.222448,472.682424 Z M443.329503,466.443733 L448.349139,466.443733 C452.508267,466.443733 454.444412,464.005624 454.444412,460.707006 C454.444412,457.336679 452.508267,454.826861 448.205721,454.826861 L443.329503,454.826861 L443.329503,466.443733 Z M511.046788,465.368097 L524.599806,465.368097 L524.599806,443.425115 L515.492752,443.425115 L515.492752,445.146133 C515.492752,450.667733 514.84737,459.057697 511.046788,465.368097 Z M497.422061,465.368097 L501.939733,465.368097 C505.955442,459.487952 506.815952,450.022352 506.815952,443.711952 L506.815952,436.110788 L533.706861,436.110788 L533.706861,465.368097 L538.941624,465.368097 L538.941624,481.287515 L530.695079,481.287515 L530.695079,472.682424 L505.883733,472.682424 L505.883733,481.287515 L497.422061,481.287515 L497.422061,465.368097 Z M540.065067,473.04097 L540.065067,465.009552 C544.582739,464.36417 547.737939,460.563588 547.737939,447.584242 L547.737939,436.110788 L574.413721,436.110788 L574.413721,472.682424 L565.306667,472.682424 L565.306667,443.496824 L556.414739,443.496824 L556.414739,447.584242 C556.414739,463.503661 552.183903,472.682424 540.065067,473.04097 Z M578.548945,472.682424 L586.580364,460.993842 C587.440873,459.63137 588.229673,458.770861 588.229673,458.770861 L588.229673,458.699152 C584.142255,457.193261 580.843636,453.177552 580.843636,447.942788 C580.843636,440.413333 586.0784,436.110788 593.9664,436.110788 L610.387782,436.110788 L610.387782,472.682424 L601.280727,472.682424 L601.280727,460.276752 L596.547927,460.276752 L588.373091,472.682424 L578.548945,472.682424 Z M596.476218,453.966352 L601.280727,453.966352 L601.280727,442.062642 L596.547927,442.062642 C592.603927,442.062642 589.950691,443.711952 589.950691,447.871079 C589.950691,452.030206 592.747345,453.966352 596.476218,453.966352 Z M634.003976,472.682424 L634.003976,436.110788 L643.11103,436.110788 L643.11103,450.094061 L647.556994,450.094061 L656.448921,436.110788 L666.559903,436.110788 L654.94303,453.536097 L654.94303,453.679515 L667.994085,472.682424 L657.452848,472.682424 L647.84383,457.838642 L643.11103,457.838642 L643.11103,472.682424 L634.003976,472.682424 Z M667.611636,454.396606 C667.611636,443.209988 676.575273,435.250279 687.618473,435.250279 C698.805091,435.250279 707.768727,443.209988 707.768727,454.396606 C707.768727,465.654933 698.805091,473.542933 687.690182,473.542933 C676.575273,473.542933 667.611636,465.654933 667.611636,454.396606 Z M676.862109,454.396606 C676.862109,461.20897 681.738327,465.798352 687.690182,465.798352 C693.642036,465.798352 698.589964,461.20897 698.589964,454.396606 C698.589964,447.655952 693.642036,442.994861 687.690182,442.994861 C681.738327,442.994861 676.862109,447.655952 676.862109,454.396606 Z M713.266424,472.682424 L713.266424,436.110788 L722.373479,436.110788 L722.373479,450.237479 L738.006061,450.237479 L738.006061,436.110788 L747.113115,436.110788 L747.113115,472.682424 L738.006061,472.682424 L738.006061,457.910352 L722.373479,457.910352 L722.373479,472.682424 L713.266424,472.682424 Z M764.514521,465.368097 L778.067539,465.368097 L778.067539,443.425115 L768.960485,443.425115 L768.960485,445.146133 C768.960485,450.667733 768.315103,459.057697 764.514521,465.368097 Z M750.889794,465.368097 L755.407467,465.368097 C759.423176,459.487952 760.283685,450.022352 760.283685,443.711952 L760.283685,436.110788 L787.174594,436.110788 L787.174594,465.368097 L792.409358,465.368097 L792.409358,481.287515 L784.162812,481.287515 L784.162812,472.682424 L759.351467,472.682424 L759.351467,481.287515 L750.889794,481.287515 L750.889794,465.368097 Z M796.974836,472.682424 L796.974836,436.110788 L805.651636,436.110788 L805.651636,455.68737 C805.651636,457.336679 805.508218,459.487952 805.436509,460.061624 L805.579927,460.061624 C806.010182,459.129406 807.372655,457.121552 808.304873,455.68737 L821.857891,436.110788 L830.678109,436.110788 L830.678109,472.682424 L822.001309,472.682424 L822.001309,453.177552 C822.001309,451.815079 822.144727,449.735515 822.216436,448.803297 L822.073018,448.803297 C821.642764,449.807224 820.280291,451.74337 819.348073,453.177552 L805.795055,472.682424 L796.974836,472.682424 Z M846.93217,472.682424 L846.93217,443.85537 L834.885042,443.85537 L834.885042,436.110788 L868.086352,436.110788 L868.086352,443.85537 L855.967515,443.85537 L855.967515,472.682424 L846.93217,472.682424 Z M869.066376,454.396606 C869.066376,443.138279 876.739248,435.250279 887.710739,435.250279 C898.180267,435.250279 903.916994,442.923152 903.916994,452.603879 C903.916994,453.751224 903.773576,454.970279 903.630158,456.117624 L878.460267,456.117624 C879.033939,462.499733 883.910158,465.798352 889.431758,465.798352 C893.16063,465.798352 896.961212,464.149042 899.901285,461.782642 L903.486739,468.30817 C899.757867,471.606788 894.021139,473.542933 888.786376,473.542933 C876.667539,473.542933 869.066376,464.794424 869.066376,454.396606 Z M878.675394,449.878933 L894.809939,449.878933 C894.73823,445.002715 891.58303,442.134352 887.495612,442.134352 C882.834521,442.134352 879.535903,445.217842 878.675394,449.878933 Z M909.4864,487.024242 L909.4864,436.110788 L917.804655,436.110788 L917.804655,438.835733 C917.804655,440.198206 917.661236,441.417261 917.661236,441.417261 L917.804655,441.417261 C920.171055,437.473261 924.617018,435.250279 929.564945,435.250279 C939.4608,435.250279 945.7712,443.06657 945.7712,454.396606 C945.7712,466.013479 938.672,473.542933 929.062982,473.542933 C924.903855,473.542933 921.103273,471.678497 918.521745,468.379879 L918.378327,468.379879 C918.378327,468.379879 918.593455,469.670642 918.593455,471.535079 L918.593455,487.024242 L909.4864,487.024242 Z M918.306618,454.611733 C918.306618,460.276752 921.461818,465.870061 927.413673,465.870061 C932.433309,465.870061 936.592436,461.782642 936.592436,454.540024 C936.592436,447.584242 932.863564,443.06657 927.557091,443.06657 C922.752582,443.06657 918.306618,446.508606 918.306618,454.611733 Z M948.68737,462.571442 C948.68737,451.599952 961.881842,449.735515 969.98497,449.735515 L971.56257,449.735515 L971.56257,449.233552 C971.56257,444.429042 968.479079,442.779733 964.678497,442.779733 C961.093042,442.779733 957.435879,444.285624 954.495806,446.293479 L951.125479,439.767952 C954.137261,437.329842 960.017406,435.250279 965.467297,435.250279 C975.004606,435.250279 980.669624,440.556752 980.669624,449.807224 L980.669624,472.682424 L972.207952,472.682424 L972.207952,469.598933 C972.207952,468.093042 972.423079,466.945697 972.423079,466.945697 L972.279661,466.945697 C970.056679,470.817988 965.682424,473.542933 960.734497,473.542933 C954.137261,473.542933 948.68737,469.240388 948.68737,462.571442 Z M957.722715,461.782642 C957.722715,464.220752 959.587152,466.587152 963.244315,466.587152 C968.335661,466.587152 971.634279,461.424097 971.634279,456.978133 L971.634279,455.974206 L970.056679,455.974206 C965.467297,455.974206 957.722715,456.619588 957.722715,461.782642 Z" id="Товары-для-кондитера" fill="#DEB96E" fill-rule="nonzero"></path>
        </g>
    </g>
</svg>