<?xml version="1.0" encoding="UTF-8"?>
<svg width="1007px" height="506px" viewBox="0 0 1007 506" version="1.1" xmlns="http://www.w3.org/2000/svg" xmlns:xlink="http://www.w3.org/1999/xlink">
    <!-- Generator: Sketch 52.2 (67145) - http://www.bohemiancoding.com/sketch -->
    <title>logo-1</title>
    <desc>Created with Sketch.</desc>
    <defs>
        <linearGradient x1="100%" y1="50%" x2="0%" y2="50%" id="linearGradient-1">
            <stop stop-color="#868686" offset="0%"></stop>
            <stop stop-color="#1F1F1F" offset="100%"></stop>
        </linearGradient>
    </defs>
    <g id="Page-1" stroke="none" stroke-width="1" fill="none" fill-rule="evenodd">
        <g id="logo-1" transform="translate(0.000000, -8.000000)">
            <g id="logo-cook-hat">
                <g id="logo-cofee" transform="translate(0.000000, 135.000000)">
                    <path d="M24.8903074,0.0946848115 L96.6892709,0.0946848115 C113.442362,0.0946848115 143.837257,3.45578276 143.837257,31.5449585 C143.837257,62.5150754 113.203032,72.3582908 102.672518,74.759075 L102.672518,75.2392319 C123.494217,75.9594672 139.768649,87.0030747 139.768649,109.09029 C139.768649,159.026602 87.5947355,161.187308 71.3203038,161.187308 C40.1769785,161.187308 21.6038515,161.187308 15.6009228,161.187308 C9.59799412,161.187308 4.39768652,161.187308 0,161.187308 L7.48553599e-16,150.589685 L15.3171122,147.982995 L18.9070604,144.621897 L42.8400482,16.4200177 L40.2074196,13.0589198 C36.8165358,12.3120463 33.832805,10.848216 31.2562272,8.66742899 C28.6796494,6.48664194 26.5576761,3.62906055 24.8903074,0.0946848115 Z M73.9574926,12.6555908 L63.122825,70.6801308 C65.5305289,70.9199016 67.9382328,71.1596725 70.5867071,71.1596725 C86.7183234,71.1596725 96.3491391,66.1244851 101.646088,61.0892978 C106.943036,56.0541104 111.758444,48.1416731 111.758444,34.9542777 C111.758444,17.6907781 98.756843,12.1760491 82.143686,12.1760491 C78.0505893,12.1760491 76.3651966,12.1760491 73.9574926,12.6555908 Z M60.1295293,84.2981257 L48.6356192,147.011926 C51.5090968,147.252209 56.0587695,147.732774 60.8478987,147.732774 C70.1867007,147.732774 106.584083,148.693905 106.584083,109.768098 C106.584083,100.397071 107.062996,83.5772774 73.0601782,83.5772774 C71.383983,83.5772774 66.5948538,83.5772774 60.1295293,84.2981257 Z M197.58464,43.8657769 L206.670501,43.8657769 L192.563506,110.36619 L193.041709,110.36619 C238.710117,52.2683562 255.925433,42.185261 266.924107,42.185261 C275.531765,42.185261 281.748407,49.3874719 281.748407,58.5102723 C281.748407,71.7143255 270.749732,76.5157994 262.381176,79.15661 L253.773518,65.2323357 C245.644063,70.0338096 239.905625,71.9543992 226.755036,89.2397052 C238.471015,114.207369 249.469689,133.173191 250.426096,134.853707 C253.534417,139.415107 259.99016,148.05776 270.032428,148.05776 C273.140749,148.05776 278.400984,147.337539 282.465711,146.137171 L282.465711,155.259971 C271.706139,158.861077 258.316449,162.222108 247.795978,162.222108 C234.167186,162.222108 226.276833,149.738276 219.581988,136.534223 L205.714095,108.685675 L189.933388,128.131644 L184.434051,160.781666 L156.220061,160.781666 L175.34819,63.0716725 L156.220061,60.1907881 L156.220061,51.7882088 L197.58464,43.8657769 Z M290.609075,50.5511122 L327.550224,42.185261 C330.188877,42.902334 333.787041,44.3364799 336.90545,48.877942 C338.82447,51.5072095 342.422634,57.9608661 345.780921,78.9950063 L354.176636,131.102308 C367.130026,97.1608546 371.6877,85.9267115 390.63803,42.4242853 L398.074235,42.4242853 L417.024565,48.6389176 L417.024565,55.0925743 L402.871787,62.9803768 C390.877908,78.038909 383.68158,96.9218303 376.005497,114.131581 C361.133086,147.83401 357.534923,156.438886 340.263736,180.580342 C331.388265,192.770583 323.95206,199.463264 318.674753,203.287653 C312.677813,207.59009 304.04222,211.892528 295.646504,211.892528 C287.970421,211.892528 275.256909,205.677896 275.256909,193.487656 C275.256909,182.731561 283.892502,178.907172 289.409687,177.473026 L305.481485,192.531558 C317.235487,190.619364 330.90851,174.604734 341.223246,154.048643 L337.88542,154.048643 C334.5312,154.048643 331.648409,151.669302 331.012407,148.375931 L317.475365,78.2779333 C316.275977,72.063301 314.836711,66.5657416 311.478425,60.3511093 L290.609075,58.4389148 L290.609075,50.5511122 Z M475.599686,74.1611346 C470.611051,58.6544887 466.004384,52.4057905 461.779687,55.4150399 C446.848519,66.0505016 433.338434,89.1305688 433.338434,111.129354 C433.338434,119.259339 435.011449,144.605765 456.52164,144.605765 C465.364718,144.605765 478.270833,139.584304 493.566969,126.432856 L493.566969,140.540772 C486.396905,146.75782 466.081725,163.256909 443.615525,163.256909 C429.275398,163.256909 419.954315,157.039861 414.93527,151.779282 C409.199219,145.562234 402.746162,134.562842 402.746162,116.868167 C402.746162,80.5223487 432.143423,43.2200614 471.100769,43.2200614 C480.18285,43.2200614 496.912999,47.2850543 496.912999,62.1103223 C496.912999,69.2471578 492.422661,74.5212493 483.441986,77.9325968 L483.441987,77.9326009 C480.344235,79.1092953 476.879111,77.55197 475.702417,74.4542175 C475.66565,74.357426 475.631395,74.2596989 475.599686,74.1611346 Z M549.720675,43.6966968 L558.812136,43.6966968 L548.285181,92.5518191 L589.914502,92.5518191 L599.48446,46.5565088 L627.955087,43.2200614 L612.403904,117.098539 C610.729162,124.963022 609.772166,130.206011 609.772166,134.495729 C609.772166,139.738718 611.446909,146.64993 621.734614,146.64993 C625.801847,146.64993 632.261569,145.220024 635.611054,144.028436 L635.611054,153.084507 C625.801847,156.659272 610.729162,161.187308 599.962958,161.187308 C589.675253,161.187308 580.105294,156.420955 580.105294,144.981707 C580.105294,139.5004 581.301539,135.210682 582.019286,131.635917 L587.043514,106.374244 L545.892692,106.374244 L537.04048,159.757402 L508.330604,159.757402 L527.470521,62.7621104 L508.330604,59.9022983 L508.330604,51.5611799 L549.720675,43.6966968 Z M681.271475,44.2548618 L690.345878,44.2548618 L679.122274,93.1007725 C688.196677,90.7063651 697.271081,90.2274836 702.524683,90.2274836 C719.24069,90.2274836 739.299898,97.4107058 739.299898,123.030865 C739.299898,147.45382 716.852689,163.256909 684.375876,163.256909 C679.599874,163.256909 667.421069,162.538587 659.063066,158.707535 C646.167861,152.721516 643.77986,141.467802 643.77986,134.045139 C643.77986,130.932409 644.73506,124.946391 645.451461,121.59422 L659.063066,63.4101209 L639.959058,60.536832 L639.959058,52.1564062 L681.271475,44.2548618 Z M680.123753,104.745033 L675.070077,125.963514 C674.588774,127.632383 674.107472,131.685351 674.107472,133.83104 C674.107472,147.897224 686.380686,149.804504 691.193711,149.804504 C702.985623,149.804504 715.499488,141.698567 715.499488,122.387365 C715.499488,110.46687 708.039299,101.168884 696.247388,101.168884 C690.231106,101.168884 684.455476,102.837754 680.123753,104.745033 Z M764.053057,46.5565088 L792.715244,43.2200614 L777.059427,117.098539 C775.373416,124.963022 774.409981,130.206011 774.409981,134.495729 C774.409981,139.738718 776.095992,146.64993 786.452917,146.64993 C790.547515,146.64993 797.050701,145.220024 800.422723,144.028436 L800.422723,153.084507 C790.547515,156.659272 775.373416,161.187308 764.534774,161.187308 C754.177849,161.187308 744.543501,156.420955 744.543501,144.981707 C744.543501,139.5004 745.747794,135.687317 746.47037,131.635917 L764.053057,46.5565088 Z M850.263347,43.6970235 L859.354401,43.6970235 L845.71782,115.002859 C845.239343,117.864632 843.803914,126.44995 843.803914,129.311723 C843.803914,137.181598 848.588679,142.1897 856.005065,142.1897 C861.986022,142.1897 874.665649,137.181598 885.192133,130.504128 L901.221096,46.5587962 L929.690449,43.2200614 L915.81463,117.149189 C914.379201,124.303621 913.183009,129.788685 913.183009,134.319825 C913.183009,141.235776 917.25006,146.72084 924.666446,146.72084 C927.537305,146.72084 933.279023,146.005397 939.25998,143.859067 L939.25998,152.921347 C925.862637,157.214006 922.034825,158.167931 919.88168,158.644893 C914.618439,159.837298 906.2451,161.268184 901.221096,161.268184 C889.498421,161.268184 883.756703,153.875272 883.756703,142.666662 L883.756703,141.474257 C878.7327,145.051472 859.115162,162.222108 838.540672,162.222108 C823.947138,162.222108 815.095323,154.590715 815.095323,138.374003 C815.095323,134.319825 816.052276,127.880836 816.530752,124.780583 L828.014189,62.775508 L808.875128,59.9137354 L808.875128,51.5668984 L850.263347,43.6970235 Z" id="Вкусный" fill="url(#linearGradient-1)"></path>
                    <path d="M383.679043,188.402559 L388.206295,190.21346 C393.095727,208.322467 397.079708,231.320906 398.528429,254.319345 L398.890609,254.319345 L437.100614,190.21346 L453.760901,190.21346 L441.627866,245.808112 C439.998055,253.051714 439.635875,256.311336 439.635875,258.846597 C439.635875,261.744038 440.360235,267.9011 448.328199,267.9011 C451.40673,267.9011 456.658342,266.63347 459.555783,265.546929 L459.555783,270.979632 C451.95,274.963613 444.525307,277.679964 437.643884,277.679964 C428.951561,277.679964 424.786489,274.058163 424.786489,266.27129 C424.786489,262.106218 425.87303,257.578966 426.23521,255.949156 L438.368245,201.803224 L438.006064,201.803224 L393.457907,276.050154 L387.300844,276.050154 C386.938664,251.059724 386.033214,238.745599 378.608521,203.614125 L378.246341,203.614125 C368.467477,254.862615 357.058802,277.679964 340.036336,277.679964 C333.879273,277.679964 330.257472,273.695983 330.257472,268.444371 C330.257472,263.373849 333.517093,259.570957 338.406525,258.665507 L348.547569,266.99565 C359.956244,253.594985 367.199846,220.093321 371.002738,201.803224 L356.153352,199.267963 L356.153352,194.559621 L383.679043,188.402559 Z M539.132856,188.764739 L548.549539,188.764739 C544.927738,197.819243 543.660107,205.062845 541.668117,214.660619 L535.148874,246.713562 C534.062334,252.508444 533.337973,255.405885 533.337973,258.846597 C533.337973,263.917119 536.778685,267.9011 542.030297,267.9011 C544.022288,267.9011 547.100819,267.53892 553.257881,265.546929 L553.257881,270.979632 C543.479017,275.687973 533.337973,277.679964 530.983802,277.679964 C524.28347,277.679964 519.937308,272.971622 519.937308,263.554939 L519.937308,262.468398 C510.158444,273.152712 502.371571,277.679964 492.411617,277.679964 C473.03498,277.679964 467.783367,259.027687 467.783367,245.989202 C467.783367,219.731141 484.986924,188.583649 519.212948,188.583649 C522.472569,188.583649 528.267451,188.945829 535.511054,192.748721 L539.132856,188.764739 Z M529.535082,206.873746 L522.291479,196.008342 C521.204939,195.827252 520.299488,195.827252 519.212948,195.827252 C496.395599,195.827252 482.994933,219.187871 482.994933,244.540481 C482.994933,264.822569 492.773797,266.45238 498.56868,266.45238 C507.985363,266.45238 515.772236,259.027687 520.118398,254.681525 L529.535082,206.873746 Z M565.910159,210.133367 L565.910159,202.527584 L577.681013,195.283982 C583.838076,191.48109 590.719498,188.583649 599.592912,188.583649 C607.560875,188.583649 618.96955,193.110901 618.96955,206.873746 C618.96955,219.368961 610.277226,225.707114 600.136182,231.501996 L588.003147,238.745599 C580.397364,243.453941 575.507932,248.524463 575.507932,256.130246 C575.507932,266.81456 585.830067,267.17674 589.814048,267.17674 C601.041633,267.17674 613.174667,260.657497 622.591351,252.870624 L622.591351,261.200768 C613.536847,269.530911 597.963101,277.679964 584.381346,277.679964 C582.389355,277.679964 574.602482,277.498874 568.62651,274.239253 C560.658547,269.893091 559.209826,262.649488 559.209826,258.303327 C559.209826,246.532472 569.16978,238.745599 576.413383,234.580527 L590.900589,226.250384 C594.52239,224.077303 603.757984,218.825691 603.757984,208.141377 C603.757984,202.346494 600.498362,197.638153 593.61694,197.638153 C589.451868,197.638153 583.475896,199.992323 579.129734,202.527584 L565.910159,210.133367 Z M703.892784,188.764739 L713.309468,188.764739 C709.687666,197.819243 708.420036,205.062845 706.428045,214.660619 L699.908802,246.713562 C698.822262,252.508444 698.097902,255.405885 698.097902,258.846597 C698.097902,263.917119 701.538613,267.9011 706.790225,267.9011 C708.782216,267.9011 711.860747,267.53892 718.01781,265.546929 L718.01781,270.979632 C708.238946,275.687973 698.097902,277.679964 695.743731,277.679964 C689.043398,277.679964 684.697236,272.971622 684.697236,263.554939 L684.697236,262.468398 C674.918373,273.152712 667.131499,277.679964 657.171546,277.679964 C637.794908,277.679964 632.543296,259.027687 632.543296,245.989202 C632.543296,219.731141 649.746853,188.583649 683.972876,188.583649 C687.232497,188.583649 693.02738,188.945829 700.270983,192.748721 L703.892784,188.764739 Z M694.29501,206.873746 L687.051407,196.008342 C685.964867,195.827252 685.059417,195.827252 683.972876,195.827252 C661.155527,195.827252 647.754862,219.187871 647.754862,244.540481 C647.754862,264.822569 657.533726,266.45238 663.328608,266.45238 C672.745292,266.45238 680.532165,259.027687 684.878327,254.681525 L694.29501,206.873746 Z M740.646059,236.210338 L740.646059,227.155834 L751.692554,227.155834 C766.72303,227.155834 776.139713,218.282421 776.139713,209.046827 C776.139713,200.173414 767.99066,197.638153 762.376868,197.638153 C750.968193,197.638153 738.654069,204.519575 732.678096,208.684647 L732.678096,200.354504 C742.63805,192.929811 754.589995,188.583649 767.2663,188.583649 C776.501894,188.583649 791.351279,190.57564 791.351279,207.054836 C791.351279,219.006781 781.572416,226.069294 771.612462,229.510005 L771.612462,229.872185 C781.572416,231.683086 787.729478,238.383419 787.729478,247.981192 C787.729478,257.397876 782.658956,277.679964 747.165302,277.679964 C726.521034,277.679964 721.088332,268.625461 721.088332,261.744038 C721.088332,255.768066 725.253403,252.327354 730.323925,252.327354 C734.126817,252.327354 736.843168,254.500435 738.291888,255.768066 L735.032267,264.822569 C737.386438,267.35783 741.37042,270.436361 748.432932,270.436361 C767.44739,270.436361 772.517912,257.035696 772.517912,249.792093 C772.517912,243.272851 769.258291,234.399437 756.219806,234.399437 L740.646059,236.210338 Z M832.450716,188.402559 L835.348158,190.93782 L823.939483,243.816121 C821.947492,252.870624 821.947492,255.949156 821.947492,257.035696 C821.947492,264.822569 827.380194,267.35783 832.088536,267.35783 C841.50522,267.35783 849.473183,262.287308 858.165507,255.768066 L871.928352,190.21346 L886.415558,190.21346 L874.282523,245.989202 C872.833802,252.508444 872.290532,255.586975 872.290532,258.846597 C872.290532,263.917119 875.731244,267.9011 880.982856,267.9011 C882.974846,267.9011 886.053378,267.53892 892.21044,265.546929 L892.21044,270.979632 C884.423567,274.782523 876.998874,277.679964 869.393091,277.679964 C864.141479,277.679964 857.260056,276.050154 857.260056,265.365839 C857.260056,264.279299 857.260056,263.373849 857.441146,262.468398 C849.654273,269.349821 836.434698,277.679964 824.482753,277.679964 C815.42825,277.679964 807.098106,273.514893 807.098106,260.657497 C807.098106,257.578966 808.003557,252.327354 808.546827,249.611003 L819.050051,201.803224 L803.838485,199.267963 L803.838485,194.559621 L832.450716,188.402559 Z M925.050256,188.764739 L929.758598,188.764739 L922.333905,226.431474 L957.465379,226.431474 L964.890072,190.21346 L979.377277,190.21346 L967.244243,245.808112 C965.614432,253.051714 965.252252,256.311336 965.252252,258.846597 C965.252252,263.917119 968.692963,267.9011 973.944575,267.9011 C975.936566,267.9011 979.015097,267.53892 985.17216,265.546929 L985.17216,270.979632 C977.385287,274.782523 969.779504,277.679964 962.535901,277.679964 C951.127226,277.679964 949.678506,270.617451 949.678506,266.27129 C949.678506,263.373849 950.583956,258.665507 951.127226,255.949156 L955.835568,234.399437 L920.885184,234.399437 L913.460491,276.050154 L898.248925,276.050154 L913.098311,201.984314 L898.248925,199.267963 L898.248925,194.559621 L925.050256,188.764739 Z" id="магазин" fill="#808080"></path>
                </g>
                <g id="Group-3" transform="translate(833.000000, 0.000000)" fill="#C04B86" fill-rule="nonzero">
                    <g id="Group-4" transform="translate(83.561786, 127.924550) rotate(3.000000) translate(-83.561786, -127.924550) translate(29.625177, 95.764486)">
                        <path d="M1.42245082,0.0824442305 C1.46408861,-1.98798613 3.17625813,-3.63264746 5.24668849,-3.59100968 C7.31711885,-3.54937189 8.96178018,-1.83720236 8.9201424,0.233227996 L8.21538362,35.2772122 C8.17374584,37.3476426 6.46157631,38.9923039 4.39114595,38.9506661 C2.32071559,38.9090283 0.676054259,37.1968588 0.717692046,35.1264284 L1.42245082,0.0824442305 Z" id="Line-4"></path>
                        <path d="M102.80927,19.8180618 C102.645099,18.4809959 104.768705,19.0983742 105.021457,21.1568709 C106.931525,36.7131288 87.4480276,51.3603288 61.6121022,51.3797841 C36.1537609,51.398955 16.120147,42.8599946 1.71546036,25.7784124 C0.842573983,24.7433131 0.974073502,23.1965852 2.00917276,22.3236988 C3.04427201,21.4508124 4.13403822,17.8606571 5.0069246,18.8957563 C18.4399246,34.8250785 37.543661,46.4945789 61.6084099,46.4764574 C85.2955749,46.4586202 104.896354,36.8159958 102.80927,19.8180618 Z" id="Line-5" transform="translate(53.144342, 35.044935) rotate(4.000000) translate(-53.144342, -35.044935) "></path>
                        <path d="M104.287627,11.8994234 C104.438661,10.2336476 107.892482,11.2557453 107.741447,12.921521 L105.594792,36.5972623 C105.59232,36.62453 105.589478,36.651763 105.586267,36.6789536 C103.424713,54.9836517 88.6387497,64.1249126 62.5090343,64.1249126 C36.8862339,64.1249126 16.6833302,55.502293 2.15169278,38.2765997 C1.07318615,36.9981461 1.23527521,35.0874523 2.51372883,34.0089456 C3.79218245,32.930439 5.53682779,29.9241345 6.61533442,31.2025881 C19.9479943,47.0070225 38.6061367,58.0678603 62.5090343,58.0678603 C85.8839267,58.0678603 100.191223,51.568598 101.946895,36.869685 L104.287627,11.8994234 Z" id="Line-5"></path>
                    </g>
                    <path d="M113.824332,14.4052855 C122.227642,13.0617737 130.584264,14.167803 141.183775,17.3509065 C151.753374,20.525027 160.082639,26.7503174 165.837005,35.3176266 C171.024195,43.0405017 173.938392,52.4369248 174.44642,62.2848362 C175.296782,78.768724 166.139759,92.1988216 149.288507,101.298051 C134.087908,109.505973 113.08053,113.901119 90.1305109,113.930134 C46.3888195,113.985436 17.9623532,97.0711357 9.50264766,67.384242 C1.42938513,39.0534584 18.4403431,17.08601 48.2095559,15.0265682 C53.7363985,14.6442198 61.5820409,15.0921471 68.6349705,16.7464799 C77.2800877,18.7742756 84.115001,22.3790013 88.2868255,27.9410522 C96.3609157,20.1991366 104.788711,15.8498904 113.824332,14.4052855 Z M90.1716517,107.164323 C112.032938,107.136684 132.962053,103.964053 147.030902,96.3672472 C161.660639,88.4675764 169.510225,75.9005171 168.813611,62.3969673 C168.368859,53.77564 165.018519,44.2920824 160.57278,37.6731052 C155.720429,30.4487493 148.12023,25.0465147 139.132731,22.3475092 C129.463359,19.4437328 122.001643,19.6535085 114.841062,20.7983341 C106.20077,22.1797342 98.0751685,26.4904899 90.0357333,35.2352893 C88.3079204,37.1146971 87.801708,37.203956 86.0501236,34.8087923 C82.1253469,29.441947 75.7914008,25.6669666 67.0194711,23.6094258 C60.7175964,22.1312603 53.7148785,22.5750265 48.8480886,22.9117123 C36.525038,23.7642241 28.6435159,28.4417165 22.7423037,36.0623675 C16.7271122,43.830208 16.0163918,52.9600841 19.4201035,64.9044274 C26.917949,91.2159514 49.3300843,107.215958 90.1716517,107.164323 Z" id="Oval" transform="translate(91.000000, 63.887480) rotate(10.000000) translate(-91.000000, -63.887480) "></path>
                    <path d="M59.8479133,102.386364 C60.4648547,103.651615 59.0913125,104.173565 57.7670087,104.762996 C56.4427049,105.352427 54.8690147,104.804567 54.2520734,103.539316 C52.7646088,100.488757 52,97.7229714 52,95.2207632 C52,92.8593508 52.6984949,89.1335544 54.0857985,83.9067145 C54.4449072,82.5537273 55.8840266,81.7350484 57.3001615,82.0781439 C58.7162964,82.4212394 59.5731855,83.7961862 59.2140767,85.1491734 C57.9285272,89.9926418 57.2905956,93.3953915 57.2905956,95.2207632 C57.2905956,96.9053391 58.6625249,99.9553158 59.8479133,102.386364 Z" id="Line-6"></path>
                    <path d="M133.65634,110.508676 C134.47086,111.83028 134.053156,113.55789 132.723372,114.3674 C131.393587,115.176911 128.937923,115.245642 128.123402,113.924037 C126.447278,111.204433 126.285247,108.203889 126.285247,105.850838 C126.285247,103.694345 127.052417,100.456813 128.569945,95.9333516 C129.063185,94.4630985 130.662287,93.6686129 132.14164,94.1588182 C133.620994,94.6490236 134.420397,96.2382892 133.927157,97.7085423 C132.591705,101.689273 131.932384,104.471669 131.932384,105.850838 C131.932384,107.033451 132.479484,108.599163 133.65634,110.508676 Z" id="Line-6" transform="translate(130.179067, 104.482552) rotate(34.000000) translate(-130.179067, -104.482552) "></path>
                    <path d="M74.3892532,108.960243 C74.3351798,110.461273 71.9380295,109.912591 70.5027585,109.85604 C69.0674874,109.799489 67.9478056,108.536821 68.0018789,107.035791 C68.1780575,102.145229 68.6189432,98.1904635 69.3405856,95.1438143 C70.0631122,92.0934318 71.6298027,87.9200378 74.0465473,82.5603677 C74.6591613,81.2017596 76.2089023,80.6197653 77.5079908,81.2604471 C78.8070793,81.9011289 79.3635769,83.5218736 78.7509629,84.8804817 C76.4682101,89.9429949 75.0123435,93.8211734 74.3892532,96.4517526 C73.7652787,99.086065 74.5531277,104.411231 74.3892532,108.960243 Z" id="Line-7"></path>
                    <path d="M112.001794,112.044852 C111.883088,113.554885 110.384981,115.112168 108.872763,114.993633 C107.360544,114.875099 104.885412,113.554885 105.004118,112.044852 C105.387322,107.170191 107.700862,103.190845 109.299776,100.097457 C110.869921,97.0597273 114.18484,93.013149 119.294352,87.8204213 C120.357461,86.7399982 122.096404,86.7247167 123.178391,87.7862891 C124.260378,88.8478616 124.275682,90.5842921 123.212573,91.6647152 C118.461425,96.4932426 115.434302,100.188503 114.181024,102.613195 C112.956515,104.98223 112.332102,107.843067 112.001794,112.044852 Z" id="Line-7"></path>
                </g>
            </g>
            <path d="M256.708218,498.913455 L256.708218,455.959709 L240,455.959709 L240,448 L282.5952,448 L282.5952,455.959709 L265.886982,455.959709 L265.886982,498.913455 L256.708218,498.913455 Z M277.766788,480.627636 C277.766788,469.441018 286.730424,461.481309 297.773624,461.481309 C308.960242,461.481309 317.923879,469.441018 317.923879,480.627636 C317.923879,491.885964 308.960242,499.773964 297.845333,499.773964 C286.730424,499.773964 277.766788,491.885964 277.766788,480.627636 Z M287.017261,480.627636 C287.017261,487.44 291.893479,492.029382 297.845333,492.029382 C303.797188,492.029382 308.745115,487.44 308.745115,480.627636 C308.745115,473.886982 303.797188,469.225891 297.845333,469.225891 C291.893479,469.225891 287.017261,473.886982 287.017261,480.627636 Z M323.421576,498.913455 L323.421576,462.341818 L340.41663,462.341818 C347.802667,462.341818 352.750594,465.640436 352.750594,471.807418 C352.750594,475.177745 351.029576,478.332945 347.946085,479.838836 L347.946085,479.910545 C352.320339,481.057891 354.399903,484.643345 354.399903,488.300509 C354.399903,495.614836 348.448048,498.913455 340.775176,498.913455 L323.421576,498.913455 Z M332.52863,477.400727 L338.480485,477.400727 C341.922521,477.400727 343.57183,475.392873 343.57183,472.596218 C343.57183,469.942982 341.922521,468.293673 338.337067,468.293673 L332.52863,468.293673 L332.52863,477.400727 Z M332.52863,492.889891 L339.197576,492.889891 C343.284994,492.889891 345.221139,490.810327 345.221139,488.013673 C345.221139,485.0736 343.141576,483.065745 339.197576,483.065745 L332.52863,483.065745 L332.52863,492.889891 Z M357.172655,488.802473 C357.172655,477.830982 370.367127,475.966545 378.470255,475.966545 L380.047855,475.966545 L380.047855,475.464582 C380.047855,470.660073 376.964364,469.010764 373.163782,469.010764 C369.578327,469.010764 365.921164,470.516655 362.981091,472.524509 L359.610764,465.998982 C362.622545,463.560873 368.502691,461.481309 373.952582,461.481309 C383.489891,461.481309 389.154909,466.787782 389.154909,476.038255 L389.154909,498.913455 L380.693236,498.913455 L380.693236,495.829964 C380.693236,494.324073 380.908364,493.176727 380.908364,493.176727 L380.764945,493.176727 C378.541964,497.049018 374.167709,499.773964 369.219782,499.773964 C362.622545,499.773964 357.172655,495.471418 357.172655,488.802473 Z M366.208,488.013673 C366.208,490.451782 368.072436,492.818182 371.7296,492.818182 C376.820945,492.818182 380.119564,487.655127 380.119564,483.209164 L380.119564,482.205236 L378.541964,482.205236 C373.952582,482.205236 366.208,482.850618 366.208,488.013673 Z M396.373624,513.255273 L396.373624,462.341818 L404.691879,462.341818 L404.691879,465.066764 C404.691879,466.429236 404.548461,467.648291 404.548461,467.648291 L404.691879,467.648291 C407.058279,463.704291 411.504242,461.481309 416.45217,461.481309 C426.348024,461.481309 432.658424,469.2976 432.658424,480.627636 C432.658424,492.244509 425.559224,499.773964 415.950206,499.773964 C411.791079,499.773964 407.990497,497.909527 405.40897,494.610909 L405.265552,494.610909 C405.265552,494.610909 405.480679,495.901673 405.480679,497.766109 L405.480679,513.255273 L396.373624,513.255273 Z M405.193842,480.842764 C405.193842,486.507782 408.349042,492.101091 414.300897,492.101091 C419.320533,492.101091 423.479661,488.013673 423.479661,480.771055 C423.479661,473.815273 419.750788,469.2976 414.444315,469.2976 C409.639806,469.2976 405.193842,472.739636 405.193842,480.842764 Z M472.791612,498.913455 L472.791612,462.341818 L481.898667,462.341818 L481.898667,498.913455 L472.791612,498.913455 Z M438.371248,498.913455 L438.371248,462.341818 L447.478303,462.341818 L447.478303,474.890909 L454.00383,474.890909 C462.608921,474.890909 467.771976,479.050036 467.771976,487.009745 C467.771976,494.108945 463.541139,498.913455 453.932121,498.913455 L438.371248,498.913455 Z M447.478303,492.674764 L452.497939,492.674764 C456.657067,492.674764 458.593212,490.236655 458.593212,486.938036 C458.593212,483.567709 456.657067,481.057891 452.354521,481.057891 L447.478303,481.057891 L447.478303,492.674764 Z M515.195588,491.599127 L528.748606,491.599127 L528.748606,469.656145 L519.641552,469.656145 L519.641552,471.377164 C519.641552,476.898764 518.99617,485.288727 515.195588,491.599127 Z M501.570861,491.599127 L506.088533,491.599127 C510.104242,485.718982 510.964752,476.253382 510.964752,469.942982 L510.964752,462.341818 L537.855661,462.341818 L537.855661,491.599127 L543.090424,491.599127 L543.090424,507.518545 L534.843879,507.518545 L534.843879,498.913455 L510.032533,498.913455 L510.032533,507.518545 L501.570861,507.518545 L501.570861,491.599127 Z M544.213867,499.272 L544.213867,491.240582 C548.731539,490.5952 551.886739,486.794618 551.886739,473.815273 L551.886739,462.341818 L578.562521,462.341818 L578.562521,498.913455 L569.455467,498.913455 L569.455467,469.727855 L560.563539,469.727855 L560.563539,473.815273 C560.563539,489.734691 556.332703,498.913455 544.213867,499.272 Z M582.697745,498.913455 L590.729164,487.224873 C591.589673,485.8624 592.378473,485.001891 592.378473,485.001891 L592.378473,484.930182 C588.291055,483.424291 584.992436,479.408582 584.992436,474.173818 C584.992436,466.644364 590.2272,462.341818 598.1152,462.341818 L614.536582,462.341818 L614.536582,498.913455 L605.429527,498.913455 L605.429527,486.507782 L600.696727,486.507782 L592.521891,498.913455 L582.697745,498.913455 Z M600.625018,480.197382 L605.429527,480.197382 L605.429527,468.293673 L600.696727,468.293673 C596.752727,468.293673 594.099491,469.942982 594.099491,474.102109 C594.099491,478.261236 596.896145,480.197382 600.625018,480.197382 Z M638.152776,498.913455 L638.152776,462.341818 L647.25983,462.341818 L647.25983,476.325091 L651.705794,476.325091 L660.597721,462.341818 L670.708703,462.341818 L659.09183,479.767127 L659.09183,479.910545 L672.142885,498.913455 L661.601648,498.913455 L651.99263,484.069673 L647.25983,484.069673 L647.25983,498.913455 L638.152776,498.913455 Z M671.760436,480.627636 C671.760436,469.441018 680.724073,461.481309 691.767273,461.481309 C702.953891,461.481309 711.917527,469.441018 711.917527,480.627636 C711.917527,491.885964 702.953891,499.773964 691.838982,499.773964 C680.724073,499.773964 671.760436,491.885964 671.760436,480.627636 Z M681.010909,480.627636 C681.010909,487.44 685.887127,492.029382 691.838982,492.029382 C697.790836,492.029382 702.738764,487.44 702.738764,480.627636 C702.738764,473.886982 697.790836,469.225891 691.838982,469.225891 C685.887127,469.225891 681.010909,473.886982 681.010909,480.627636 Z M717.415224,498.913455 L717.415224,462.341818 L726.522279,462.341818 L726.522279,476.468509 L742.154861,476.468509 L742.154861,462.341818 L751.261915,462.341818 L751.261915,498.913455 L742.154861,498.913455 L742.154861,484.141382 L726.522279,484.141382 L726.522279,498.913455 L717.415224,498.913455 Z M768.663321,491.599127 L782.216339,491.599127 L782.216339,469.656145 L773.109285,469.656145 L773.109285,471.377164 C773.109285,476.898764 772.463903,485.288727 768.663321,491.599127 Z M755.038594,491.599127 L759.556267,491.599127 C763.571976,485.718982 764.432485,476.253382 764.432485,469.942982 L764.432485,462.341818 L791.323394,462.341818 L791.323394,491.599127 L796.558158,491.599127 L796.558158,507.518545 L788.311612,507.518545 L788.311612,498.913455 L763.500267,498.913455 L763.500267,507.518545 L755.038594,507.518545 L755.038594,491.599127 Z M801.123636,498.913455 L801.123636,462.341818 L809.800436,462.341818 L809.800436,481.9184 C809.800436,483.567709 809.657018,485.718982 809.585309,486.292655 L809.728727,486.292655 C810.158982,485.360436 811.521455,483.352582 812.453673,481.9184 L826.006691,462.341818 L834.826909,462.341818 L834.826909,498.913455 L826.150109,498.913455 L826.150109,479.408582 C826.150109,478.046109 826.293527,475.966545 826.365236,475.034327 L826.221818,475.034327 C825.791564,476.038255 824.429091,477.9744 823.496873,479.408582 L809.943855,498.913455 L801.123636,498.913455 Z M851.08097,498.913455 L851.08097,470.0864 L839.033842,470.0864 L839.033842,462.341818 L872.235152,462.341818 L872.235152,470.0864 L860.116315,470.0864 L860.116315,498.913455 L851.08097,498.913455 Z M873.215176,480.627636 C873.215176,469.369309 880.888048,461.481309 891.859539,461.481309 C902.329067,461.481309 908.065794,469.154182 908.065794,478.834909 C908.065794,479.982255 907.922376,481.201309 907.778958,482.348655 L882.609067,482.348655 C883.182739,488.730764 888.058958,492.029382 893.580558,492.029382 C897.30943,492.029382 901.110012,490.380073 904.050085,488.013673 L907.635539,494.5392 C903.906667,497.837818 898.169939,499.773964 892.935176,499.773964 C880.816339,499.773964 873.215176,491.025455 873.215176,480.627636 Z M882.824194,476.109964 L898.958739,476.109964 C898.88703,471.233745 895.73183,468.365382 891.644412,468.365382 C886.983321,468.365382 883.684703,471.448873 882.824194,476.109964 Z M913.6352,513.255273 L913.6352,462.341818 L921.953455,462.341818 L921.953455,465.066764 C921.953455,466.429236 921.810036,467.648291 921.810036,467.648291 L921.953455,467.648291 C924.319855,463.704291 928.765818,461.481309 933.713745,461.481309 C943.6096,461.481309 949.92,469.2976 949.92,480.627636 C949.92,492.244509 942.8208,499.773964 933.211782,499.773964 C929.052655,499.773964 925.252073,497.909527 922.670545,494.610909 L922.527127,494.610909 C922.527127,494.610909 922.742255,495.901673 922.742255,497.766109 L922.742255,513.255273 L913.6352,513.255273 Z M922.455418,480.842764 C922.455418,486.507782 925.610618,492.101091 931.562473,492.101091 C936.582109,492.101091 940.741236,488.013673 940.741236,480.771055 C940.741236,473.815273 937.012364,469.2976 931.705891,469.2976 C926.901382,469.2976 922.455418,472.739636 922.455418,480.842764 Z M952.83617,488.802473 C952.83617,477.830982 966.030642,475.966545 974.13377,475.966545 L975.71137,475.966545 L975.71137,475.464582 C975.71137,470.660073 972.627879,469.010764 968.827297,469.010764 C965.241842,469.010764 961.584679,470.516655 958.644606,472.524509 L955.274279,465.998982 C958.286061,463.560873 964.166206,461.481309 969.616097,461.481309 C979.153406,461.481309 984.818424,466.787782 984.818424,476.038255 L984.818424,498.913455 L976.356752,498.913455 L976.356752,495.829964 C976.356752,494.324073 976.571879,493.176727 976.571879,493.176727 L976.428461,493.176727 C974.205479,497.049018 969.831224,499.773964 964.883297,499.773964 C958.286061,499.773964 952.83617,495.471418 952.83617,488.802473 Z M961.871515,488.013673 C961.871515,490.451782 963.735952,492.818182 967.393115,492.818182 C972.484461,492.818182 975.783079,487.655127 975.783079,483.209164 L975.783079,482.205236 L974.205479,482.205236 C969.616097,482.205236 961.871515,482.850618 961.871515,488.013673 Z" id="Товары-для-кондитера" fill="#C04B86" fill-rule="nonzero"></path>
        </g>
    </g>
</svg>