<?xml version="1.0" standalone="no"?>
<!DOCTYPE svg PUBLIC "-//W3C//DTD SVG 20010904//EN"
 "http://www.w3.org/TR/2001/REC-SVG-20010904/DTD/svg10.dtd">
<svg version="1.0" xmlns="http://www.w3.org/2000/svg"
 width="940.000000pt" height="940.000000pt" viewBox="0 0 940.000000 940.000000"
 preserveAspectRatio="xMidYMid meet">
<metadata>
Created by potrace 1.11, written by Peter Selinger 2001-2013
</metadata>
<g transform="translate(0.000000,940.000000) scale(0.100000,-0.100000)"
fill="#000000" stroke="none">
<path d="M7507 9296 c-57 -21 -105 -62 -145 -125 -19 -31 -39 -58 -44 -59 -4
-2 -6 -7 -3 -12 2 -4 -7 -20 -20 -34 -14 -15 -25 -32 -25 -39 0 -7 -14 -28
-30 -47 -16 -19 -30 -38 -30 -41 0 -3 -8 -15 -17 -27 -36 -41 -48 -58 -73 -95
-14 -20 -30 -35 -37 -33 -7 3 -10 -1 -7 -8 3 -7 -17 -36 -43 -65 -74 -81 -326
-332 -375 -373 -90 -76 -165 -136 -223 -178 -33 -24 -63 -48 -67 -54 -5 -7 -8
-7 -8 -1 0 6 -5 2 -11 -7 -5 -10 -17 -18 -24 -18 -8 0 -15 -4 -15 -8 0 -5 -16
-17 -35 -28 -19 -10 -35 -22 -35 -26 0 -5 -5 -8 -11 -8 -6 0 -28 -13 -49 -30
-21 -16 -43 -30 -49 -30 -6 0 -11 -4 -11 -10 0 -5 -6 -10 -13 -10 -8 0 -24 -9
-37 -20 -13 -11 -27 -20 -31 -20 -4 0 -14 -7 -22 -15 -8 -8 -21 -16 -28 -17
-8 -2 -19 -7 -26 -13 -32 -26 -40 -31 -68 -44 -16 -8 -33 -14 -37 -13 -5 1 -8
-3 -8 -8 0 -6 -10 -15 -22 -20 -13 -6 -41 -21 -63 -35 -22 -14 -56 -32 -75
-40 -19 -9 -37 -19 -40 -23 -3 -4 -30 -20 -60 -35 -30 -15 -80 -42 -110 -59
-89 -50 -267 -143 -390 -205 -63 -32 -117 -61 -120 -64 -8 -10 -70 -40 -70
-34 0 3 -10 -3 -22 -14 -11 -11 -25 -18 -30 -15 -4 3 -8 0 -8 -6 0 -7 -7 -10
-15 -6 -8 3 -15 1 -15 -4 0 -5 -19 -18 -42 -29 -24 -11 -71 -35 -105 -54 -34
-19 -64 -33 -67 -29 -3 3 -6 0 -6 -6 0 -6 -16 -16 -35 -23 -19 -7 -35 -17 -35
-21 0 -4 -9 -8 -20 -8 -11 0 -20 -4 -20 -9 0 -5 -15 -14 -32 -22 -18 -7 -35
-16 -38 -19 -3 -4 -18 -13 -35 -22 -55 -28 -100 -53 -105 -59 -3 -3 -36 -23
-75 -44 -38 -22 -71 -43 -73 -47 -2 -4 -8 -8 -13 -8 -5 0 -47 -25 -94 -55 -47
-30 -85 -51 -85 -47 0 4 -5 -1 -11 -10 -5 -10 -15 -18 -21 -18 -5 0 -27 -13
-48 -30 -21 -16 -43 -30 -49 -30 -6 0 -11 -3 -11 -7 0 -5 -23 -21 -50 -38 -27
-16 -50 -33 -50 -37 0 -5 -6 -8 -13 -8 -7 0 -19 -9 -27 -20 -8 -11 -19 -20
-25 -20 -5 0 -22 -10 -37 -23 -15 -12 -42 -33 -60 -47 -79 -61 -156 -124 -195
-161 -24 -22 -43 -38 -43 -34 0 3 -22 -17 -50 -45 -27 -27 -54 -50 -59 -50 -5
0 -12 -7 -15 -16 -3 -8 -11 -12 -17 -8 -7 4 -9 3 -6 -3 8 -13 -57 -76 -67 -66
-4 5 -6 3 -4 -3 2 -7 -36 -53 -84 -103 -47 -50 -84 -91 -82 -91 2 0 -4 -8 -13
-18 -10 -11 -22 -17 -27 -14 -5 3 -6 1 -3 -5 3 -5 -7 -24 -23 -41 -15 -17 -43
-52 -61 -76 -17 -25 -36 -43 -42 -39 -6 3 -7 1 -3 -6 4 -6 0 -14 -8 -17 -9 -3
-13 -10 -11 -15 3 -4 -3 -17 -15 -29 -11 -11 -20 -23 -20 -26 0 -3 -6 -12 -12
-19 -30 -33 -38 -45 -38 -54 0 -6 -8 -15 -17 -20 -10 -6 -15 -11 -10 -11 8 0
-50 -91 -77 -122 -9 -10 -16 -24 -16 -31 0 -7 -9 -23 -20 -35 -12 -12 -18 -22
-15 -22 3 0 1 -9 -5 -21 -7 -13 -17 -18 -27 -15 -12 5 -13 3 -6 -6 7 -9 4 -26
-12 -56 -12 -23 -23 -40 -26 -38 -3 3 -6 -4 -6 -16 -1 -12 -6 -24 -10 -27 -15
-11 -34 -52 -28 -61 3 -4 2 -10 -2 -12 -12 -5 -104 -203 -107 -230 -1 -3 -4
-10 -9 -14 -4 -4 -7 -16 -7 -26 0 -10 -5 -18 -10 -18 -6 0 -9 -3 -8 -7 1 -5
-7 -37 -19 -73 -12 -36 -29 -92 -38 -125 -9 -33 -20 -67 -23 -75 -3 -8 -7 -24
-9 -35 -2 -11 -7 -21 -12 -23 -5 -2 -7 -12 -4 -22 3 -11 0 -20 -6 -20 -6 0 -9
-10 -7 -22 2 -13 -3 -38 -10 -57 -8 -19 -12 -36 -10 -39 3 -2 -1 -17 -9 -32
-8 -15 -12 -30 -9 -33 3 -3 2 -12 -2 -19 -5 -7 -10 -22 -11 -33 -2 -11 -10
-47 -17 -80 -8 -33 -17 -73 -20 -90 -3 -16 -7 -40 -10 -53 -15 -58 -17 -69
-21 -102 -3 -19 -7 -46 -10 -58 -3 -13 -8 -43 -12 -65 -3 -23 -10 -45 -17 -49
-8 -6 -7 -8 2 -8 7 0 11 -3 9 -7 -6 -9 -20 -107 -20 -140 -1 -13 -4 -23 -7
-23 -3 0 -6 -24 -7 -52 -1 -29 -3 -65 -3 -80 -1 -15 -6 -30 -11 -33 -5 -4 -5
-13 1 -24 5 -10 7 -21 4 -23 -22 -22 -21 -533 2 -753 3 -33 7 -85 9 -115 1
-30 4 -55 5 -55 4 0 23 -115 24 -152 1 -13 4 -23 7 -23 4 0 5 -10 5 -23 -1
-12 1 -27 6 -33 4 -6 9 -31 10 -56 2 -25 6 -44 10 -42 4 3 7 -4 6 -13 0 -22 6
-48 21 -86 6 -15 10 -31 9 -35 -1 -4 4 -27 11 -52 7 -25 13 -46 12 -48 -1 -1
5 -15 14 -32 8 -16 17 -37 18 -47 2 -10 7 -27 11 -38 5 -11 12 -33 18 -50 5
-16 14 -39 18 -50 44 -103 70 -172 70 -182 0 -7 5 -13 11 -13 5 0 7 -4 4 -10
-3 -5 -1 -10 5 -10 7 0 10 -7 6 -15 -3 -8 -2 -15 2 -15 4 0 21 -29 37 -65 17
-36 33 -65 37 -65 3 0 9 -14 13 -30 4 -17 10 -30 13 -30 4 0 18 -23 31 -50 14
-28 28 -50 31 -50 3 0 12 -16 20 -35 8 -19 17 -35 22 -35 4 0 8 -7 8 -15 0 -8
4 -15 9 -15 5 0 14 -13 21 -30 7 -17 16 -30 21 -30 5 0 9 -7 9 -15 0 -8 5 -15
10 -15 6 0 10 -7 10 -15 0 -8 5 -15 10 -15 6 0 10 -7 10 -15 0 -8 3 -15 8 -15
4 0 18 -17 32 -37 30 -44 92 -106 110 -110 3 0 23 -6 44 -12 22 -6 42 -8 45
-6 2 3 10 0 18 -6 10 -9 13 -8 13 0 0 7 5 9 10 6 14 -9 79 13 109 37 19 15 26
16 33 6 7 -10 8 -9 6 3 -2 8 9 29 24 45 15 16 52 56 82 89 31 33 56 63 56 68
0 4 8 7 17 7 9 0 14 3 11 6 -7 7 167 184 205 209 15 9 27 24 27 31 0 8 4 14 9
14 5 0 23 13 40 29 17 16 31 28 31 26 0 -1 17 14 38 34 55 52 113 101 119 101
3 0 16 11 29 25 13 14 26 25 29 25 3 0 18 12 34 26 16 14 32 25 35 25 3 -1 14
7 24 17 10 9 33 28 51 42 18 14 42 33 52 42 11 10 22 18 25 18 3 0 16 8 29 18
12 9 33 24 45 32 13 8 31 23 41 32 9 9 20 14 23 10 3 -3 6 0 6 6 0 7 6 12 13
12 7 0 25 11 40 25 15 14 27 23 27 20 0 -3 10 3 22 15 12 11 28 20 35 20 7 0
13 5 13 10 0 6 7 10 15 10 8 0 15 4 15 8 0 5 18 17 40 28 22 10 40 23 40 27 0
5 4 6 9 3 5 -3 11 1 15 9 3 8 12 15 20 15 8 0 21 6 28 13 16 16 101 65 108 63
3 0 17 9 30 22 14 13 33 21 42 18 10 -2 15 0 12 5 -3 5 3 12 13 16 10 4 24 13
31 20 8 7 18 11 23 8 5 -4 9 -2 9 4 0 6 11 13 25 17 14 3 25 9 25 14 0 4 18
15 40 25 22 10 40 23 40 28 0 6 3 8 6 4 3 -3 24 5 45 19 21 13 41 24 44 24 3
0 23 11 44 24 21 14 42 22 45 19 3 -4 6 -2 6 4 0 6 23 20 50 32 28 12 50 26
50 30 0 5 11 8 25 7 13 -2 23 1 22 7 -1 5 40 32 91 58 50 27 92 46 92 43 0 -4
9 3 20 16 11 13 20 20 20 17 0 -3 36 14 80 39 44 24 85 44 90 44 6 0 10 4 10
9 0 5 12 14 28 20 15 5 38 17 52 25 89 53 149 84 154 79 3 -4 6 -1 6 5 0 7 5
12 10 12 6 0 16 5 23 10 21 18 278 170 287 170 4 0 10 3 12 8 5 11 92 67 101
64 4 -1 7 2 7 8 0 5 15 17 33 26 17 9 34 20 37 23 3 4 21 18 40 31 19 13 41
30 48 37 7 7 16 13 20 13 4 0 19 10 34 23 14 12 39 31 54 42 15 11 32 25 38
30 6 6 33 28 61 50 27 22 57 47 66 55 14 13 74 64 104 89 6 5 17 18 25 30 8
11 20 21 27 21 7 0 13 3 13 8 0 4 41 49 90 101 50 51 90 97 90 102 0 4 6 12
13 16 7 4 37 40 67 78 30 39 57 72 60 75 3 3 16 22 30 42 14 21 28 38 33 38 4
0 7 6 7 13 0 7 10 24 23 37 12 14 21 26 19 27 -1 2 14 29 35 61 42 65 63 104
138 250 29 56 51 102 48 102 -3 0 0 6 6 14 9 10 63 166 77 219 1 4 3 9 4 12 1
3 4 10 5 15 1 6 4 12 5 15 1 3 4 10 5 15 1 6 3 11 4 13 2 1 4 11 6 22 2 11 16
56 31 100 14 44 27 89 29 100 1 11 5 27 8 35 6 15 19 61 58 210 28 105 29 112
35 140 3 14 12 52 20 85 9 33 17 71 19 85 2 14 4 25 5 25 1 0 4 14 6 30 3 17
7 37 11 45 3 8 5 19 4 24 -1 4 3 14 9 20 5 7 8 15 5 18 -3 2 2 38 9 79 14 73
24 125 30 164 2 11 7 49 11 85 4 36 9 73 10 82 4 17 14 116 20 186 2 20 4 37
5 37 8 0 12 519 5 635 -5 106 -16 252 -20 290 -2 19 -7 71 -10 115 -4 44 -8
94 -10 110 -67 618 -76 1122 -30 1715 13 164 -31 253 -150 303 -37 15 -119 17
-158 3z m-215 -1051 c-2 -14 -8 -28 -12 -30 -5 -3 -5 -19 0 -35 5 -17 5 -30 1
-30 -4 0 -7 -10 -8 -22 0 -13 -3 -39 -6 -58 -3 -19 -6 -45 -6 -58 -1 -13 -4
-21 -8 -19 -5 3 -8 -11 -7 -31 0 -21 -2 -41 -5 -47 -3 -5 -6 -16 -7 -25 -7
-56 -28 -137 -37 -149 -9 -11 -9 -13 0 -8 8 5 9 -1 1 -25 -6 -18 -13 -40 -16
-48 -7 -21 -12 -52 -13 -72 0 -10 -4 -20 -10 -23 -5 -4 -9 -17 -9 -31 0 -14
-4 -23 -9 -20 -5 4 -7 -3 -4 -14 3 -12 0 -20 -6 -20 -7 0 -9 -5 -6 -11 4 -5 2
-22 -3 -37 -6 -15 -14 -36 -18 -47 -4 -11 -8 -23 -9 -27 -2 -5 -4 -10 -5 -13
-1 -3 -3 -8 -5 -12 -1 -5 -4 -15 -8 -23 -3 -8 -11 -32 -17 -52 -6 -21 -16 -38
-21 -38 -6 0 -7 -5 -4 -10 4 -6 2 -16 -3 -23 -6 -7 -11 -15 -11 -20 0 -4 -9
-28 -21 -53 -11 -26 -20 -50 -20 -55 0 -5 -4 -9 -10 -9 -5 0 -9 -4 -7 -8 1 -5
-20 -53 -48 -108 -48 -95 -57 -110 -81 -137 -6 -7 -11 -16 -11 -20 -3 -19 -43
-77 -54 -77 -7 0 -9 -3 -6 -7 9 -9 -26 -62 -75 -115 -10 -10 -18 -22 -18 -26
0 -5 -18 -28 -40 -51 -22 -23 -40 -44 -40 -47 0 -11 -226 -244 -237 -244 -5
-1 -19 -14 -33 -30 -13 -17 -27 -30 -31 -30 -4 0 -22 -15 -40 -33 -19 -18 -49
-43 -67 -57 -19 -14 -39 -30 -45 -35 -7 -6 -41 -31 -77 -55 -36 -25 -70 -50
-77 -56 -6 -6 -35 -26 -65 -45 -29 -18 -55 -36 -58 -39 -12 -13 -189 -120
-199 -120 -6 0 -11 -3 -11 -7 0 -5 -26 -21 -57 -38 -32 -16 -63 -35 -70 -41
-6 -6 -25 -17 -42 -24 -17 -7 -31 -17 -31 -22 0 -5 -4 -7 -9 -4 -5 4 -11 3
-13 -2 -1 -4 -85 -55 -186 -112 -101 -58 -200 -115 -220 -128 -20 -12 -48 -28
-62 -35 -14 -6 -27 -14 -30 -17 -3 -4 -32 -22 -65 -40 -33 -19 -62 -37 -63
-42 -2 -4 -8 -6 -13 -2 -5 3 -9 0 -9 -5 0 -6 -5 -11 -10 -11 -9 0 -8 40 4 100
12 65 25 161 29 218 0 6 4 12 9 12 5 0 7 4 3 10 -3 5 -2 17 3 27 6 10 16 32
23 48 18 39 62 109 72 113 4 2 7 9 7 16 0 7 8 21 19 32 22 25 76 139 90 191
11 43 21 102 26 153 2 19 6 46 9 60 11 45 16 74 22 130 3 30 7 57 9 60 2 3 6
37 10 75 7 68 9 83 19 170 2 22 7 85 11 140 7 103 17 130 44 120 8 -3 12 -3 8
1 -9 10 134 86 150 80 7 -3 10 1 6 10 -3 8 -2 14 3 13 16 -2 54 13 54 23 0 5
5 6 10 3 6 -3 10 -1 10 6 0 7 3 9 6 6 4 -4 19 2 33 12 14 9 43 25 63 34 20 10
39 21 42 26 3 4 23 13 45 21 23 7 41 17 41 22 0 4 6 8 13 8 7 0 19 6 26 13 6
6 16 12 20 12 14 0 81 39 81 48 0 4 4 6 9 3 4 -3 19 3 31 14 12 11 27 17 31
14 5 -3 9 0 9 5 0 6 4 11 9 11 8 0 151 80 161 90 3 3 23 14 45 25 22 11 46 26
53 32 7 7 20 13 28 13 8 0 14 5 14 10 0 6 6 10 14 10 8 0 16 3 18 8 2 4 19 16
38 26 19 11 68 41 108 68 40 26 77 48 82 48 6 0 10 4 10 8 0 5 12 15 28 23 15
8 29 16 32 19 10 11 110 80 116 80 3 0 12 7 21 15 8 8 19 13 24 9 5 -3 8 -1 7
4 -2 5 26 31 62 58 36 26 70 52 76 58 23 22 54 46 59 46 3 0 20 15 39 33 19
17 54 49 78 69 24 20 56 49 72 63 15 14 32 25 38 25 6 0 9 3 6 6 -6 5 16 29
74 80 12 11 40 39 61 62 43 48 56 52 49 17z m86 -1137 c3 -86 10 -147 17 -158
3 -5 1 -10 -5 -10 -6 0 -8 -5 -4 -11 3 -6 8 -29 10 -52 3 -22 6 -43 9 -45 2
-2 0 -15 -5 -28 -5 -13 -6 -24 -2 -24 4 0 8 -18 9 -40 1 -29 -2 -38 -10 -33
-9 5 -9 3 -1 -8 6 -8 11 -29 12 -46 0 -18 1 -34 1 -35 5 -8 5 -188 1 -188 -3
0 -3 -25 -2 -56 3 -43 1 -55 -9 -49 -9 6 -10 4 -3 -6 9 -15 13 -109 4 -109 -3
0 -4 -26 -4 -57 1 -32 -1 -62 -4 -67 -3 -5 -6 -27 -7 -50 -4 -58 -18 -167 -30
-236 -4 -19 -7 -47 -8 -62 0 -16 -4 -28 -8 -28 -4 0 -7 -10 -7 -22 1 -13 -3
-41 -6 -63 -4 -22 -9 -48 -10 -58 -1 -10 -9 -23 -17 -28 -8 -5 -9 -9 -3 -9 11
0 5 -38 -21 -145 -6 -23 -13 -53 -20 -92 -3 -14 -10 -34 -16 -45 -5 -10 -8
-18 -5 -18 2 0 -2 -24 -10 -52 -8 -29 -16 -66 -19 -82 -3 -16 -8 -33 -11 -38
-3 -4 -7 -16 -9 -25 -8 -38 -36 -139 -42 -153 -3 -8 -7 -19 -8 -25 -13 -55
-49 -173 -57 -182 -5 -7 -7 -17 -4 -22 4 -5 2 -12 -3 -15 -5 -3 -12 -23 -16
-43 -4 -21 -10 -42 -15 -48 -4 -5 -10 -22 -14 -38 -4 -15 -19 -53 -33 -85 -15
-31 -27 -59 -28 -62 -3 -18 -37 -70 -46 -70 -6 0 -8 -4 -4 -9 3 -5 1 -12 -5
-16 -6 -4 -8 -10 -5 -15 3 -4 -2 -13 -10 -20 -8 -7 -15 -19 -15 -26 0 -8 -5
-14 -11 -14 -5 0 -7 -4 -4 -10 3 -5 2 -10 -2 -10 -5 0 -19 -20 -33 -44 -13
-25 -28 -42 -33 -39 -6 3 -7 1 -3 -5 3 -6 -1 -17 -9 -25 -8 -9 -15 -18 -15
-22 0 -6 -43 -66 -65 -91 -5 -7 -26 -31 -45 -55 -49 -61 -120 -141 -142 -160
-10 -9 -18 -21 -18 -27 0 -18 -21 -18 -94 0 -65 16 -131 29 -163 31 -7 0 -13
3 -13 7 0 3 -8 6 -17 6 -10 1 -38 4 -63 8 -25 4 -56 9 -70 10 -14 2 -38 6 -55
9 -36 8 -146 19 -290 32 -285 25 -729 21 -1025 -9 -78 -8 -314 -55 -410 -82
-30 -8 -66 -17 -80 -20 -14 -2 -52 -13 -85 -23 -33 -10 -73 -22 -90 -26 -43
-12 -44 -12 -50 -15 -3 -1 -8 -3 -12 -4 -5 -1 -42 -13 -83 -26 -41 -13 -83
-24 -92 -23 -10 0 -18 -3 -18 -7 0 -7 -57 -23 -85 -24 -5 -1 -12 -3 -15 -6 -6
-6 -68 -30 -92 -35 -9 -2 -26 -9 -37 -15 -21 -11 -21 -10 1 35 12 25 26 45 30
45 4 0 8 6 8 13 0 10 111 191 137 222 4 6 26 36 47 68 22 31 42 57 46 57 4 0
11 10 17 23 10 20 100 132 162 200 48 53 211 218 211 214 0 -2 19 14 43 37 89
85 261 226 275 226 6 0 12 5 14 12 3 7 16 13 30 13 28 2 98 41 98 56 0 14 81
89 96 89 8 0 14 5 14 10 0 6 8 13 18 17 9 3 31 16 48 29 18 13 37 25 44 26 8
2 21 10 30 18 28 24 132 85 141 82 5 -1 9 2 9 8 0 5 7 10 15 10 8 0 15 5 15
10 0 6 7 10 15 10 8 0 15 5 15 11 0 5 5 7 10 4 6 -3 10 -1 10 4 0 6 5 11 11
11 5 0 26 11 46 25 20 13 40 22 45 19 4 -3 8 0 8 6 0 6 15 18 33 26 17 8 53
28 80 44 26 16 47 26 47 22 0 -4 5 0 10 8 5 8 13 15 17 15 4 0 36 17 69 38 34
20 64 37 68 37 3 0 14 7 23 15 10 8 22 15 27 14 5 0 12 3 15 8 8 11 61 43 84
50 9 3 17 10 17 15 0 5 5 6 10 3 6 -3 10 -2 10 3 0 5 14 15 31 22 17 7 37 19
44 26 7 7 19 15 26 16 7 2 23 12 37 23 13 11 26 18 29 17 3 -2 9 0 12 5 3 4
67 48 141 98 74 49 137 93 138 97 2 4 10 8 17 8 7 0 15 7 19 15 3 8 12 15 20
15 8 0 16 4 18 9 2 5 30 30 63 55 60 46 125 101 193 164 20 17 40 32 45 32 4
0 5 5 2 10 -3 6 -2 10 2 10 5 0 34 25 65 55 31 30 54 55 52 55 -3 0 14 19 38
43 49 50 92 101 149 178 22 30 48 65 59 77 11 13 20 27 20 32 0 5 3 10 8 12 8
3 82 115 82 124 0 12 28 33 35 26 5 -4 5 -1 1 5 -4 7 5 34 20 60 15 27 36 66
48 88 12 22 24 42 29 43 4 2 7 10 7 18 0 9 4 13 9 10 5 -4 7 4 3 16 -4 16 -2
19 8 13 10 -6 12 -4 7 7 -3 9 1 25 9 37 8 11 12 21 9 21 -4 0 3 14 15 30 12
17 18 30 14 30 -3 0 -1 7 6 15 7 8 9 15 4 15 -4 0 -3 5 4 12 7 7 12 20 12 30
0 10 5 18 10 18 6 0 10 7 10 16 0 14 17 54 23 54 1 0 3 -24 5 -52z m-2574
-480 c-3 -18 -7 -44 -9 -58 -1 -14 -3 -25 -4 -25 -1 0 -4 -27 -6 -60 -2 -33
-6 -71 -8 -85 -3 -14 -5 -38 -6 -53 -1 -20 -5 -26 -13 -21 -10 6 -10 5 -1 -8
7 -8 11 -17 9 -19 -2 -2 -7 -24 -11 -49 -4 -24 -8 -47 -10 -51 -2 -3 -7 -34
-10 -70 -8 -75 -39 -169 -66 -198 -10 -11 -19 -25 -19 -30 0 -5 -6 -16 -13
-23 -20 -21 -67 -97 -67 -108 0 -5 -5 -10 -11 -10 -5 0 -7 -4 -4 -10 3 -5 2
-10 -3 -10 -5 0 -9 -6 -10 -12 -1 -21 -36 -112 -45 -119 -4 -3 -5 -13 -2 -21
3 -8 -1 -23 -10 -32 -9 -9 -11 -16 -5 -16 8 0 8 -6 -1 -21 -9 -17 -8 -20 2
-14 8 5 10 4 5 -3 -4 -7 -9 -33 -12 -59 -3 -27 -7 -59 -11 -73 -7 -34 -14 -78
-18 -115 -2 -16 -4 -30 -5 -30 -1 0 -3 -16 -5 -35 -2 -19 -6 -55 -10 -80 -3
-25 -8 -72 -11 -105 -7 -63 -11 -69 -79 -120 -22 -16 -45 -36 -52 -45 -7 -8
-13 -12 -13 -7 0 4 -9 -1 -19 -10 -52 -49 -70 -64 -75 -64 -3 0 -31 -25 -62
-54 -32 -30 -62 -51 -66 -49 -5 3 -7 2 -6 -3 2 -5 -13 -24 -33 -43 -118 -112
-151 -145 -216 -216 -39 -44 -82 -92 -95 -109 -12 -16 -28 -34 -34 -40 -6 -5
-24 -28 -40 -50 -16 -22 -33 -45 -39 -51 -5 -7 -19 -24 -30 -40 -11 -15 -26
-33 -32 -40 -7 -7 -13 -17 -13 -23 0 -6 -4 -11 -9 -11 -5 0 -12 -8 -16 -19 -3
-10 -13 -28 -23 -39 -9 -11 -35 -50 -57 -86 -22 -36 -44 -66 -48 -66 -5 0 -6
-4 -3 -8 3 -5 -4 -18 -14 -30 -11 -12 -20 -28 -20 -37 0 -8 -4 -15 -10 -15 -5
0 -10 -7 -10 -16 0 -9 -5 -12 -12 -8 -7 4 -10 4 -7 0 6 -7 -109 -247 -131
-273 -6 -7 -11 -16 -11 -20 -2 -14 -11 -37 -37 -93 -14 -30 -27 -61 -28 -69
-1 -8 -6 -17 -11 -20 -7 -5 -11 -16 -17 -46 -1 -5 -8 -21 -16 -35 -7 -14 -12
-25 -11 -25 1 0 -2 -13 -8 -28 -6 -16 -11 -33 -11 -38 0 -5 -5 -9 -12 -9 -6 0
-9 -3 -6 -6 4 -3 0 -21 -8 -40 -8 -19 -12 -34 -9 -34 3 0 0 -10 -7 -22 -7 -13
-13 -26 -14 -30 -1 -5 -2 -9 -3 -10 -2 -2 -5 -14 -7 -28 -3 -14 -9 -27 -14
-28 -6 -2 -7 -8 -4 -13 3 -6 1 -15 -4 -22 -6 -7 -11 -15 -11 -20 -1 -17 -14
-65 -28 -110 -9 -30 -19 -45 -26 -41 -9 5 -9 4 0 -6 8 -8 8 -21 1 -44 -5 -17
-11 -38 -13 -46 -2 -8 -4 -15 -5 -15 -2 0 -8 -26 -16 -65 -3 -19 -9 -42 -14
-50 -4 -8 -13 -46 -20 -85 -7 -38 -16 -74 -20 -80 -4 -5 -6 -18 -5 -28 2 -9 0
-17 -3 -17 -4 0 -7 -10 -8 -22 -2 -44 -16 -103 -27 -117 -9 -12 -9 -13 0 -7
10 5 11 1 4 -16 -5 -13 -12 -46 -15 -73 -4 -28 -11 -67 -16 -87 -4 -21 -5 -38
-2 -38 3 0 -3 -10 -14 -22 -10 -12 -13 -18 -6 -14 10 6 11 1 7 -21 -7 -32 -12
-67 -21 -138 -3 -27 -11 -56 -17 -64 -10 -12 -9 -13 1 -7 11 7 12 4 4 -10 -5
-11 -7 -25 -5 -31 3 -7 1 -13 -4 -13 -7 0 -43 84 -49 115 -1 6 -11 31 -22 55
-11 25 -23 62 -27 83 -4 20 -12 37 -19 37 -6 0 -4 5 4 10 9 6 10 10 3 10 -6 0
-15 15 -18 32 -4 18 -10 37 -13 43 -3 5 -7 16 -8 25 -2 8 -7 34 -13 58 -6 24
-8 48 -5 54 4 7 2 8 -4 4 -8 -5 -12 1 -13 16 0 13 -2 30 -5 38 -5 20 -24 118
-29 155 -2 17 -7 48 -11 70 -4 22 -8 51 -9 65 -6 50 -17 166 -21 220 -4 65 -4
409 0 460 2 19 7 76 11 125 10 128 16 178 31 275 4 30 9 63 10 73 1 9 3 18 4
20 1 1 3 13 5 27 2 14 6 43 10 65 5 22 9 49 11 60 1 11 3 20 4 20 2 0 6 20 14
65 4 19 9 42 11 50 2 8 6 26 9 40 2 14 14 63 25 110 12 47 24 96 27 110 8 37
54 202 61 220 11 27 13 34 19 68 4 17 9 32 13 32 4 0 7 10 8 21 3 30 79 219
125 308 21 41 38 80 38 86 0 6 10 22 23 35 12 14 21 26 20 27 -5 7 20 63 29
63 5 0 6 5 3 10 -3 6 -1 10 4 10 6 0 11 8 11 18 0 9 11 29 25 44 14 15 25 31
25 35 0 4 18 34 40 66 22 31 40 60 40 63 0 3 6 11 12 18 7 8 20 24 28 36 31
47 84 115 94 122 6 4 8 8 4 8 -5 0 0 8 10 18 9 10 40 45 67 77 28 32 94 104
148 159 53 55 97 104 97 108 0 4 4 8 9 8 5 0 27 16 48 36 33 32 190 166 218
186 12 9 92 72 117 93 10 8 37 27 60 42 50 33 63 42 89 66 10 9 22 17 25 16 3
-1 17 8 30 20 13 12 26 21 29 21 2 0 48 29 102 64 54 34 114 72 133 82 19 10
37 21 40 24 7 8 234 138 310 178 36 19 69 38 75 43 21 20 34 9 29 -23z m396
-3132 c0 5 27 9 60 9 33 0 60 -4 60 -8 0 -4 8 -4 18 1 14 7 36 9 45 3 1 -1 67
-4 147 -7 179 -7 192 -8 208 -17 7 -5 12 -3 12 3 0 6 4 8 10 5 12 -7 74 -16
118 -17 17 0 32 -4 32 -9 0 -6 7 -6 18 0 10 6 24 6 32 1 8 -5 18 -6 22 -4 4 3
8 2 8 -3 0 -4 18 -7 40 -7 22 1 40 -2 40 -6 0 -4 10 -8 23 -8 39 1 77 -6 77
-14 0 -3 -15 -17 -32 -29 -18 -13 -39 -29 -47 -37 -7 -7 -20 -11 -27 -8 -8 3
-11 0 -7 -10 3 -9 -1 -14 -11 -14 -9 0 -19 -7 -22 -15 -4 -8 -12 -15 -20 -15
-8 0 -14 -4 -14 -10 0 -5 -7 -10 -15 -10 -8 0 -15 -4 -15 -10 0 -5 -5 -10 -11
-10 -6 0 -28 -13 -49 -30 -21 -16 -43 -30 -49 -30 -6 0 -11 -4 -11 -9 0 -5 -8
-11 -17 -15 -19 -6 -43 -20 -82 -48 -13 -10 -28 -15 -34 -11 -5 3 -7 1 -4 -4
7 -10 -20 -28 -35 -25 -5 1 -8 -1 -8 -5 0 -5 -26 -21 -57 -38 -32 -16 -64 -36
-71 -42 -7 -7 -20 -13 -28 -13 -8 0 -14 -4 -14 -9 0 -5 -13 -12 -29 -16 -16
-3 -32 -13 -35 -21 -3 -8 -15 -14 -26 -14 -11 0 -20 -4 -20 -10 0 -5 -4 -10
-9 -10 -5 0 -52 -25 -105 -55 -53 -30 -96 -51 -96 -47 0 4 -4 1 -9 -6 -4 -7
-14 -14 -22 -15 -8 -2 -29 -13 -47 -25 -18 -13 -32 -20 -32 -15 0 4 -4 3 -8
-3 -9 -14 -132 -76 -132 -67 0 4 -6 0 -12 -9 -7 -8 -60 -40 -118 -70 -161 -85
-175 -93 -180 -98 -3 -3 -16 -11 -30 -18 -14 -6 -38 -20 -55 -30 -16 -9 -66
-37 -110 -62 -44 -25 -88 -49 -97 -55 -74 -44 -112 -65 -119 -65 -5 0 -9 -4
-9 -9 0 -5 -8 -12 -17 -15 -18 -6 -24 -10 -103 -60 -25 -16 -78 -49 -118 -75
-68 -43 -225 -150 -247 -169 -6 -5 -24 -17 -40 -27 -34 -22 -187 -136 -195
-145 -3 -3 -21 -17 -40 -30 -19 -14 -42 -32 -51 -40 -31 -29 -81 -70 -85 -70
-3 0 -15 -10 -28 -22 -13 -13 -40 -36 -60 -53 -20 -16 -59 -51 -87 -77 -27
-27 -51 -48 -54 -48 -2 0 -31 -27 -64 -60 -34 -33 -63 -60 -65 -60 -3 0 -3 10
-1 21 2 12 7 47 10 78 3 31 8 72 11 91 3 19 7 51 9 70 7 59 15 114 20 140 3
14 7 41 10 60 3 19 7 49 11 65 3 17 7 39 8 50 1 12 6 27 10 34 4 7 6 15 3 17
-3 3 1 32 9 64 7 32 15 73 18 92 3 18 10 51 16 73 6 22 13 54 14 70 2 17 5 31
6 33 1 1 4 7 5 12 1 6 4 12 5 15 3 6 3 5 15 60 4 22 9 45 11 50 2 6 5 21 8 35
12 54 79 275 85 280 3 3 7 18 9 35 2 16 8 33 14 36 5 3 9 9 8 13 -3 13 34 121
44 128 6 4 8 8 4 8 -7 0 21 82 44 127 9 19 51 40 93 49 31 6 41 10 53 22 8 7
18 10 23 7 4 -3 20 2 34 11 14 9 25 13 25 10 0 -4 13 0 29 8 16 9 31 13 34 10
3 -3 16 2 30 11 14 8 29 15 33 14 5 -1 23 3 39 10 17 7 75 27 130 43 55 17
105 34 111 39 6 5 14 6 17 2 4 -3 13 0 22 7 8 7 15 9 15 5 0 -4 6 -3 13 2 15
13 108 36 114 29 3 -3 12 2 20 10 9 8 22 13 29 10 8 -3 14 0 14 6 0 6 2 9 5 6
3 -3 36 3 72 13 37 10 71 15 75 13 4 -3 8 0 8 7 0 6 8 9 20 6 11 -3 20 -2 20
3 0 6 43 17 95 24 6 1 25 5 43 10 32 8 52 11 117 21 17 3 42 7 58 10 62 11 76
12 70 2 -4 -6 -1 -7 8 -1 17 10 31 11 212 18 77 2 141 7 145 10 3 3 11 1 19
-5 7 -6 13 -8 13 -3z"/>
<path d="M7240 8080 c-9 -6 -10 -10 -3 -10 6 0 15 5 18 10 8 12 4 12 -15 0z"/>
<path d="M6595 7641 c-3 -5 -2 -12 3 -15 5 -3 9 1 9 9 0 17 -3 19 -12 6z"/>
<path d="M7275 5620 c-3 -5 -1 -10 4 -10 6 0 11 5 11 10 0 6 -2 10 -4 10 -3 0
-8 -4 -11 -10z"/>
<path d="M5229 4923 c-13 -16 -12 -17 4 -4 9 7 17 15 17 17 0 8 -8 3 -21 -13z"/>
<path d="M4475 6280 c3 -5 8 -10 11 -10 2 0 4 5 4 10 0 6 -5 10 -11 10 -5 0
-7 -4 -4 -10z"/>
<path d="M2910 3136 c0 -2 8 -10 18 -17 15 -13 16 -12 3 4 -13 16 -21 21 -21
13z"/>
<path d="M2799 2573 c-13 -16 -12 -17 4 -4 16 13 21 21 13 21 -2 0 -10 -8 -17
-17z"/>
<path d="M2505 599 c-3 -4 2 -6 10 -5 21 3 28 13 10 13 -9 0 -18 -4 -20 -8z"/>
</g>
</svg>
