<svg width="558" height="431" viewBox="0 0 558 431" fill="none" xmlns="http://www.w3.org/2000/svg">
<path fill-rule="evenodd" clip-rule="evenodd" d="M557 415.5C557 424.06 434.55 431 283.5 431C132.45 431 10 424.06 10 415.5C10 406.94 132.45 400 283.5 400C434.55 400 557 406.94 557 415.5Z" fill="#D094B6"/>
<path fill-rule="evenodd" clip-rule="evenodd" d="M449.915 220.366C453.924 218.667 456.733 214.725 456.733 210.132C456.733 203.983 451.703 199 445.499 199C439.295 199 434.263 203.983 434.263 210.132C434.263 214.725 437.074 218.667 441.082 220.366C418.11 222.587 400 241.914 400 265.231V345H491V265.231C491 241.914 472.888 222.587 449.915 220.366Z" fill="#65D9B2"/>
<path fill-rule="evenodd" clip-rule="evenodd" d="M464.661 395.276C444.033 391.758 452.875 358.345 470.553 356L444.033 356.586L417.514 356C435.194 358.345 444.033 391.174 423.408 395.276C399.707 399.991 401.013 407 401.013 407H490C490 407 488.482 399.338 464.661 395.276Z" fill="#E05644"/>
<path fill-rule="evenodd" clip-rule="evenodd" d="M379 344V349.711C379 354.27 382.582 358 386.959 358H505.042C509.42 358 513 354.27 513 349.711V344H379Z" fill="#EC887B"/>
<path fill-rule="evenodd" clip-rule="evenodd" d="M425 332.5C425 336.642 421.641 340 417.5 340C413.36 340 410 336.642 410 332.5C410 328.357 413.36 325 417.5 325C421.641 325 425 328.357 425 332.5Z" fill="#D43A86"/>
<path fill-rule="evenodd" clip-rule="evenodd" d="M444 332.5C444 336.642 440.642 340 436.499 340C432.357 340 429 336.642 429 332.5C429 328.357 432.357 325 436.499 325C440.642 325 444 328.357 444 332.5Z" fill="#F0CC96"/>
<path fill-rule="evenodd" clip-rule="evenodd" d="M464 332.5C464 336.642 460.64 340 456.499 340C452.357 340 449 336.642 449 332.5C449 328.357 452.357 325 456.499 325C460.64 325 464 328.357 464 332.5Z" fill="#BE6B9E"/>
<path fill-rule="evenodd" clip-rule="evenodd" d="M483 332.5C483 336.642 479.642 340 475.501 340C471.357 340 468 336.642 468 332.5C468 328.357 471.357 325 475.501 325C479.642 325 483 328.357 483 332.5Z" fill="#77C3AE"/>
<path fill-rule="evenodd" clip-rule="evenodd" d="M425 290.501C425 294.642 421.641 298 417.5 298C413.36 298 410 294.642 410 290.501C410 286.358 413.36 283 417.5 283C421.641 283 425 286.358 425 290.501Z" fill="#D43A86"/>
<path fill-rule="evenodd" clip-rule="evenodd" d="M444 290.501C444 294.642 440.642 298 436.499 298C432.357 298 429 294.642 429 290.501C429 286.358 432.357 283 436.499 283C440.642 283 444 286.358 444 290.501Z" fill="#F0CC96"/>
<path fill-rule="evenodd" clip-rule="evenodd" d="M464 290.501C464 294.642 460.64 298 456.499 298C452.357 298 449 294.642 449 290.501C449 286.358 452.357 283 456.499 283C460.64 283 464 286.358 464 290.501Z" fill="#BE6B9E"/>
<path fill-rule="evenodd" clip-rule="evenodd" d="M483 290.501C483 294.642 479.642 298 475.501 298C471.357 298 468 294.642 468 290.501C468 286.358 471.357 283 475.501 283C479.642 283 483 286.358 483 290.501Z" fill="#77C3AE"/>
<path fill-rule="evenodd" clip-rule="evenodd" d="M468 311.499C468 315.641 471.359 319 475.5 319C479.643 319 483 315.641 483 311.499C483 307.358 479.643 304 475.5 304C471.359 304 468 307.358 468 311.499Z" fill="#D43A86"/>
<path fill-rule="evenodd" clip-rule="evenodd" d="M449 311.499C449 315.641 452.357 319 456.5 319C460.644 319 464 315.641 464 311.499C464 307.358 460.644 304 456.5 304C452.357 304 449 307.358 449 311.499Z" fill="#F0CC96"/>
<path fill-rule="evenodd" clip-rule="evenodd" d="M429 311.499C429 315.641 432.358 319 436.499 319C440.643 319 444 315.641 444 311.499C444 307.358 440.643 304 436.499 304C432.358 304 429 307.358 429 311.499Z" fill="#BE6B9E"/>
<path fill-rule="evenodd" clip-rule="evenodd" d="M410 311.499C410 315.641 413.356 319 417.499 319C421.641 319 425 315.641 425 311.499C425 307.358 421.641 304 417.499 304C413.356 304 410 307.358 410 311.499Z" fill="#77C3AE"/>
<path fill-rule="evenodd" clip-rule="evenodd" d="M468 311.499C468 315.641 471.357 319 475.501 319C479.642 319 483 315.641 483 311.499C483 307.358 479.642 304 475.501 304C471.357 304 468 307.358 468 311.499Z" fill="#D43A86"/>
<path fill-rule="evenodd" clip-rule="evenodd" d="M449 311.499C449 315.641 452.357 319 456.499 319C460.64 319 464 315.641 464 311.499C464 307.358 460.64 304 456.499 304C452.357 304 449 307.358 449 311.499Z" fill="#F0CC96"/>
<path fill-rule="evenodd" clip-rule="evenodd" d="M429 311.499C429 315.641 432.357 319 436.499 319C440.642 319 444 315.641 444 311.499C444 307.358 440.642 304 436.499 304C432.357 304 429 307.358 429 311.499Z" fill="#BE6B9E"/>
<path fill-rule="evenodd" clip-rule="evenodd" d="M410 311.499C410 315.641 413.36 319 417.5 319C421.641 319 425 315.641 425 311.499C425 307.358 421.641 304 417.5 304C413.36 304 410 307.358 410 311.499Z" fill="#77C3AE"/>
<path fill-rule="evenodd" clip-rule="evenodd" d="M468 270.501C468 274.642 471.357 278 475.501 278C479.642 278 483 274.642 483 270.501C483 266.359 479.642 263 475.501 263C471.357 263 468 266.359 468 270.501Z" fill="#D43A86"/>
<path fill-rule="evenodd" clip-rule="evenodd" d="M449 270.501C449 274.642 452.357 278 456.499 278C460.64 278 464 274.642 464 270.501C464 266.359 460.64 263 456.499 263C452.357 263 449 266.359 449 270.501Z" fill="#F0CC96"/>
<path fill-rule="evenodd" clip-rule="evenodd" d="M429 270.501C429 274.642 432.357 278 436.499 278C440.642 278 444 274.642 444 270.501C444 266.359 440.642 263 436.499 263C432.357 263 429 266.359 429 270.501Z" fill="#BE6B9E"/>
<path fill-rule="evenodd" clip-rule="evenodd" d="M410 270.501C410 274.642 413.36 278 417.5 278C421.641 278 425 274.642 425 270.501C425 266.359 421.641 263 417.5 263C413.36 263 410 266.359 410 270.501Z" fill="#77C3AE"/>
<path fill-rule="evenodd" clip-rule="evenodd" d="M461.562 218.66C458.651 220.315 454.921 220.302 451.677 220.189C448.71 220.085 445.789 219.695 442.911 219.091C443.286 218.462 443.057 217.566 442.457 217.189C444.067 215.771 445.689 214.365 447.344 212.997C451.281 209.737 456.831 205.724 462.066 208.575C466.504 210.992 465.586 216.368 461.562 218.66ZM425.324 220.189C422.077 220.302 418.35 220.315 415.44 218.66C411.415 216.368 410.497 210.992 414.935 208.575C420.17 205.724 425.72 209.737 429.657 212.997C431.312 214.365 432.933 215.771 434.544 217.189C433.945 217.566 433.712 218.462 434.087 219.091C431.212 219.695 428.294 220.085 425.324 220.189ZM467.356 210.222C465.043 205.035 458.414 204.011 453.559 205.841C447.979 207.945 443.026 212.528 438.499 216.895C433.972 212.528 429.022 207.945 423.441 205.841C418.589 204.011 411.958 205.035 409.645 210.222C407.3 215.474 411.75 220.472 416.587 222.017C421.854 223.698 428.017 223.257 433.802 222.011C433.825 222.299 433.959 222.568 434.15 222.789C432.294 226.778 431.047 230.97 430.444 235.37C430.213 237.071 432.844 237.699 433.077 235.987C433.797 230.735 435.414 225.832 437.987 221.189C438.105 221.081 438.221 220.973 438.339 220.865C438.392 220.85 438.447 220.836 438.499 220.819C438.554 220.836 438.607 220.85 438.659 220.865C438.779 220.973 438.897 221.081 439.014 221.189C441.586 225.832 443.204 230.735 443.921 235.987C444.157 237.699 446.79 237.071 446.554 235.37C445.954 230.97 444.707 226.778 442.852 222.789C443.039 222.568 443.174 222.299 443.199 222.011C448.985 223.257 455.144 223.698 460.411 222.017C465.252 220.472 469.699 215.474 467.356 210.222Z" fill="#8E7E77"/>
<path fill-rule="evenodd" clip-rule="evenodd" d="M155.17 299L156 182.026L153.832 182L153 298.974L155.17 299Z" fill="#8E7E77"/>
<path fill-rule="evenodd" clip-rule="evenodd" d="M153.317 182L153 217L194 198.649L155.322 182.018L153.317 182Z" fill="#E88476"/>
<path fill-rule="evenodd" clip-rule="evenodd" d="M156 182.45L155.095 182.018L153.286 182L153 217L155.73 215.646L156 182.45Z" fill="#E05644"/>
<path fill-rule="evenodd" clip-rule="evenodd" d="M120.168 299L121 182.026L118.832 182L118 298.974L120.168 299Z" fill="#8E7E77"/>
<path fill-rule="evenodd" clip-rule="evenodd" d="M118.319 182L118 217L159 198.649L120.324 182.018L118.319 182Z" fill="#D094B6"/>
<path fill-rule="evenodd" clip-rule="evenodd" d="M121 182.45L120.094 182.018L118.287 182L118 217L120.729 215.646L121 182.45Z" fill="#BE6B9E"/>
<path fill-rule="evenodd" clip-rule="evenodd" d="M86.1679 299L87 182.026L84.8311 182L84 298.974L86.1679 299Z" fill="#8E7E77"/>
<path fill-rule="evenodd" clip-rule="evenodd" d="M85.3186 182L85 217L126 198.649L87.3235 182.018L85.3186 182Z" fill="#77C3AE"/>
<path fill-rule="evenodd" clip-rule="evenodd" d="M88 182.45L87.0942 182.018L85.2872 182L85 217L87.7287 215.646L88 182.45Z" fill="#3CA083"/>
<path fill-rule="evenodd" clip-rule="evenodd" d="M138.371 315.897C134.592 314.103 131.826 311.092 131.156 306.144C128.46 286.236 161.553 292.581 159.787 273C162.308 278.471 170.379 281.43 174.424 285.907C179.551 291.581 183.412 299.284 181.504 307.002C177.983 321.249 148.726 320.811 138.371 315.897Z" fill="#EEA3A0"/>
<path fill-rule="evenodd" clip-rule="evenodd" d="M138.371 315.897C134.592 314.103 131.826 311.092 131.156 306.144C128.46 286.236 161.553 292.581 159.787 273C162.308 278.471 170.379 281.43 174.424 285.907C179.551 291.581 183.412 299.284 181.504 307.002C177.983 321.249 148.726 320.811 138.371 315.897Z" fill="#F0CC96"/>
<path fill-rule="evenodd" clip-rule="evenodd" d="M173.647 342H139.353L131 312H182L173.647 342Z" fill="#F0CC96"/>
<path fill-rule="evenodd" clip-rule="evenodd" d="M173.647 342H139.353L131 312H182L173.647 342Z" fill="#34B085"/>
<mask id="mask0" mask-type="alpha" maskUnits="userSpaceOnUse" x="131" y="312" width="52" height="31">
<path fill-rule="evenodd" clip-rule="evenodd" d="M174.107 342.373H139.554L131.139 312.252H182.522L174.107 342.373Z" fill="white"/>
</mask>
<g mask="url(#mask0)">
<path fill-rule="evenodd" clip-rule="evenodd" d="M151.1 350.182C147.94 335.674 145.003 321.122 142.289 306.525C141.971 304.818 139.386 305.646 139.703 307.341C142.416 321.937 145.353 336.489 148.511 350.997C148.882 352.695 151.467 351.872 151.1 350.182Z" fill="#77C3AE"/>
<path fill-rule="evenodd" clip-rule="evenodd" d="M170.794 301.141C169.102 316.77 167.41 332.399 165.718 348.03C165.533 349.74 168.173 350.374 168.359 348.65C170.051 333.018 171.743 317.39 173.435 301.761C173.62 300.052 170.981 299.415 170.794 301.141Z" fill="#77C3AE"/>
<path fill-rule="evenodd" clip-rule="evenodd" d="M158.907 305.035C158.87 303.297 156.159 303.398 156.196 305.139C156.502 319.403 156.806 333.668 157.11 347.934C157.147 349.674 159.858 349.573 159.822 347.832C159.517 333.566 159.211 319.301 158.907 305.035Z" fill="#77C3AE"/>
</g>
<path fill-rule="evenodd" clip-rule="evenodd" d="M145.236 394.587C123.45 390.863 132.786 355.482 151.458 353L123.45 353.622L95.4402 353C114.113 355.482 123.45 390.241 101.665 394.587C76.6336 399.577 78.0136 407 78.0136 407H172C172 407 170.394 398.887 145.236 394.587Z" fill="#E05644"/>
<path fill-rule="evenodd" clip-rule="evenodd" d="M55 342V347.6C55 352.221 58.7972 356 63.4361 356H188.564C193.204 356 197 352.221 197 347.6V342H55Z" fill="#EC887B"/>
<path fill-rule="evenodd" clip-rule="evenodd" d="M104.37 315.897C100.591 314.103 97.8244 311.092 97.1565 306.144C94.4589 286.236 127.552 292.581 125.788 273C128.307 278.471 136.378 281.43 140.423 285.907C145.551 291.581 149.411 299.284 147.505 307.002C143.982 321.249 114.725 320.811 104.37 315.897Z" fill="#77C3AE"/>
<path fill-rule="evenodd" clip-rule="evenodd" d="M139.646 342H105.354L97 312H148L139.646 342Z" fill="#F0CC96"/>
<path fill-rule="evenodd" clip-rule="evenodd" d="M139.646 342H105.354L97 312H148L139.646 342Z" fill="#E88476"/>
<mask id="mask1" mask-type="alpha" maskUnits="userSpaceOnUse" x="97" y="312" width="52" height="31">
<path fill-rule="evenodd" clip-rule="evenodd" d="M140.296 342.373H105.651L97.2109 312.252H148.735L140.296 342.373Z" fill="white"/>
</mask>
<g mask="url(#mask1)">
<path fill-rule="evenodd" clip-rule="evenodd" d="M117.226 350.182C114.058 335.674 111.114 321.122 108.393 306.525C108.074 304.818 105.482 305.646 105.798 307.341C108.519 321.937 111.465 336.489 114.632 350.997C115.003 352.695 117.596 351.872 117.226 350.182Z" fill="#E05644"/>
<path fill-rule="evenodd" clip-rule="evenodd" d="M136.974 301.141C135.277 316.77 133.581 332.399 131.884 348.03C131.698 349.74 134.347 350.374 134.534 348.65C136.23 333.018 137.925 317.39 139.622 301.761C139.808 300.052 137.162 299.415 136.974 301.141Z" fill="#E05644"/>
<path fill-rule="evenodd" clip-rule="evenodd" d="M125.056 305.035C125.019 303.297 122.3 303.398 122.336 305.139C122.643 319.403 122.949 333.668 123.254 347.934C123.292 349.674 126.009 349.573 125.972 347.832C125.667 333.566 125.361 319.301 125.056 305.035Z" fill="#E05644"/>
</g>
<path fill-rule="evenodd" clip-rule="evenodd" d="M71.3692 315.897C67.5919 314.103 64.8255 311.092 64.1563 306.144C61.4601 286.236 94.5528 292.581 92.787 273C95.3078 278.471 103.378 281.43 107.423 285.907C112.551 291.581 116.411 299.284 114.505 307.002C110.982 321.249 81.7253 320.811 71.3692 315.897Z" fill="#D43A86"/>
<path fill-rule="evenodd" clip-rule="evenodd" d="M106.647 342H72.3539L64 312H115L106.647 342Z" fill="#F0CC96"/>
<path fill-rule="evenodd" clip-rule="evenodd" d="M106.647 342H72.3539L64 312H115L106.647 342Z" fill="#D094B6"/>
<mask id="mask2" mask-type="alpha" maskUnits="userSpaceOnUse" x="64" y="312" width="52" height="31">
<path fill-rule="evenodd" clip-rule="evenodd" d="M106.922 342.373H72.4722L64.0801 312.252H115.313L106.922 342.373Z" fill="white"/>
</mask>
<g mask="url(#mask2)">
<path fill-rule="evenodd" clip-rule="evenodd" d="M83.9803 350.182C80.8313 335.674 77.9034 321.122 75.1978 306.525C74.8798 304.818 72.3022 305.646 72.6163 307.341C75.3232 321.937 78.2524 336.489 81.4001 350.997C81.7698 352.695 84.3487 351.872 83.9803 350.182Z" fill="#BE6B9E"/>
<path fill-rule="evenodd" clip-rule="evenodd" d="M103.617 301.141C101.93 316.77 100.243 332.399 98.5562 348.03C98.3713 349.74 101.003 350.374 101.189 348.65C102.876 333.018 104.563 317.39 106.25 301.761C106.435 300.052 103.802 299.415 103.617 301.141Z" fill="#BE6B9E"/>
<path fill-rule="evenodd" clip-rule="evenodd" d="M91.7672 305.035C91.7297 303.297 89.0267 303.398 89.0629 305.139C89.3666 319.403 89.6717 333.668 89.9755 347.934C90.0117 349.674 92.7147 349.573 92.6772 347.832C92.3747 333.566 92.0696 319.301 91.7672 305.035Z" fill="#BE6B9E"/>
</g>
<path fill-rule="evenodd" clip-rule="evenodd" d="M353 291V199.852C353 194.433 348.523 190 343.053 190H236.946C231.476 190 227 194.433 227 199.852V291H353Z" fill="#FF345F"/>
<path fill-rule="evenodd" clip-rule="evenodd" d="M227 263H353V254H227V263Z" fill="#F0CC96"/>
<path fill-rule="evenodd" clip-rule="evenodd" d="M227 226H353V216H227V226Z" fill="#F0CC96"/>
<path fill-rule="evenodd" clip-rule="evenodd" d="M239 286.501C239 290.644 235.642 294 231.499 294C227.359 294 224 290.644 224 286.501C224 282.358 227.359 279 231.499 279C235.642 279 239 282.358 239 286.501Z" fill="#BE6B9E"/>
<path fill-rule="evenodd" clip-rule="evenodd" d="M269 286.501C269 290.644 265.641 294 261.501 294C257.358 294 254 290.644 254 286.501C254 282.358 257.358 279 261.501 279C265.641 279 269 282.358 269 286.501Z" fill="#BE6B9E"/>
<path fill-rule="evenodd" clip-rule="evenodd" d="M299 286.501C299 290.644 295.642 294 291.501 294C287.357 294 284 290.644 284 286.501C284 282.358 287.357 279 291.501 279C295.642 279 299 282.358 299 286.501Z" fill="#BE6B9E"/>
<path fill-rule="evenodd" clip-rule="evenodd" d="M329 286.501C329 290.644 325.642 294 321.499 294C317.357 294 314 290.644 314 286.501C314 282.358 317.357 279 321.499 279C325.642 279 329 282.358 329 286.501Z" fill="#BE6B9E"/>
<path fill-rule="evenodd" clip-rule="evenodd" d="M359 286.501C359 290.644 355.64 294 351.5 294C347.359 294 344 290.644 344 286.501C344 282.358 347.359 279 351.5 279C355.64 279 359 282.358 359 286.501Z" fill="#BE6B9E"/>
<path d="M265.66 147.35C265.66 147.35 264.685 143.71 260.135 143.71C259.16 143.71 258.055 143.97 256.82 144.555L256.755 166.785L242.455 166.265C242.455 166.265 249.93 145.335 250.97 138.835C250.97 138.835 249.93 138.185 248.045 138.185C246.615 138.185 245.055 138.51 243.95 139.81C241.415 142.67 233.095 164.705 232.185 166.525C231.99 167.045 231.86 167.565 231.86 168.02C231.86 169.385 232.835 170.36 234.655 171.205C235.37 171.53 237.905 171.595 241.155 171.595C246.355 171.595 252.66 171.4 256.755 171.27V184.53C256.755 186.35 258.315 187.975 260.655 187.975C261.955 187.975 263.385 187.78 264.36 187.26C264.62 185.505 264.88 181.085 265.4 172.895C265.79 163.795 265.855 155.93 265.855 151.965C265.855 150.21 265.66 147.35 265.66 147.35ZM272.234 162.69C272.234 177.185 279.059 187.195 288.289 187.195C299.534 187.195 306.294 175.235 306.294 161C306.294 152.81 301.874 138.705 290.239 138.705C281.009 138.705 272.234 148 272.234 162.69ZM289.849 143.19C293.424 143.19 297.584 149.365 297.584 160.545C297.584 169.71 295.244 182.515 289.134 182.515C284.129 182.515 281.789 173.025 281.789 160.805C281.789 153.655 284.649 143.19 289.849 143.19ZM343.863 147.35C343.863 147.35 342.888 143.71 338.338 143.71C337.363 143.71 336.258 143.97 335.023 144.555L334.958 166.785L320.658 166.265C320.658 166.265 328.133 145.335 329.173 138.835C329.173 138.835 328.133 138.185 326.248 138.185C324.818 138.185 323.258 138.51 322.153 139.81C319.618 142.67 311.298 164.705 310.388 166.525C310.193 167.045 310.063 167.565 310.063 168.02C310.063 169.385 311.038 170.36 312.858 171.205C313.573 171.53 316.108 171.595 319.358 171.595C324.558 171.595 330.863 171.4 334.958 171.27V184.53C334.958 186.35 336.518 187.975 338.858 187.975C340.158 187.975 341.588 187.78 342.563 187.26C342.823 185.505 343.083 181.085 343.603 172.895C343.993 163.795 344.058 155.93 344.058 151.965C344.058 150.21 343.863 147.35 343.863 147.35Z" fill="#38C7BF"/>
<path fill-rule="evenodd" clip-rule="evenodd" d="M314.971 391.493C288.089 386.839 299.609 307.1 322.651 304L288.089 304.774L253.522 304C276.564 307.1 288.089 386.064 261.203 391.493C230.313 397.729 232.017 407 232.017 407H348C348 407 346.02 396.865 314.971 391.493Z" fill="#E05644"/>
<path fill-rule="evenodd" clip-rule="evenodd" d="M202 292V298.801C202 304.41 206.679 309 212.395 309H366.603C372.323 309 377 304.41 377 298.801V292H202Z" fill="#EC887B"/>
<path fill-rule="evenodd" clip-rule="evenodd" d="M288.392 30C250.613 30 212.208 28.5419 173.598 25.6349C70.4389 17.8621 0.691173 2.2008 0 2.04404L0.461795 0.00152199C1.15297 0.158287 70.7807 15.7892 173.799 23.5483C234.296 28.1036 294.303 29.0914 352.146 26.4888C424.441 23.2317 493.549 14.3204 557.546 0L558 2.04404C493.879 16.3934 424.64 25.3199 352.214 28.5815C331.2 29.5282 309.898 30 288.392 30Z" fill="#8E7E77"/>
<path fill-rule="evenodd" clip-rule="evenodd" d="M53.8477 10L71.1277 71L101.578 19.0519L101.999 16.1959L53.8477 10Z" fill="#D094B6"/>
<path fill-rule="evenodd" clip-rule="evenodd" d="M176 23.2181L128 19L148.73 80L175.755 26.1038L176 23.2181Z" fill="#E88476"/>
<path fill-rule="evenodd" clip-rule="evenodd" d="M258.963 27.5L211 26L233.672 86L258.963 27.5Z" fill="#77C3AE"/>
<path fill-rule="evenodd" clip-rule="evenodd" d="M503.946 10.4286L484.886 73L456 17.5181L503.946 10.4286Z" fill="#77C3AE"/>
<path fill-rule="evenodd" clip-rule="evenodd" d="M430 20.7045L407.307 82L382 24.5486L430 20.7045Z" fill="#E88476"/>
<path fill-rule="evenodd" clip-rule="evenodd" d="M349.122 26.501L324.372 87L301 27.9241L349.122 26.501Z" fill="#D094B6"/>
<path fill-rule="evenodd" clip-rule="evenodd" d="M332.549 132.823C332.114 133.411 331.565 133.969 330.903 134.498C330.24 135.026 329.57 135.482 328.893 135.865C328.216 136.248 326.528 137 326.528 137C327.176 135.833 327.5 134.813 327.5 133.937C327.5 133.473 327.382 133.033 327.144 132.618C326.908 132.203 326.598 131.832 326.216 131.504C325.834 131.176 325.411 130.848 324.947 130.52C324.482 130.191 324.018 129.838 323.554 129.46C323.089 129.082 322.666 128.681 322.284 128.257C321.902 127.833 321.593 127.32 321.355 126.719C321.119 126.117 321 125.461 321 124.75C321 123.857 321.133 123.018 321.399 122.234C321.665 121.45 322.016 120.764 322.451 120.177C322.886 119.589 323.435 119.03 324.098 118.502C324.76 117.973 325.43 117.517 326.107 117.135C326.784 116.752 328.457 116 328.457 116C327.819 117.185 327.5 118.206 327.5 119.062C327.5 119.527 327.618 119.967 327.856 120.382C328.093 120.796 328.402 121.168 328.784 121.496C329.166 121.824 329.589 122.152 330.054 122.48C330.518 122.808 330.982 123.162 331.447 123.54C331.911 123.918 332.334 124.319 332.716 124.743C333.098 125.167 333.407 125.68 333.645 126.281C333.881 126.883 334 127.539 334 128.25C334 129.143 333.867 129.982 333.601 130.765C333.335 131.549 332.985 132.236 332.549 132.823Z" fill="#FF345F"/>
<path fill-rule="evenodd" clip-rule="evenodd" d="M330.018 132.085C329.927 132.361 329.804 132.626 329.649 132.88C329.494 133.133 329.335 133.355 329.17 133.543C329.005 133.731 328.815 133.919 328.598 134.108L328.587 134.109C328.711 133.566 328.755 133.097 328.718 132.701C328.699 132.491 328.649 132.294 328.568 132.112C328.488 131.93 328.389 131.768 328.274 131.628C328.158 131.488 328.032 131.349 327.894 131.211C327.757 131.073 327.618 130.923 327.478 130.762C327.339 130.601 327.209 130.429 327.089 130.246C326.97 130.063 326.866 129.837 326.777 129.57C326.689 129.303 326.63 129.009 326.6 128.687C326.563 128.283 326.564 127.901 326.602 127.54C326.64 127.179 326.705 126.861 326.796 126.586C326.888 126.31 327.011 126.045 327.166 125.791C327.32 125.537 327.48 125.316 327.645 125.128C327.809 124.94 328 124.752 328.216 124.563L328.224 124.563C328.103 125.113 328.061 125.582 328.097 125.97C328.116 126.18 328.166 126.377 328.247 126.559C328.327 126.741 328.425 126.903 328.541 127.043C328.656 127.183 328.783 127.322 328.921 127.46C329.058 127.598 329.197 127.748 329.336 127.909C329.476 128.07 329.606 128.242 329.725 128.425C329.845 128.608 329.949 128.834 330.037 129.101C330.125 129.368 330.185 129.662 330.214 129.984C330.252 130.388 330.251 130.77 330.213 131.131C330.175 131.491 330.11 131.81 330.018 132.085Z" fill="#F0DF96"/>
<path fill-rule="evenodd" clip-rule="evenodd" d="M253.549 132.823C253.114 133.411 252.565 133.969 251.903 134.498C251.24 135.026 250.57 135.482 249.893 135.865C249.216 136.248 247.528 137 247.528 137C248.176 135.833 248.5 134.813 248.5 133.937C248.5 133.473 248.382 133.033 248.144 132.618C247.908 132.203 247.598 131.832 247.216 131.504C246.834 131.176 246.411 130.848 245.947 130.52C245.482 130.191 245.018 129.838 244.554 129.46C244.089 129.082 243.666 128.681 243.284 128.257C242.902 127.833 242.593 127.32 242.355 126.719C242.119 126.117 242 125.461 242 124.75C242 123.857 242.133 123.018 242.399 122.234C242.665 121.45 243.016 120.764 243.451 120.177C243.886 119.589 244.435 119.03 245.098 118.502C245.76 117.973 246.43 117.517 247.107 117.135C247.784 116.752 249.457 116 249.457 116C248.819 117.185 248.5 118.206 248.5 119.062C248.5 119.527 248.618 119.967 248.856 120.382C249.093 120.796 249.402 121.168 249.784 121.496C250.166 121.824 250.589 122.152 251.054 122.48C251.518 122.808 251.982 123.162 252.447 123.54C252.911 123.918 253.334 124.319 253.716 124.743C254.098 125.167 254.407 125.68 254.645 126.281C254.881 126.883 255 127.539 255 128.25C255 129.143 254.867 129.982 254.601 130.765C254.335 131.549 253.985 132.236 253.549 132.823Z" fill="#FF345F"/>
<path fill-rule="evenodd" clip-rule="evenodd" d="M251.018 132.085C250.927 132.361 250.804 132.626 250.649 132.88C250.494 133.133 250.335 133.355 250.17 133.543C250.005 133.731 249.815 133.919 249.598 134.108L249.587 134.109C249.711 133.566 249.755 133.097 249.718 132.701C249.699 132.491 249.649 132.294 249.568 132.112C249.488 131.93 249.389 131.768 249.274 131.628C249.158 131.488 249.032 131.349 248.894 131.211C248.757 131.073 248.618 130.923 248.478 130.762C248.339 130.601 248.209 130.429 248.089 130.246C247.97 130.063 247.866 129.837 247.777 129.57C247.689 129.303 247.63 129.009 247.6 128.687C247.563 128.283 247.564 127.901 247.602 127.54C247.64 127.179 247.705 126.861 247.796 126.586C247.888 126.31 248.011 126.045 248.166 125.791C248.32 125.537 248.48 125.316 248.645 125.128C248.809 124.94 249 124.752 249.216 124.563L249.224 124.563C249.103 125.113 249.061 125.582 249.097 125.97C249.116 126.18 249.166 126.377 249.247 126.559C249.327 126.741 249.425 126.903 249.541 127.043C249.656 127.183 249.783 127.322 249.921 127.46C250.058 127.598 250.197 127.748 250.336 127.909C250.476 128.07 250.606 128.242 250.725 128.425C250.845 128.608 250.949 128.834 251.037 129.101C251.125 129.368 251.185 129.662 251.214 129.984C251.252 130.388 251.251 130.77 251.213 131.131C251.175 131.491 251.11 131.81 251.018 132.085Z" fill="#F0DF96"/>
<path fill-rule="evenodd" clip-rule="evenodd" d="M295.549 132.823C295.114 133.411 294.565 133.969 293.903 134.498C293.24 135.026 292.57 135.482 291.893 135.865C291.216 136.248 289.528 137 289.528 137C290.176 135.833 290.5 134.813 290.5 133.937C290.5 133.473 290.382 133.033 290.144 132.618C289.908 132.203 289.598 131.832 289.216 131.504C288.834 131.176 288.411 130.848 287.947 130.52C287.482 130.191 287.018 129.838 286.554 129.46C286.089 129.082 285.666 128.681 285.284 128.257C284.902 127.833 284.593 127.32 284.355 126.719C284.119 126.117 284 125.461 284 124.75C284 123.857 284.133 123.018 284.399 122.234C284.665 121.45 285.016 120.764 285.451 120.177C285.886 119.589 286.435 119.03 287.098 118.502C287.76 117.973 288.43 117.517 289.107 117.135C289.784 116.752 291.457 116 291.457 116C290.819 117.185 290.5 118.206 290.5 119.062C290.5 119.527 290.618 119.967 290.856 120.382C291.093 120.796 291.402 121.168 291.784 121.496C292.166 121.824 292.589 122.152 293.054 122.48C293.518 122.808 293.982 123.162 294.447 123.54C294.911 123.918 295.334 124.319 295.716 124.743C296.098 125.167 296.407 125.68 296.645 126.281C296.881 126.883 297 127.539 297 128.25C297 129.143 296.867 129.982 296.601 130.765C296.335 131.549 295.985 132.236 295.549 132.823Z" fill="#FF345F"/>
<path fill-rule="evenodd" clip-rule="evenodd" d="M293.018 132.085C292.927 132.361 292.804 132.626 292.649 132.88C292.494 133.133 292.335 133.355 292.17 133.543C292.005 133.731 291.815 133.919 291.598 134.108L291.587 134.109C291.711 133.566 291.755 133.097 291.718 132.701C291.699 132.491 291.649 132.294 291.568 132.112C291.488 131.93 291.389 131.768 291.274 131.628C291.158 131.488 291.032 131.349 290.894 131.211C290.757 131.073 290.618 130.923 290.478 130.762C290.339 130.601 290.209 130.429 290.089 130.246C289.97 130.063 289.866 129.837 289.777 129.57C289.689 129.303 289.63 129.009 289.6 128.687C289.563 128.283 289.564 127.901 289.602 127.54C289.64 127.179 289.705 126.861 289.796 126.586C289.888 126.31 290.011 126.045 290.166 125.791C290.32 125.537 290.48 125.316 290.645 125.128C290.809 124.94 291 124.752 291.216 124.563L291.224 124.563C291.103 125.113 291.061 125.582 291.097 125.97C291.116 126.18 291.166 126.377 291.247 126.559C291.327 126.741 291.425 126.903 291.541 127.043C291.656 127.183 291.783 127.322 291.921 127.46C292.058 127.598 292.197 127.748 292.336 127.909C292.476 128.07 292.606 128.242 292.725 128.425C292.845 128.608 292.949 128.834 293.037 129.101C293.125 129.368 293.185 129.662 293.214 129.984C293.252 130.388 293.251 130.77 293.213 131.131C293.175 131.491 293.11 131.81 293.018 132.085Z" fill="#F0DF96"/>
</svg>
