<?xml version="1.0" encoding="UTF-8"?>
<svg width="32px" height="39px" viewBox="0 0 32 39" version="1.1" xmlns="http://www.w3.org/2000/svg" xmlns:xlink="http://www.w3.org/1999/xlink">
    <!-- Generator: Sketch 52.2 (67145) - http://www.bohemiancoding.com/sketch -->
    <title>Group (13)</title>
    <desc>Created with Sketch.</desc>
    <g id="Page-1" stroke="none" stroke-width="1" fill="none" fill-rule="evenodd">
        <g id="Artboard-Copy" transform="translate(-561.000000, -6645.000000)" fill="#38C7BF" fill-rule="nonzero">
            <g id="Преимущества" transform="translate(151.000000, 6639.000000)">
                <g id="Group-70" transform="translate(410.000000, 0.000000)">
                    <g id="Group-(13)" transform="translate(0.000000, 6.000000)">
                        <path d="M26.138368,14.889984 C24.143104,9.0124928 17.957504,5.877824 11.9715712,7.4451584 C5.7860736,9.2084096 2.3940224,15.47776 3.990272,21.551232 C5.387008,26.449152 2.3940224,27.820544 1.396352,28.212352 C0.9972928,28.40832 0.59822848,28.800128 0.79776,29.387904 C0.9972928,29.779712 1.396352,30.17152 1.9949568,29.975552 C4.7884032,29.191936 7.3823232,26.253184 5.7860736,21.159296 C4.1898112,15.869568 7.1827968,10.5798272 12.3706368,9.0124928 C17.558528,7.6410752 22.746368,10.3839104 24.342528,15.47776 L24.342528,15.673728 C24.342528,15.869568 24.54208,16.065536 30.328576,20.767488 C30.727552,21.159296 31.326208,20.963456 31.52576,20.571648 C31.924864,20.179712 31.725312,19.592064 31.326208,19.396096 C29.530368,17.632896 26.537472,15.281792 26.138368,14.889984 Z" id="Shape"></path>
                        <path d="M22.74688,16.065536 C21.549696,11.9512192 17.160064,9.6002176 12.7703168,10.7757184 C8.5801344,11.9512192 6.1857408,16.261376 7.3829376,20.37568 C9.1787264,28.408192 7.7820032,30.17152 4.1904256,31.346944 C3.79136,31.542912 3.3922944,31.93472 3.5918208,32.522496 C3.79136,32.914304 4.1904256,33.306112 4.7890176,33.110272 C9.9768576,31.542912 10.9745152,28.212352 9.1787264,19.983872 C8.1810688,16.849152 10.176384,13.518592 13.36896,12.5389696 C16.76096,11.5593856 20.15296,13.518592 21.15072,16.653184 C21.549696,17.828736 22.547456,19.396096 29.73056,25.077632 C30.129664,25.46944 30.728192,25.2736 30.927744,24.881792 C31.326848,24.489856 31.127296,23.902208 30.728192,23.70624 C24.143616,18.612352 22.946432,17.04512 22.74688,16.065536 Z" id="Shape"></path>
                        <path d="M20.351872,34.285568 C19.553792,32.718336 17.957504,31.542784 15.96224,31.346816 C12.969216,31.346816 12.5701632,36.440704 12.370624,37.420288 C12.370624,37.812096 12.7696896,38.399872 13.168768,38.399872 C13.567872,38.399872 13.966848,38.008064 13.966848,37.616256 C14.1664,35.852928 14.765056,33.110144 15.762688,33.110144 C17.159424,33.110144 17.957504,34.285568 18.755712,35.265152 C18.955136,35.657088 19.35424,35.852928 19.553792,36.244736 C19.952896,36.636672 20.551424,36.636672 20.750976,36.244736 C21.15008,35.852928 21.15008,35.46112 20.750976,35.069312 C20.750976,34.873344 20.551424,34.677504 20.351872,34.285568 Z" id="Shape"></path>
                        <path d="M31.326592,14.889472 C30.129408,14.497536 29.3312,13.126144 28.333568,11.558848 C26.138752,8.2282624 23.34528,3.5262464 15.164416,3.5262464 C6.7841024,3.5262464 0,10.1874304 0,18.220032 C0,18.61184 0.39906432,19.003648 0.79812992,19.003648 C1.19719424,19.003648 1.5962624,18.61184 1.5962624,18.220032 C1.5962624,10.9710976 7.5822336,5.0935808 14.964864,5.0935808 C22.148096,5.0935808 24.742016,9.0119296 26.73728,12.3425152 C27.934592,14.301696 28.932224,15.869056 30.727936,16.456704 C31.12704,16.652672 31.725696,16.456704 31.92512,15.869056 C32.124672,15.47712 31.92512,15.085312 31.326592,14.889472 Z" id="Shape"></path>
                        <path d="M1.7957888,25.27296 C2.1948544,25.27296 2.59392,24.881152 2.59392,24.489344 C2.59392,24.293376 2.59392,24.293376 2.59392,24.097536 C2.1948544,23.313792 1.995328,22.726144 1.7957888,21.9424 C1.7957888,21.550592 1.3967232,21.158784 0.99766144,21.158784 C0.59859712,21.158784 0,21.354624 0,21.74656 C0.1995328,22.726144 0.39906432,23.901568 0.99766144,24.685312 C1.19719424,25.07712 1.3967232,25.27296 1.7957888,25.27296 Z" id="Shape"></path>
                        <path d="M1.3965312,6.857088 C1.795584,7.0530048 2.3941888,7.0530048 2.5937152,6.6611712 C3.3918464,5.4856704 7.1829632,1.7632512 14.166656,1.7632512 C20.950656,1.7632512 25.938944,5.0938368 26.737152,6.6611712 C26.936704,7.0530048 27.535232,7.2489216 27.934336,6.857088 C28.33344,6.6611712 28.532864,6.0734208 28.133888,5.6815872 C27.136256,3.7224192 21.748864,0 14.166656,0 C6.1853056,0 1.9951232,4.1142528 0.99746048,5.6815872 C0.79792768,6.0734208 0.79792768,6.6611712 1.3965312,6.857088 Z" id="Shape"></path>
                        <path d="M30.129536,11.5587584 C30.329088,11.950592 30.728192,12.3424256 31.32672,12.1465088 C31.725824,11.950592 31.925376,11.5587584 31.925376,11.1669248 C31.32672,9.7955072 30.728192,8.6200064 30.129536,7.4445056 C29.929984,7.052672 29.331456,6.8567552 28.932352,7.2485888 C28.533248,7.4445056 28.333824,8.032256 28.7328,8.4240896 C29.131904,9.4036736 29.73056,10.3832576 30.129536,11.5587584 Z" id="Shape"></path>
                        <path d="M24.14336,34.285568 C23.943808,34.285568 23.744256,34.285568 23.544704,34.0896 C18.157312,29.975424 12.3709312,25.077504 10.7746688,19.591808 C10.1760768,17.240832 11.7723392,14.889728 14.166784,14.30208 C16.3616,13.714304 18.556416,14.889728 19.354624,17.044864 C20.352256,20.179584 26.73728,25.273344 29.131648,27.036672 C29.530752,27.232512 29.530752,27.820288 29.3312,28.212096 C29.131648,28.604032 28.532992,28.604032 28.134016,28.408064 C23.544704,24.881536 18.755968,20.767232 17.758336,17.436672 C17.15968,16.261248 15.762944,15.477504 14.366208,15.869312 C12.969472,16.261248 12.1714048,17.63264 12.5704576,19.004032 C13.967232,23.901952 19.554048,28.604032 24.741888,32.718208 C25.140992,33.110016 25.140992,33.501952 24.94144,33.89376 C24.741888,34.0896 24.342912,34.285568 24.14336,34.285568 Z" id="Shape"></path>
                        <path d="M4.389696,33.110272 C3.9906304,33.110272 3.5915648,32.718464 3.5915648,32.326528 C3.5915648,31.93472 3.7910912,31.542912 4.1901568,31.542912 C7.7817472,30.36736 9.1784704,28.60416 7.3826816,20.57152 C6.3850112,16.261376 8.7794048,11.9512192 12.9696,10.7757184 C17.159808,9.6002176 21.54944,11.9512192 22.946176,16.065536 C23.145728,16.849152 24.342912,18.612352 30.927488,23.70624 C31.326592,23.902208 31.326592,24.489856 31.12704,24.881792 C30.927488,25.2736 30.328832,25.2736 29.929856,25.077632 C22.746624,19.396096 21.748992,17.828736 21.349888,16.653184 C20.352256,13.322624 16.960256,11.5593856 13.568128,12.5389696 C10.3756672,13.518592 8.3803392,16.849152 9.3779968,20.179712 C11.1737856,28.408192 10.176128,31.73888 4.988288,33.306112 C4.5892224,33.110272 4.5892224,33.110272 4.389696,33.110272 Z" id="Shape"></path>
                        <path d="M26.537856,31.34656 C26.338304,31.34656 26.138752,31.34656 25.939328,31.15072 C25.340672,30.562944 24.742144,30.171136 24.143488,29.7792 C20.950912,27.428224 15.563648,23.509888 14.166912,18.611968 C14.166912,18.024192 14.366464,17.632384 14.76544,17.436544 C15.364096,17.240576 15.763072,17.632384 15.962624,18.024192 C17.159808,22.334464 22.148224,26.056832 25.14112,28.211968 C25.939328,28.799616 26.537856,29.191552 27.136512,29.7792 C27.535488,30.171136 27.535488,30.758784 27.136512,30.954752 C27.136512,31.34656 26.93696,31.34656 26.537856,31.34656 Z" id="Shape"></path>
                        <path d="M13.368448,38.399872 C12.7698688,38.399872 12.3708032,38.008064 12.5703424,37.420288 C12.5703424,36.440704 12.969344,31.346816 15.962368,31.346816 C17.758208,31.542784 19.55392,32.718336 20.352128,34.285568 C20.55168,34.481536 20.751104,34.873344 20.950656,35.069312 C21.34976,35.46112 21.34976,36.048896 20.950656,36.244736 C20.55168,36.636672 20.152576,36.636672 19.753472,36.244736 C19.55392,35.852928 19.154944,35.657088 18.955392,35.265152 C18.157184,34.285568 17.359104,33.110144 15.962368,33.110144 C14.964736,33.110144 14.36608,35.657088 14.166656,37.616256 C14.166656,38.008064 13.767552,38.399872 13.368448,38.399872 Z" id="Shape"></path>
                        <path d="M8.7793792,36.048256 C8.3803136,36.048256 7.981248,35.656448 7.981248,35.26464 C7.981248,34.872832 8.1807872,34.481024 8.5798528,34.481024 C10.7747072,33.69728 12.3709568,29.191168 11.5728384,26.840192 C11.3732992,26.448384 11.5728384,25.860608 12.1714304,25.664768 C12.570496,25.4688 13.169152,25.664768 13.368576,26.252416 C13.368576,26.252416 13.368576,26.252416 13.368576,26.448384 C14.366336,29.387136 12.570496,35.068672 9.1784448,36.244224 C8.9789056,36.048256 8.9789056,36.048256 8.7793792,36.048256 Z" id="Shape"></path>
                        <path d="M0.79812992,19.200512 C0.39906432,19.200512 0,18.808704 0,18.220928 C0,9.9924224 6.7841024,3.3312512 15.164416,3.3312512 C23.34528,3.3312512 26.338304,8.0332544 28.333568,11.36384 C29.3312,12.9312 30.129408,14.302592 31.326592,14.6944 C31.725696,14.890368 32.124672,15.282176 31.92512,15.869952 C31.725696,16.26176 31.326592,16.653568 30.727936,16.457728 C28.932224,15.869952 27.934592,14.302592 26.73728,12.343424 C24.742016,9.2087552 22.148096,5.0945024 14.964864,5.0945024 C7.5822336,5.0945024 1.5962624,10.9720064 1.5962624,18.220928 C1.7957888,18.808704 1.3967232,19.200512 0.79812992,19.200512 Z" id="Shape"></path>
                        <path d="M1.7957888,25.27296 C1.3967232,25.27296 1.19719424,25.07712 0.99766144,24.881152 C0.39906432,23.901568 0.1995328,22.921984 0,21.9424 C0,21.550592 0.39906432,21.158784 0.79812992,21.158784 C1.19719424,21.158784 1.5962624,21.550592 1.5962624,21.9424 C1.7957888,22.726144 1.995328,23.50976 2.3943936,24.097536 C2.59392,24.489344 2.3943936,25.07712 1.995328,25.27296 C1.995328,25.27296 1.995328,25.27296 1.7957888,25.27296 Z" id="Shape"></path>
                    </g>
                </g>
            </g>
        </g>
    </g>
</svg>