<?xml version="1.0" encoding="UTF-8"?>
<svg width="42px" height="28px" viewBox="0 0 42 28" version="1.1" xmlns="http://www.w3.org/2000/svg" xmlns:xlink="http://www.w3.org/1999/xlink">
    <!-- Generator: Sketch 52.2 (67145) - http://www.bohemiancoding.com/sketch -->
    <title>Group (12)</title>
    <desc>Created with Sketch.</desc>
    <g id="Page-1" stroke="none" stroke-width="1" fill="none" fill-rule="evenodd" stroke-linecap="round" stroke-linejoin="round">
        <g id="Artboard-Copy" transform="translate(-150.000000, -6645.000000)" stroke="#38C7BF" stroke-width="2">
            <g id="Преимущества" transform="translate(151.000000, 6639.000000)">
                <g id="Group-69">
                    <g id="Group-(12)" transform="translate(0.000000, 7.000000)">
                        <path d="M36.0748235,21.5371765 L40,21.5371765 L40,13.7912941 C40,13.0356471 39.6261176,12.28 38.8784706,12.0910588 L35.1402353,10.5796471 L32.5234118,2.64491765 C33.0841176,2.64491765 33.458,2.07814118 33.458,1.70030588 L33.458,1.32245882 C33.458,0.566764706 32.8971765,0 32.1495294,0 L0,0 L0,23.4263529 L4.11215294,23.4263529 L4.11215294,22.4817647 C4.11215294,19.2701176 6.72897647,16.8141176 9.71962353,16.8141176 C12.7102353,16.8141176 15.3270588,19.4589412 15.3270588,22.4817647 L15.3270588,23.4263529 L24.6729412,23.4263529 L24.6729412,22.4817647 C24.6729412,19.2701176 27.2897647,16.8141176 30.2803529,16.8141176 C33.458,16.8141176 35.1402353,19.0811765 36.0748235,21.5371765 Z" id="Shape"></path>
                        <polygon id="Shape" points="31.7755294 10.5789882 21.8689412 10.5789882 21.8689412 4.34455294 29.9063529 4.34455294"></polygon>
                        <path d="M9.90650588,25.8817647 C11.4549412,25.8817647 12.7102353,24.5284706 12.7102353,22.8590588 C12.7102353,21.1896471 11.4549412,19.8362353 9.90650588,19.8362353 C8.35804706,19.8362353 7.10276471,21.1896471 7.10276471,22.8590588 C7.10276471,24.5284706 8.35804706,25.8817647 9.90650588,25.8817647 Z" id="Shape"></path>
                        <path d="M30.4674118,25.8817647 C32.0158824,25.8817647 33.2711765,24.5284706 33.2711765,22.8590588 C33.2711765,21.1896471 32.0158824,19.8362353 30.4674118,19.8362353 C28.9189412,19.8362353 27.6637647,21.1896471 27.6637647,22.8590588 C27.6637647,24.5284706 28.9189412,25.8817647 30.4674118,25.8817647 Z" id="Shape"></path>
                    </g>
                </g>
            </g>
        </g>
    </g>
</svg>