<?xml version="1.0" encoding="UTF-8"?>
<svg width="25px" height="38px" viewBox="0 0 25 38" version="1.1" xmlns="http://www.w3.org/2000/svg" xmlns:xlink="http://www.w3.org/1999/xlink">
    <!-- Generator: Sketch 52.2 (67145) - http://www.bohemiancoding.com/sketch -->
    <title>Group (16)</title>
    <desc>Created with Sketch.</desc>
    <g id="Page-1" stroke="none" stroke-width="1" fill="none" fill-rule="evenodd" stroke-linecap="round" stroke-linejoin="round">
        <g id="Artboard-Copy" transform="translate(-561.000000, -6777.000000)" stroke="#38C7BF" stroke-width="2">
            <g id="Преимущества" transform="translate(151.000000, 6639.000000)">
                <g id="Group-72" transform="translate(411.000000, 136.000000)">
                    <g id="Group-(16)" transform="translate(0.000000, 3.000000)">
                        <path d="M22.1538462,11.7303369 C22.1538462,18.2022923 11.0769231,36 11.0769231,36 C11.0769231,36 0,18.2022923 0,11.7303369 C0,5.25842308 4.96552154,0 11.0769231,0 C17.1883385,0 22.1538462,5.25842308 22.1538462,11.7303369 Z" id="Shape"></path>
                        <path d="M11.0770477,14.3594308 C12.9756462,14.3594308 14.5147846,12.7296 14.5147846,10.7190277 C14.5147846,8.70845538 12.9756462,7.07856923 11.0770477,7.07856923 C9.17847692,7.07856923 7.63938,8.70845538 7.63938,10.7190277 C7.63938,12.7296 9.17847692,14.3594308 11.0770477,14.3594308 Z" id="Shape"></path>
                    </g>
                </g>
            </g>
        </g>
    </g>
</svg>