<?xml version="1.0" encoding="UTF-8"?>
<svg width="34px" height="34px" viewBox="0 0 34 34" version="1.1" xmlns="http://www.w3.org/2000/svg" xmlns:xlink="http://www.w3.org/1999/xlink">
    <!-- Generator: Sketch 52.2 (67145) - http://www.bohemiancoding.com/sketch -->
    <title>Group (17)</title>
    <desc>Created with Sketch.</desc>
    <g id="Page-1" stroke="none" stroke-width="1" fill="none" fill-rule="evenodd" stroke-linecap="round" stroke-linejoin="round">
        <g id="Artboard-Copy" transform="translate(-967.000000, -6777.000000)" stroke="#38C7BF" stroke-width="2">
            <g id="Преимущества" transform="translate(151.000000, 6639.000000)">
                <g id="Group-73" transform="translate(817.000000, 136.000000)">
                    <g id="Group-(17)" transform="translate(0.000000, 3.000000)">
                        <polygon id="Shape" points="0 17.698304 17.438208 0 29.303424 0 32 2.5027968 32 15.016704 14.022528 32"></polygon>
                        <path d="M10.2471936,16.626048 L23.730304,13.408128" id="Shape"></path>
                        <path d="M18.33728,10.72608 C19.429376,10.72608 20.314752,9.8456576 20.314752,8.7596032 C20.314752,7.6735488 19.429376,6.7931264 18.33728,6.7931264 C17.245056,6.7931264 16.35968,7.6735488 16.35968,8.7596032 C16.35968,9.8456576 17.245056,10.72608 18.33728,10.72608 Z" id="Shape"></path>
                        <path d="M27.325696,5.720832 C27.822208,5.720832 28.22464,5.32064 28.22464,4.8269824 C28.22464,4.333312 27.822208,3.93312 27.325696,3.93312 C26.829312,3.93312 26.42688,4.333312 26.42688,4.8269824 C26.42688,5.32064 26.829312,5.720832 27.325696,5.720832 Z" id="Shape"></path>
                        <path d="M16.359424,22.704256 C17.45152,22.704256 18.336896,21.823744 18.336896,20.737792 C18.336896,19.651712 17.45152,18.7712 16.359424,18.7712 C15.2672,18.7712 14.381824,19.651712 14.381824,20.737792 C14.381824,21.823744 15.2672,22.704256 16.359424,22.704256 Z" id="Shape"></path>
                    </g>
                </g>
            </g>
        </g>
    </g>
</svg>