<?xml version="1.0" encoding="UTF-8"?>
<svg width="31px" height="30px" viewBox="0 0 31 30" version="1.1" xmlns="http://www.w3.org/2000/svg" xmlns:xlink="http://www.w3.org/1999/xlink">
    <!-- Generator: Sketch 52.2 (67145) - http://www.bohemiancoding.com/sketch -->
    <title>Shape</title>
    <desc>Created with Sketch.</desc>
    <g id="Page-1" stroke="none" stroke-width="1" fill="none" fill-rule="evenodd" stroke-linecap="round" stroke-linejoin="round">
        <g id="Artboard-Copy" transform="translate(-640.000000, -3208.000000)" stroke="#494040" stroke-width="2">
            <g id="Собственные-бренды" transform="translate(14.000000, 3023.000000)">
                <g id="Преимущества" transform="translate(226.000000, 186.000000)">
                    <g id="Group-43" transform="translate(401.000000, 0.000000)">
                        <g id="Group-(9)">
                            <path d="M0.68235,12.6062 L2.9,12.6062 C4.60588,12.6062 5.97059,11.5946 7.50588,10.7515 C17.5706,5.69329 19.2765,0.97226 21.3235,0.12922 C22.1765,-0.207994 23.0294,0.12922 23.3706,0.97226 C23.8824,2.65834 19.4471,8.89684 19.4471,8.89684 L26.7824,9.5713 C27.9765,9.5713 29,10.7515 29,11.9318 C29,12.9434 27.9765,14.1237 26.7824,14.2923 L27.8059,15.1353 C29.1706,16.3156 28.8294,18.3389 27.1235,19.0133 L26.4412,19.3505 L26.6118,19.5191 C27.8059,20.6994 27.2941,22.8913 25.5882,23.3971 L24.5647,23.7343 C25.4176,25.0832 24.7353,26.9379 23.0294,27.2751 L21.8353,27.6123 C16.5471,28.624 11.2588,27.6123 6.65294,25.0832 L5.45882,24.4088 L0.51176,24.4088 C0.17059,24.4088 0,24.0716 0,23.903 L0,13.2806 C0.17059,12.9434 0.34118,12.6062 0.68235,12.6062 Z" id="Shape"></path>
                        </g>
                    </g>
                </g>
            </g>
        </g>
    </g>
</svg>