<?xml version="1.0" encoding="UTF-8"?>
<svg width="30px" height="30px" viewBox="0 0 30 30" version="1.1" xmlns="http://www.w3.org/2000/svg" xmlns:xlink="http://www.w3.org/1999/xlink">
    <!-- Generator: Sketch 52.2 (67145) - http://www.bohemiancoding.com/sketch -->
    <title>Group (8)</title>
    <desc>Created with Sketch.</desc>
    <g id="Page-1" stroke="none" stroke-width="1" fill="none" fill-rule="evenodd" stroke-linecap="round" stroke-linejoin="round">
        <g id="Artboard-Copy" transform="translate(-474.000000, -3209.000000)" stroke="#494040" stroke-width="2">
            <g id="Собственные-бренды" transform="translate(14.000000, 3023.000000)">
                <g id="Преимущества" transform="translate(226.000000, 186.000000)">
                    <g id="Group-44" transform="translate(235.000000, 1.000000)">
                        <g id="Group-(8)">
                            <path d="M14,28 C21.732,28 28,21.732 28,14 C28,6.26801 21.732,0 14,0 C6.26801,0 0,6.26801 0,14 C0,21.732 6.26801,28 14,28 Z" id="Shape"></path>
                            <path d="M13.5061,14.494 C16.1414,14.494 18.2826,12.6822 18.2826,10.541 C18.2826,8.39983 16.1414,6.91748 13.5061,6.91748 L11.5297,6.91748 C11.2003,6.91748 10.8708,7.24689 10.8708,7.5763 L10.8708,20.4234" id="Shape"></path>
                            <path d="M9.8823,17.9529 L16.6353,17.9529" id="Shape"></path>
                        </g>
                    </g>
                </g>
            </g>
        </g>
    </g>
</svg>