<?xml version="1.0" encoding="UTF-8"?>
<svg width="35px" height="26px" viewBox="0 0 35 26" version="1.1" xmlns="http://www.w3.org/2000/svg" xmlns:xlink="http://www.w3.org/1999/xlink">
    <!-- Generator: Sketch 52.2 (67145) - http://www.bohemiancoding.com/sketch -->
    <title>Shape</title>
    <desc>Created with Sketch.</desc>
    <g id="Page-1" stroke="none" stroke-width="1" fill="none" fill-rule="evenodd" stroke-linecap="round" stroke-linejoin="round">
        <g id="Artboard-Copy" transform="translate(-998.000000, -3211.000000)" stroke="#494040" stroke-width="2">
            <g id="Собственные-бренды" transform="translate(14.000000, 3023.000000)">
                <g id="Преимущества" transform="translate(226.000000, 186.000000)">
                    <g id="Group-46" transform="translate(759.000000, 3.000000)">
                        <g id="Group-(11)">
                            <path d="M25.7978,23.8731 L24.4178,22.52 C23.3827,21.5051 22.0027,20.9976 20.4501,20.8285 C18.38,20.8285 15.7924,20.4902 13.2048,19.8136 C10.2722,19.137 7.16705,17.7838 5.44198,17.2764 C4.75195,17.1073 4.40694,16.2615 4.75195,15.5849 C5.44198,14.2318 6.99454,13.5552 8.3746,13.7243 L11.1347,14.0626 L0.43927,2.89892 C-0.250757,2.22233 -0.07825,1.0383 0.61178,0.53086 C1.30181,-0.14573 2.33685,-0.145731 3.02688,0.36171 L10.9622,6.95844 L10.9622,6.451 C10.9622,4.92868 12.3423,3.9138 13.7223,4.42124 L14.4124,4.59039 L14.4124,4.42124 C14.4124,2.89892 15.9649,2.05318 17.345,2.56062 L18.2075,2.89892 C18.5525,1.54574 20.1051,0.86915 21.3126,1.71489 L22.1752,2.22233 C25.9703,4.75953 28.7304,8.48076 29.938,12.7094 L29.938,13.8935 L32.8706,16.769 C33.0431,16.9381 33.0431,17.2764 32.8706,17.4456 L26.4879,23.8731 C26.3153,24.0423 25.9703,24.0423 25.7978,23.8731 Z" id="Shape"></path>
                        </g>
                    </g>
                </g>
            </g>
        </g>
    </g>
</svg>