<?xml version="1.0" encoding="UTF-8"?>
<svg width="15px" height="15px" viewBox="0 0 15 15" version="1.1" xmlns="http://www.w3.org/2000/svg" xmlns:xlink="http://www.w3.org/1999/xlink">
    <!-- Generator: Sketch 52.2 (67145) - http://www.bohemiancoding.com/sketch -->
    <title>Товары со скидкой</title>
    <desc>Created with Sketch.</desc>
    <g id="Page-1" stroke="none" stroke-width="1" fill="none" fill-rule="evenodd">
        <g id="Artboard-Copy" transform="translate(-680.000000, -70.000000)" fill="#D5D9E4" fill-rule="nonzero">
            <g id="город" transform="translate(135.000000, 45.000000)">
                <g id="Товары-со-скидкой" transform="translate(545.000000, 25.000000)">
                    <g id="Group-11">
                        <path d="M0.146446609,0.853553391 C-0.0488155365,0.658291245 -0.0488155365,0.341708755 0.146446609,0.146446609 C0.341708755,-0.0488155365 0.658291245,-0.0488155365 0.853553391,0.146446609 L14.6267637,13.919657 C14.8220259,14.1149191 14.8220259,14.4315016 14.6267637,14.6267637 C14.4315016,14.8220259 14.1149191,14.8220259 13.919657,14.6267637 L0.146446609,0.853553391 Z" id="Path-2"></path>
                        <path d="M0.146446609,0.853553391 C-0.0488155365,0.658291245 -0.0488155365,0.341708755 0.146446609,0.146446609 C0.341708755,-0.0488155365 0.658291245,-0.0488155365 0.853553391,0.146446609 L14.6267637,13.919657 C14.8220259,14.1149191 14.8220259,14.4315016 14.6267637,14.6267637 C14.4315016,14.8220259 14.1149191,14.8220259 13.919657,14.6267637 L0.146446609,0.853553391 Z" id="Path-2" transform="translate(7.386605, 7.386605) scale(-1, 1) translate(-7.386605, -7.386605) "></path>
                    </g>
                </g>
            </g>
        </g>
    </g>
</svg>