<?xml version="1.0" encoding="UTF-8"?>
<svg width="33px" height="39px" viewBox="0 0 33 39" version="1.1" xmlns="http://www.w3.org/2000/svg" xmlns:xlink="http://www.w3.org/1999/xlink">
    <!-- Generator: Sketch 52.2 (67145) - http://www.bohemiancoding.com/sketch -->
    <title>Shape</title>
    <desc>Created with Sketch.</desc>
    <g id="Page-1" stroke="none" stroke-width="1" fill="none" fill-rule="evenodd" stroke-linecap="round" stroke-linejoin="round">
        <g id="Карточка-товара" transform="translate(-167.000000, -1804.000000)" stroke="#38C7BF" stroke-width="2">
            <g id="Group-53" transform="translate(159.000000, 1571.000000)">
                <g id="Преимущества" transform="translate(0.000000, 91.000000)">
                    <g id="Group-72" transform="translate(9.000000, 136.000000)">
                        <g id="Vector-(1)" transform="translate(0.000000, 7.000000)">
                            <path d="M24.9016261,20.5273357 L21.8524391,21.2876857 L19.3115174,24.8355893 L15.2459348,23.3150214 L13.8906957,23.8219214 M24.9016261,20.5273357 L25.9180217,20.2740179 L24.9016261,15.7123143 L28.4590783,12.1644107 L25.4098913,9.12328821 L25.9180217,4.5616375 L21.8524391,3.54794321 L19.3115174,0 L15.2459348,1.52054143 L11.1803252,0 L9.14754739,3.54794321 L4.57376696,4.5616375 L5.08196478,9.12328821 L2.0327913,12.1644107 L5.08196478,15.7123143 L4.57376696,20.2740179 L5.7172087,20.5273357 M24.9016261,20.5273357 L31,31.9315286 L24.3934957,31.4246286 L21.3443087,37 L15.2459348,26.2179357 M13.8906957,23.8219214 L11.1803252,24.8355893 L9.14754739,21.2876857 L5.7172087,20.5273357 M13.8906957,23.8219214 L15.2459348,26.2179357 M5.7172087,20.5273357 L0,31.4246286 L5.7172087,31.4246286 L9.14754739,37 L15.2459348,26.2179357" id="Shape"></path>
                        </g>
                    </g>
                </g>
            </g>
        </g>
    </g>
</svg>