<?xml version="1.0" encoding="UTF-8"?>
<svg width="18px" height="11px" viewBox="0 0 18 11" version="1.1" xmlns="http://www.w3.org/2000/svg" xmlns:xlink="http://www.w3.org/1999/xlink">
    <!-- Generator: Sketch 52.2 (67145) - http://www.bohemiancoding.com/sketch -->
    <title>Shape</title>
    <desc>Created with Sketch.</desc>
    <g id="Page-1" stroke="none" stroke-width="1" fill="none" fill-rule="evenodd">
        <g id="Категория" transform="translate(-437.000000, -1591.000000)" fill="#D5D9E4" fill-rule="nonzero">
            <g id="Каталог" transform="translate(0.000000, 1573.000000)">
                <g id="Верхняя-панель" transform="translate(150.000000, 0.000000)">
                    <g id="Group-25">
                        <g id="Group-33" transform="translate(141.000000, 0.000000)">
                            <g id="arrow-point-to-right-(1)" transform="translate(154.967836, 23.467836) rotate(90.000000) translate(-154.967836, -23.467836) translate(149.967836, 14.967836)">
                                <path d="M9.64021361,9.25482345 L2.0971233,16.4964363 C1.61729164,16.9573282 0.839326861,16.9573282 0.359728151,16.4964363 C-0.119909384,16.0359544 -0.119909384,15.289097 0.359728151,14.8286524 L7.03419854,8.42093149 L0.359922273,2.01343422 C-0.119715261,1.55276594 -0.119715261,0.805983115 0.359922273,0.345501208 C0.839559808,-0.115167069 1.61748577,-0.115167069 2.09731742,0.345501208 L9.64040773,7.5872259 C9.8802265,7.81757868 10,8.1191619 10,8.42089422 C10,8.72277563 9.87999356,9.02458249 9.64021361,9.25482345 Z" id="Shape"></path>
                            </g>
                        </g>
                    </g>
                </g>
            </g>
        </g>
    </g>
</svg>