<?xml version="1.0" encoding="UTF-8"?>
<svg width="100px" height="100px" viewBox="0 0 100 100" version="1.1" xmlns="http://www.w3.org/2000/svg" xmlns:xlink="http://www.w3.org/1999/xlink">
    <!-- Generator: Sketch 52.2 (67145) - http://www.bohemiancoding.com/sketch -->
    <title>zoom-tool</title>
    <desc>Created with Sketch.</desc>
    <g id="Page-1" stroke="none" stroke-width="1" fill="none" fill-rule="evenodd">
        <g id="Сертификаты-соответствия" transform="translate(-816.000000, -746.000000)" fill="#FFFFFF">
            <g id="Group" transform="translate(732.000000, 606.000000)">
                <g id="zoom-tool" transform="translate(84.000000, 140.000000)">
                    <path d="M98.2758068,87.8306196 L70.8604493,60.2717543 C71.1075096,59.8980358 71.2928048,59.278519 71.4767928,58.4708258 C74.3720713,53.5672098 76.1634217,48.2294547 76.7140786,42.5805417 C76.8402231,41.2774656 76.8980666,39.912158 76.8980666,38.6079295 C76.8980666,34.3254766 76.1884219,30.0324872 74.7428251,25.82165 C72.8620951,20.3487305 69.8563585,15.4757364 65.6862359,11.2979905 C58.2737739,3.86806976 48.4983896,0 38.4573174,0 C28.5386316,0 18.7184757,3.88650874 11.2890202,11.2979905 C6.33555971,16.2384845 3.05514824,22.1033969 1.30856933,28.7389599 C-0.456473738,35.448608 -0.415787224,42.0217748 1.30856933,48.6639231 C3.03423309,55.3062361 6.31709555,61.1217584 11.2890202,66.1060449 C18.7000116,73.5361303 28.5386316,77.4027183 38.4573174,77.4027183 C46.1575262,77.4027183 53.157404,75.1595836 59.6482918,71.0717278 L60.634082,70.450894 L88.1716624,98.1340577 C89.2203613,99.1880429 90.3283744,99.8093706 91.3757662,99.9338337 C91.6215193,99.9959006 91.8068145,100.007754 91.9908025,99.9959006 C92.7321467,99.9470044 93.4115625,99.7550415 93.9622193,99.4369691 C94.7060146,99.0092506 95.5025879,98.3816668 96.3646845,97.5130592 L97.5973714,96.2722147 C98.459468,95.4021253 99.0825109,94.5998651 99.5071866,93.8516048 C99.8212407,93.2969537 100,92.5473763 100,91.6165371 L100,91.1196725 C100.000163,90.0630531 99.3548981,88.9152266 98.2758068,87.8306196 Z M69.0125627,46.9265432 C67.5668025,52.3810237 64.8239759,57.1679144 60.7576121,61.2648251 C54.843525,67.2225909 46.8960926,70.5753571 38.457154,70.5753571 C30.1392946,70.5753571 22.2444769,67.1682618 16.0937871,61.2648251 C4.00923882,49.6637438 4.05923912,27.9762117 16.0937871,16.2638381 C22.1722542,10.3473953 30.0788367,6.89123917 38.457154,6.89123917 C47.266683,6.89123917 54.6160727,10.03739 60.7576121,16.2638381 C64.7805116,20.3409927 67.5957242,25.0776701 69.0125627,30.5398884 C70.4292377,36.001942 70.4622444,41.4562579 69.0125627,46.9265432 Z" id="Shape" fill-rule="nonzero"></path>
                    <polygon id="Path" points="41.5379487 21.6216216 34.0770533 21.6216216 34.0770533 34.0772797 21.6216216 34.0772797 21.6216216 41.5382127 34.0770533 41.5382127 34.0770533 54.0540541 41.5379487 54.0540541 41.5379487 41.5382127 54.0540541 41.5382127 54.0540541 34.0772797 41.5379487 34.0772797"></polygon>
                </g>
            </g>
        </g>
    </g>
</svg>