<?xml version="1.0" encoding="UTF-8"?>
<svg width="18px" height="18px" viewBox="0 0 18 18" version="1.1" xmlns="http://www.w3.org/2000/svg" xmlns:xlink="http://www.w3.org/1999/xlink">
    <!-- Generator: Sketch 52.2 (67145) - http://www.bohemiancoding.com/sketch -->
    <title>Zagruzit</title>
    <desc>Created with Sketch.</desc>
    <g id="Page-1" stroke="none" stroke-width="1" fill="none" fill-rule="evenodd">
        <g id="Мои-работы" transform="translate(-175.000000, -695.000000)" fill="#FFFFFF">
            <g id="Верхняя-панель" transform="translate(150.000000, 678.000000)">
                <g id="Group-9">
                    <g id="Zagruzit" transform="translate(26.000000, 17.000000)">
                        <path d="M15.25,12.1507277 C15.25,11.7365141 15.5857864,11.4007277 16,11.4007277 C16.4142136,11.4007277 16.75,11.7365141 16.75,12.1507277 L16.75,17 C16.75,17.4142136 16.4142136,17.75 16,17.75 L0.02399678,17.75 C-0.390216782,17.75 -0.72600322,17.4142136 -0.72600322,17 L-0.72600322,12.1507277 C-0.72600322,11.7365141 -0.390216782,11.4007277 0.02399678,11.4007277 C0.438210342,11.4007277 0.77399678,11.7365141 0.77399678,12.1507277 L0.77399678,16.25 L15.25,16.25 L15.25,12.1507277 Z" id="Path-5" fill-rule="nonzero"></path>
                        <path d="M7.25,6 C7.25,5.58578644 7.58578644,5.25 8,5.25 C8.41421356,5.25 8.75,5.58578644 8.75,6 L8.75,14 C8.75,14.4142136 8.41421356,14.75 8,14.75 C7.58578644,14.75 7.25,14.4142136 7.25,14 L7.25,6 Z" id="Path-6" fill-rule="nonzero" transform="translate(8.000000, 10.000000) scale(-1, 1) translate(-8.000000, -10.000000) "></path>
                        <path d="M10.4374072,10.5040269 C10.7113256,10.1933155 11.1852617,10.1634888 11.4959731,10.4374072 C11.8066845,10.7113256 11.8365112,11.1852617 11.5625928,11.4959731 L8.55284507,14.9099938 C8.2536086,15.2494241 7.72420536,15.2485711 7.42606419,14.9081784 L4.43581194,11.4941577 C4.16289618,11.1825652 4.19424984,10.7087277 4.5058423,10.4358119 C4.81743476,10.1628962 5.2912723,10.1942498 5.56418806,10.5058423 L7.99208285,13.2778101 L10.4374072,10.5040269 Z" id="Path-7" fill-rule="nonzero"></path>
                        <circle id="Oval" cx="8" cy="3.75" r="1"></circle>
                        <circle id="Oval" cx="8" cy="1.25" r="1"></circle>
                    </g>
                </g>
            </g>
        </g>
    </g>
</svg>