<?xml version="1.0" encoding="UTF-8"?>
<svg width="16px" height="16px" viewBox="0 0 16 16" version="1.1" xmlns="http://www.w3.org/2000/svg" xmlns:xlink="http://www.w3.org/1999/xlink">
    <!-- Generator: Sketch 52.2 (67145) - http://www.bohemiancoding.com/sketch -->
    <title>information</title>
    <desc>Created with Sketch.</desc>
    <g id="Page-1" stroke="none" stroke-width="1" fill="none" fill-rule="evenodd">
        <g id="Карточка-товара" transform="translate(-1143.000000, -549.000000)" fill="#000000">
            <g id="Group-54" transform="translate(635.000000, 443.000000)">
                <g id="Group-33" transform="translate(220.000000, 96.000000)">
                    <g id="information" transform="translate(288.000000, 10.000000)">
                        <circle id="Oval" cx="8.38095238" cy="12.1904762" r="1"></circle>
                        <path d="M8,0 C3.578625,0 0,3.57803125 0,8 C0,12.421375 3.57803125,16 8,16 C12.421375,16 16,12.4219687 16,8 C16,3.578625 12.4219687,0 8,0 Z M8,14.75 C4.26946875,14.75 1.25,11.7310313 1.25,8 C1.25,4.26946875 4.26896875,1.25 8,1.25 C11.7305313,1.25 14.75,4.26896875 14.75,8 C14.75,11.7305313 11.7310312,14.75 8,14.75 Z" id="Shape" fill-rule="nonzero"></path>
                        <path d="M8,3.80952381 C6.5296,3.80952381 5.33333333,4.98137687 5.33333333,6.42176871 C5.33333333,6.78245442 5.6318,7.07482993 6,7.07482993 C6.3682,7.07482993 6.66666667,6.78245442 6.66666667,6.42176871 C6.66666667,5.70157279 7.2648,5.11564626 8,5.11564626 C8.7352,5.11564626 9.33333333,5.70157279 9.33333333,6.42176871 C9.33333333,7.14196463 8.7352,7.72789116 8,7.72789116 C7.6318,7.72789116 7.33333333,8.02026667 7.33333333,8.38095238 L7.33333333,10.0136054 C7.33333333,10.3742912 7.6318,10.6666667 8,10.6666667 C8.3682,10.6666667 8.66666667,10.3742912 8.66666667,10.0136054 L8.66666667,8.95136871 C9.81553333,8.6606585 10.6666667,7.63675646 10.6666667,6.42176871 C10.6666667,4.98137687 9.4704,3.80952381 8,3.80952381 Z" id="Path"></path>
                    </g>
                </g>
            </g>
        </g>
    </g>
</svg>