<?xml version="1.0" encoding="UTF-8"?>
<svg width="27px" height="24px" viewBox="0 0 27 24" version="1.1" xmlns="http://www.w3.org/2000/svg" xmlns:xlink="http://www.w3.org/1999/xlink">
    <!-- Generator: Sketch 52.2 (67145) - http://www.bohemiancoding.com/sketch -->
    <title>Shape</title>
    <desc>Created with Sketch.</desc>
    <g id="Page-1" stroke="none" stroke-width="1" fill="none" fill-rule="evenodd">
        <g id="Мои-работы" transform="translate(-557.000000, -990.000000)" fill="#FFFFFF" fill-rule="nonzero">
            <g id="Group-3" transform="translate(150.000000, 760.000000)">
                <g id="Категории">
                    <g id="Group-33" transform="translate(290.000000, 0.000000)">
                        <g id="Group-39">
                            <g id="Group-21" transform="translate(33.000000, 227.000000)">
                                <g id="Group-10" transform="translate(80.000000, 0.000000)">
                                    <path d="M8.51322138,16.6395838 L17.1868867,24.9797966 C17.3514852,25.1443951 17.3886322,25.1666833 17.5,25.1666833 C17.6113678,25.1666833 17.6485148,25.1443951 17.8131133,24.9797966 L17.8201119,24.9729338 L26.4797799,16.6464466 C28.4983623,14.6278642 29.5,12.5845234 29.5,10.6666667 C29.5,8.61516555 29.0391472,7.23260726 27.9797799,6.02022006 C26.9589146,4.9993547 25.4608505,4.5 23.5,4.5 C23.231403,4.5 22.981877,4.5301152 22.6880979,4.59306787 C22.5693368,4.61851667 22.4470034,4.64822402 22.2755877,4.69248588 C22.3776472,4.66613842 21.9058039,4.78893723 21.7879345,4.81840458 C21.3046415,4.93922783 20.9817453,5.11309502 20.2236068,5.61388026 L20.2773501,5.58269181 C19.5533851,6.06533512 19.2402646,6.30017555 18.8535534,6.68688672 L17.8535534,7.68688672 C17.6582912,7.88214887 17.3417088,7.88214887 17.1464466,7.68688672 L16.1464466,6.68688672 C15.9013468,6.44178693 15.6086101,6.22888752 14.9094188,5.7620798 L14.8893166,5.74935848 C14.1849214,5.27976169 13.8620252,5.10589449 13.3787322,4.98507125 C12.4252053,4.74668952 12.025091,4.66666667 11.6666667,4.66666667 C9.70581618,4.66666667 8.20775208,5.16602137 7.18688672,6.18688672 C6.09659143,7.27718202 5.5,8.82831974 5.5,10.6666667 C5.5,11.0184963 5.57710525,11.4104959 5.80540691,12.326659 C5.87578689,12.4705306 5.94222616,12.6198096 6.01838886,12.8014283 C6.036554,12.8447452 6.1721994,13.1741697 6.20957252,13.2613737 C6.33658766,13.5577424 6.42984774,13.722741 6.58269181,13.8893166 C6.68124593,14.0371477 6.75787324,14.1616671 6.92874646,14.4464558 C7.23743373,14.9609346 7.37621842,15.1691116 7.52022006,15.3131133 C7.8331989,15.6260921 7.99495345,15.8774349 8.24856295,16.3794113 C8.29668608,16.4349535 8.33702362,16.4909559 8.37075489,16.5435483 C8.42296219,16.5668905 8.47124544,16.5992222 8.51322138,16.6395838 Z M18.1464466,5.97977994 C18.5930688,5.53315778 18.9466149,5.26799821 19.7763932,4.71945307 L19.7226499,4.75064152 C20.5182547,4.22023831 20.9175807,4.00521662 21.5453989,3.84826208 C21.4093099,3.88228432 22.2639841,3.6612479 22.4785688,3.61526546 C22.8372019,3.5384155 23.1555018,3.5 23.5,3.5 C25.7058162,3.5 27.4577521,4.08397863 28.7096217,5.33741436 C29.9608528,6.76739274 30.5,8.38483445 30.5,10.6666667 C30.5,12.8754766 29.3798428,15.1605973 27.1798881,17.3604162 L18.5202201,25.6869034 C18.1848186,26.0223049 17.9441878,26.1666833 17.5,26.1666833 C17.0573854,26.1666833 16.8168885,26.0233258 16.4833401,25.6904599 L7.9217436,17.4581391 C7.78081017,17.4053262 7.67199553,17.3052144 7.58397485,17.1731834 C7.51106289,17.0563162 7.50143648,17.0418766 7.47977994,17.0202201 L7.38611974,16.8902735 C7.15858067,16.4351953 7.04273421,16.249841 6.81311328,16.0202201 C6.58674454,15.7938513 6.42923294,15.5575839 6.07125354,14.9609516 C5.90879343,14.6901847 5.83727258,14.5739634 5.81311328,14.5202201 C5.60765226,14.314759 5.4645487,14.0615758 5.29042748,13.655293 C5.2496756,13.5602053 5.1118835,13.2255673 5.09619448,13.188155 C5.01899205,13.0040569 4.95451413,12.8603956 4.88611974,12.7236068 L4.84826208,12.6212678 C4.58664381,11.5747947 4.5,11.1415757 4.5,10.6666667 C4.5,8.57168026 5.19507524,6.76448465 6.47977994,5.47977994 C7.70891458,4.2506453 9.46085049,3.66666667 11.6666667,3.66666667 C12.1415757,3.66666667 12.5747947,3.75331048 13.6212678,4.01492875 C14.2490859,4.17188328 14.648412,4.38690498 15.4239145,4.90458687 L15.4440168,4.91730819 C16.2247232,5.43777915 16.5430976,5.66932418 16.8535534,5.97977994 L17.5,6.62622655 L18.1464466,5.97977994 Z" id="Shape"></path>
                                </g>
                            </g>
                        </g>
                    </g>
                </g>
            </g>
        </g>
    </g>
</svg>