<?xml version="1.0" encoding="UTF-8"?>
<svg width="17px" height="15px" viewBox="0 0 17 15" version="1.1" xmlns="http://www.w3.org/2000/svg" xmlns:xlink="http://www.w3.org/1999/xlink">
    <!-- Generator: Sketch 52.2 (67145) - http://www.bohemiancoding.com/sketch -->
    <title>Shape</title>
    <desc>Created with Sketch.</desc>
    <g id="Page-1" stroke="none" stroke-width="1" fill="none" fill-rule="evenodd">
        <g id="Artboard-Copy" transform="translate(-440.000000, -6032.000000)" fill="#FFFFFF" fill-rule="nonzero">
            <g id="Бонусная-программа" transform="translate(0.000000, 5538.000000)">
                <g id="Group-66" transform="translate(441.000000, 151.000000)">
                    <g id="Group-61" transform="translate(0.000000, 51.000000)">
                        <g id="Group-62" transform="translate(0.000000, 289.000000)">
                            <g id="Vector" transform="translate(0.000000, 4.000000)">
                                <path d="M12.3928932,7.09338322 C13.4819811,6.00429534 14,4.94753678 14,4.00049 C14,2.9308211 13.7782945,2.26570451 13.2928932,1.70759678 C12.8261625,1.24086607 12.1050343,1.00049 11.1,1.00049 C10.9919726,1.00049 10.8903988,1.01274891 10.7595291,1.04079241 C10.6620782,1.06167475 10.1897135,1.18383803 10.2425356,1.1706325 C10.0537275,1.21783454 9.91349058,1.29334671 9.5547002,1.53254029 C9.15677028,1.7978269 8.99719579,1.91750777 8.80710678,2.10759678 L8.20710678,2.70759678 C7.81658249,3.09812107 7.18341751,3.09812107 6.79289322,2.70759678 L6.19289322,2.10759678 C6.09158252,2.00628608 5.93388691,1.89159837 5.5452998,1.63254029 C5.18650942,1.39334671 5.04627255,1.31783454 4.85746437,1.2706325 C4.35041053,1.14386904 4.13351534,1.10049 4,1.10049 C2.99496569,1.10049 2.2738375,1.34086607 1.80710678,1.80759678 C1.28901619,2.32568737 1,3.07712947 1,4.00049 C1,4.1249448 1.03769128,4.32184688 1.14547496,4.75867029 C1.1821005,4.83673126 1.21771509,4.91798577 1.25656938,5.01063832 C1.26920176,5.04076169 1.34908629,5.23476699 1.36914503,5.2815707 C1.41237987,5.382452 1.43344547,5.41972191 1.40710678,5.39338322 L1.53205029,5.5457898 C1.5995289,5.64700772 1.64907981,5.72752793 1.75749293,5.90821647 C1.90820078,6.15939623 1.97836277,6.2646392 2.00710678,6.29338322 C2.23889366,6.5251701 2.36692422,6.71352292 2.52749769,7.02186852 C2.55011461,7.04009687 2.57201041,7.05937006 2.59310944,7.07965763 L7.49987738,11.797964 L12.3928932,7.09338322 Z M2.37823438,6.92225562 L2.37011559,6.93037441 C2.44619313,6.97741871 2.51172427,7.0344889 2.56602842,7.0968761 C2.55686356,7.07881302 2.54782971,7.06115226 2.53890416,7.0438666 C2.53017052,7.03256038 2.52094409,7.02092078 2.51126889,7.00906327 C2.46913685,6.97652037 2.42463606,6.94752168 2.37823438,6.92225562 Z M7.49908246,0.589724758 C7.76248409,0.339282145 8.00182246,0.164091268 8.4452998,-0.131560294 C8.98650942,-0.492366708 9.27960588,-0.650187876 9.75746437,-0.7696525 C9.66028651,-0.745358034 10.1948663,-0.883611417 10.3404709,-0.914812414 C10.6010486,-0.970650493 10.8401702,-0.99951 11.1,-0.99951 C12.5949657,-0.99951 13.8238375,-0.589886065 14.7525767,0.341985392 C15.6217055,1.33527549 16,2.4701589 16,4.00049 C16,5.52944322 15.244942,7.06976158 13.7931094,8.52132237 L8.60710678,13.5076068 C8.28630383,13.8284097 7.99948672,14.0005 7.5,14.0005 C7.00439618,14.0005 6.71816833,13.8310749 6.40036873,13.5150614 L1.35284536,8.6616638 C1.19535643,8.57152013 1.06815284,8.44299489 0.967949706,8.2926902 C0.920681025,8.22145066 0.937390576,8.2464512 0.968945437,8.2820104 C0.905287763,8.21524221 0.849181392,8.13492076 0.805572809,8.0477036 C0.700494673,7.83754732 0.663246193,7.77794976 0.592893219,7.70759678 C0.399415012,7.51411857 0.291799215,7.35269488 0.0425070743,6.93720798 C-0.0214723533,6.8305756 -0.0599546532,6.76723829 -0.0922152173,6.71643192 C-0.246936369,6.53839451 -0.35197465,6.34280685 -0.46914503,6.0694093 C-0.495961295,6.00683801 -0.580139259,5.80240581 -0.587819382,5.78409168 C-0.628637658,5.68675579 -0.661404439,5.6137491 -0.694427191,5.5477036 L-0.7701425,5.34302563 C-0.943379038,4.65007947 -1,4.36697466 -1,4.00049 C-1,2.56385053 -0.514016193,1.30029263 0.392893219,0.393383219 C1.2761625,-0.489886065 2.50503431,-0.89951 4,-0.89951 C4.36648466,-0.89951 4.64958947,-0.842889038 5.34253563,-0.6696525 C5.82039412,-0.550187876 6.11349058,-0.392366708 6.6547002,-0.0315602943 C7.08641693,0.256250859 7.30260934,0.409404331 7.49908246,0.589724758 Z" id="Shape"></path>
                            </g>
                        </g>
                    </g>
                </g>
            </g>
        </g>
    </g>
</svg>