<?xml version="1.0" encoding="UTF-8"?>
<svg width="22px" height="22px" viewBox="0 0 22 22" version="1.1" xmlns="http://www.w3.org/2000/svg" xmlns:xlink="http://www.w3.org/1999/xlink">
    <!-- Generator: Sketch 52.2 (67145) - http://www.bohemiancoding.com/sketch -->
    <title>Path</title>
    <desc>Created with Sketch.</desc>
    <g id="Page-1" stroke="none" stroke-width="1" fill="none" fill-rule="evenodd">
        <g id="Страница-работы" transform="translate(-1022.000000, -1837.000000)" fill="#FF345F" fill-rule="nonzero">
            <g id="Group-22" transform="translate(150.000000, 1443.000000)">
                <g id="Комментарий" transform="translate(0.000000, 259.000000)">
                    <g id="Group-32" transform="translate(873.000000, 135.000000)">
                        <g id="Vector-1" transform="translate(0.000000, 1.000000)">
                            <path d="M14.795091,14.4828492 C14.9631064,14.7615036 15.1284476,15.0435495 15.2880602,15.3253436 C15.450637,15.6123709 15.603105,15.8919682 15.7437106,16.1621751 C16.549175,17.7100654 16.9179804,18.7674305 16.6583843,19.6617154 C16.2296178,20.7865089 15.0602641,21.2917966 13.9461498,20.8239311 C13.8534031,20.7833817 13.7627155,20.7364144 13.6734629,20.6832195 C13.08936,20.335092 10.9176928,17.8494546 10.8474243,17.7771493 C9.25197746,16.1354591 7.31308856,14.6612131 4.54643376,13.1842501 C4.40891111,13.1040813 4.27454777,13.0229253 4.0895209,12.9091435 C3.94455433,12.8198131 3.94455433,12.8198131 3.80442062,12.7336345 C3.69953121,12.6693312 3.61413792,12.6176768 3.53321768,12.5697783 C2.84423706,12.161955 2.40128103,11.9955434 1.95115231,11.9955434 L0.459091946,11.9955434 C0.0130452238,11.9955434 -0.342845648,11.7864214 -0.596592115,11.4669067 C-0.721149788,11.310065 -0.782075103,11.1972426 -0.902764576,10.9439404 C-0.966780543,10.8095841 -1,10.662633 -1,10.5138053 L-1,2.92645748 C-1,2.25862593 -0.471309252,1.56515007 0.344322806,1.56515007 L3.39597875,1.56515007 L3.97255729,1.21948892 C7.36498378,-0.758125508 11.1745875,-1.45768438 14.9782296,-0.68097104 L15.6998117,-0.460915707 C17.0954549,-0.168038284 17.893313,1.13044561 17.7621931,2.42526746 C19.0671239,2.98809959 19.6365329,4.53576806 19.1971521,5.81196984 C20.4015287,6.68857706 20.635515,8.39855391 19.682485,9.60236801 C20.1865406,10.111077 20.5115077,10.7948517 20.5115077,11.4772815 C20.5115077,12.8645857 19.3916974,14.1633571 18.1166584,14.1586269 L14.795091,14.4828492 Z M0.969595668,10.2230997 C0.974596784,10.229397 0.954213241,10.1916505 0.902764576,10.0836703 L0.846472165,10.1104917 C0.896175044,10.1441855 0.937641573,10.1828634 0.969595668,10.2230997 Z M1,9.99554343 L1.95115231,9.99554343 C2.83960877,9.99554343 3.58156061,10.2742829 4.55196912,10.8486898 C4.64301418,10.9025815 4.73674798,10.959281 4.84973669,11.0285496 C4.99498037,11.1178698 4.99498037,11.1178698 5.13717544,11.2054944 C5.30995907,11.3117473 5.43244124,11.385727 5.52079727,11.4380549 C8.44019505,12.9957108 10.5444903,14.5957245 12.281694,16.3832805 C12.6110653,16.7221985 14.4331588,18.8077224 14.6974017,18.9652121 C14.7165271,18.976611 14.7331099,18.9851992 14.733849,18.9856398 C14.7891767,19.0088686 14.7624632,19.0204117 14.7625271,19.0305246 C14.7584855,19.0446548 14.7246021,18.8319559 14.6126627,18.5110254 C14.4775856,18.1237594 14.2577741,17.6392962 13.9695405,17.0853871 C13.8404295,16.8372699 13.6992113,16.5783027 13.5478285,16.3110381 C13.2646495,15.811089 12.9600723,15.30653 12.6554311,14.8239819 C12.4730018,14.535016 12.3319647,14.3189286 12.253345,14.2015306 C11.8325872,13.5732388 12.2344968,12.7232866 12.9870863,12.6498254 L18.0195089,12.1633571 C18.2158364,12.1633571 18.5115077,11.8204335 18.5115077,11.4772815 C18.5115077,11.2277541 18.1633382,10.8239398 17.871261,10.7801562 C17.0287421,10.653859 16.7199179,9.59923596 17.3612329,9.03842923 L18.0317868,8.45244478 C18.4199857,8.09600169 18.3286632,7.53699434 17.7844227,7.30456252 L17.3253461,7.06368579 C16.7370992,6.75503359 16.6077582,5.96919397 17.0660526,5.48829194 L17.1808092,5.36787446 C17.4917566,5.04157618 17.3324156,4.37275198 16.8859436,4.2316824 L16.1973287,3.99080567 C15.6004069,3.78200306 15.3447526,3.07849516 15.6683536,2.53517518 C15.9184111,2.11533327 15.7132578,1.58546907 15.2072544,1.47564382 L14.4920186,1.25689883 C11.2706261,0.602651208 7.95861815,1.21083639 4.9904329,2.94105123 L4.18701814,3.42278932 C4.03165905,3.51594468 3.85391371,3.56515007 3.67276634,3.56515007 L1,3.56515007 L1,9.99554343 Z" id="Path"></path>
                        </g>
                    </g>
                </g>
            </g>
        </g>
    </g>
</svg>