<?xml version="1.0" encoding="UTF-8"?>
<svg width="28px" height="27px" viewBox="0 0 28 27" version="1.1" xmlns="http://www.w3.org/2000/svg" xmlns:xlink="http://www.w3.org/1999/xlink">
    <!-- Generator: Sketch 52.2 (67145) - http://www.bohemiancoding.com/sketch -->
    <title>comment</title>
    <desc>Created with Sketch.</desc>
    <g id="Page-1" stroke="none" stroke-width="1" fill="none" fill-rule="evenodd">
        <g id="Мои-работы" transform="translate(-642.000000, -989.000000)" fill="#FFFFFF">
            <g id="Group-3" transform="translate(150.000000, 760.000000)">
                <g id="Категории">
                    <g id="Group-33" transform="translate(290.000000, 0.000000)">
                        <g id="Group-39">
                            <g id="Group-21" transform="translate(33.000000, 227.000000)">
                                <g id="Group-20" transform="translate(170.000000, 1.000000)">
                                    <g id="comment" transform="translate(0.000000, 2.000000)">
                                        <path d="M13.4589201,25.5 C10.6134365,25.5 7.90492787,24.5886243 5.67130108,22.9285381 C5.51913292,22.815443 4.81192522,22.9839806 3.27654922,23.5336902 L3.25033926,23.5430736 C0.967686354,24.3602288 0.260389019,24.5088267 -0.275325068,23.8149561 C-0.766418329,23.1788796 -0.544796964,22.386731 0.413612851,20.0303894 C0.426741338,19.9981158 0.426741338,19.9981158 0.439863411,19.9658693 C1.15537375,18.2076485 1.3929165,17.4485878 1.29351378,17.1926835 C0.717166666,15.7089244 0.417840243,14.1246865 0.417840243,12.5 C0.417840243,5.31993035 6.25689715,-0.5 13.4589201,-0.5 C20.6609431,-0.5 26.5,5.31993035 26.5,12.5 C26.5,19.6800697 20.6609431,25.5 13.4589201,25.5 Z M13.4589201,24.5 C20.1093915,24.5 25.5,19.1270491 25.5,12.5 C25.5,5.87295091 20.1093915,0.5 13.4589201,0.5 C6.80844876,0.5 1.41784024,5.87295091 1.41784024,12.5 C1.41784024,14.0003234 1.69397721,15.4618271 2.22566063,16.8306031 C2.47335114,17.4682623 2.26512685,18.1336368 1.36610329,20.3428039 C1.35300629,20.3749888 1.35300629,20.3749888 1.33992225,20.4071531 C0.629578141,22.1536016 0.383751327,23.0322685 0.516213005,23.2038363 C0.603673678,23.3171176 1.35609099,23.1590403 2.9132999,22.6015831 L2.93947278,22.5922129 C5.04695851,21.8376713 5.67770941,21.6873544 6.26781509,22.1259354 C8.33036516,23.6588733 10.8301017,24.5 13.4589201,24.5 Z" id="Oval" fill-rule="nonzero"></path>
                                        <circle id="Oval" cx="8.5" cy="12.5" r="1.5"></circle>
                                        <circle id="Oval" cx="13.5" cy="12.5" r="1.5"></circle>
                                        <circle id="Oval" cx="18.5" cy="12.5" r="1.5"></circle>
                                    </g>
                                </g>
                            </g>
                        </g>
                    </g>
                </g>
            </g>
        </g>
    </g>
</svg>