<?xml version="1.0" encoding="UTF-8"?>
<svg width="22px" height="22px" viewBox="0 0 22 22" version="1.1" xmlns="http://www.w3.org/2000/svg" xmlns:xlink="http://www.w3.org/1999/xlink">
    <!-- Generator: Sketch 53.2 (72643) - https://sketchapp.com -->
    <title>Path</title>
    <desc>Created with Sketch.</desc>
    <g id="Page-1" stroke="none" stroke-width="1" fill="none" fill-rule="evenodd" stroke-linecap="round" stroke-linejoin="round">
        <g id="Страница-работы" transform="translate(-952.000000, -1836.000000)" fill="#38C7BF" stroke="#2CA69F" stroke-width="2">
            <g id="Group-22" transform="translate(150.000000, 1443.000000)">
                <g id="Комментарий" transform="translate(0.000000, 259.000000)">
                    <g id="Group-31" transform="translate(803.000000, 135.000000)">
                        <g id="Vector">
                            <path d="M0.470585452,9.00445414 L2,9.00445414 C3.17648729,9.00445414 4.11765819,8.28185247 5.17648729,7.67966866 C12.1176897,4.06664454 13.2941612,0.694471891 14.7059334,0.0923038287 C15.2941455,-0.148569696 15.8823576,0.0923038287 16.1176424,0.694471891 C16.4705697,1.89882376 13.4118037,6.35489892 13.4118037,6.35489892 L18.4706485,6.83663337 C19.2941455,6.83663337 20,7.67966866 20,8.52271969 C20,9.24532137 19.2941455,10.0883724 18.4706485,10.208806 L19.1765031,10.8109741 C20.1176424,11.6540094 19.8823576,13.0992285 18.7059334,13.5809629 L18.2353637,13.8218301 L18.3530061,13.9422637 C19.1765031,14.7852833 18.8235758,16.3509045 17.6471516,16.7121896 L16.9412971,16.9531513 C17.5295092,17.9166832 17.0589395,19.2413427 15.8823576,19.4823044 L15.0588606,19.7231086 C11.4118037,20.4456788 7.76473093,19.7231086 4.58824364,17.9166832 L3.76471516,17.4349173 L0.352943032,17.4349173 C0.117642421,17.4349173 0,17.1939555 0,17.0736322 L0,9.48618859 C0.117642421,9.24532137 0.235300611,9.00445414 0.470585452,9.00445414 Z" id="Path"></path>
                        </g>
                    </g>
                </g>
            </g>
        </g>
    </g>
</svg>