<?xml version="1.0" encoding="UTF-8"?>
<svg width="30px" height="30px" viewBox="0 0 30 30" version="1.1" xmlns="http://www.w3.org/2000/svg" xmlns:xlink="http://www.w3.org/1999/xlink">
    <!-- Generator: Sketch 52.2 (67145) - http://www.bohemiancoding.com/sketch -->
    <title>icon-contacts-soc-1</title>
    <desc>Created with Sketch.</desc>
    <g id="Page-1" stroke="none" stroke-width="1" fill="none" fill-rule="evenodd">
        <g id="Контакты" transform="translate(-487.000000, -731.000000)" fill="#7AD06D">
            <g id="Group-11" transform="translate(441.000000, 625.000000)">
                <g id="icon-contacts-soc-1" transform="translate(46.000000, 106.000000)">
                    <path d="M14.1715274,0.017326969 C6.26491647,0.393794749 0.0254892601,6.97847255 0.0494749403,14.8940334 C0.056778043,17.3049165 0.638806683,19.5804773 1.66553699,21.5911217 L0.0891408115,29.2431265 C0.00386634845,29.6570406 0.377183771,30.0194749 0.788377088,29.9221002 L8.28644391,28.1456563 C10.2128162,29.1052267 12.3765394,29.6594749 14.6664916,29.6944153 C22.7478043,29.817852 29.4862053,23.401074 29.7380907,15.3227685 C30.0080907,6.66336516 22.8612172,-0.396515513 14.1715274,0.017326969 Z M23.1183294,23.0689976 C20.9224582,25.2648687 18.002864,26.4741766 14.8974702,26.4741766 C13.0791408,26.4741766 11.3382816,26.0662053 9.72307876,25.2616468 L8.67887828,24.7414797 L4.08178998,25.8306444 L5.04945107,21.1332458 L4.53501193,20.1258473 C3.69651551,18.4837232 3.27136038,16.7079952 3.27136038,14.8480668 C3.27136038,11.7426014 4.48066826,8.82307876 6.67653938,6.62713604 C8.85279236,4.45088305 11.82,3.22188544 14.897685,3.22188544 C18.0030788,3.22195704 20.9225298,4.43126492 23.118401,6.62706444 C25.3142721,8.82293556 26.52358,11.7424582 26.5236516,14.847852 C26.52358,17.9256086 25.2945823,20.8928162 23.1183294,23.0689976 Z" id="Shape" fill-rule="nonzero"></path>
                    <path d="M22.1034845,18.0680907 L19.2274224,17.2422673 C18.8493079,17.1337232 18.4421241,17.2409785 18.166611,17.5217184 L17.4632936,18.2382816 C17.1667303,18.5404296 16.7167303,18.6375179 16.3242243,18.4787112 C14.9636993,17.9281146 12.1017422,15.3834845 11.3708592,14.1106683 C11.16,13.7435084 11.1948687,13.2844869 11.4537709,12.9494749 L12.0678043,12.1550835 C12.3083771,11.8438425 12.3591408,11.4258473 12.2000477,11.0660621 L10.9900239,8.32933174 C10.7001909,7.67384248 9.8625537,7.48303103 9.3153222,7.94584726 C8.5126253,8.6247494 7.5602148,9.65642005 7.44443914,10.7993556 C7.24031026,12.8144391 8.10451074,15.3546301 11.372506,18.4047494 C15.1479236,21.9284964 18.1712649,22.3940334 20.1397375,21.9171838 C21.256253,21.6467542 22.1485203,20.5626014 22.7116468,19.6749165 C23.0955609,19.0696897 22.7924105,18.2659189 22.1034845,18.0680907 Z" id="Path"></path>
                </g>
            </g>
        </g>
    </g>
</svg>