<?xml version="1.0" encoding="UTF-8"?>
<svg width="21px" height="20px" viewBox="0 0 21 20" version="1.1" xmlns="http://www.w3.org/2000/svg" xmlns:xlink="http://www.w3.org/1999/xlink">
    <!-- Generator: Sketch 52.2 (67145) - http://www.bohemiancoding.com/sketch -->
    <title>house-outline</title>
    <desc>Created with Sketch.</desc>
    <g id="Page-1" stroke="none" stroke-width="1" fill="none" fill-rule="evenodd">
        <g id="Категория" transform="translate(-150.000000, -389.000000)" fill="#A1A1A1">
            <g id="Group-2" transform="translate(150.000000, 389.000000)">
                <g id="house-outline">
                    <path d="M17.4264879,10 C17.0910533,10 16.8312771,10.2611401 16.8312771,10.6015117 L16.8312771,18.8179005 L12.6105044,18.8179005 L12.6105044,15.462814 C12.6105044,15.1480691 12.350762,14.8729229 12.0367561,14.8729229 L8.98494256,14.8729229 C8.64923802,14.8729229 8.3788656,15.1480351 8.3788656,15.462814 L8.3788656,18.8179005 L4.16872292,18.8179005 L4.16872292,10.8743065 C4.16872292,10.5571762 3.90921669,10.2937528 3.57351214,10.2937528 C3.25974245,10.2937528 3,10.5571762 3,10.8743065 L3,19.4194463 C3,19.7365426 3.25974245,20 3.57351214,20 L8.98494256,20 C9.29871226,20 9.55845471,19.7365426 9.55845471,19.4194463 L9.55845471,16.0643257 L11.4415115,16.0643257 L11.4415115,19.4194463 C11.4415115,19.7365426 11.701254,20 12.0367561,20 L17.4264879,20 C17.7402913,20 18,19.7365426 18,19.4194463 L18,10.6015458 C18,10.2611742 17.7402913,10 17.4264879,10 Z" id="Path"></path>
                    <path d="M20.8286367,10.0004089 L16.0526907,5.27324294 L16.0526907,2.05007994 C16.0526907,1.71456066 15.7775275,1.45543873 15.436413,1.45543873 C15.1171222,1.45543873 14.8530424,1.71459448 14.8530424,2.05007994 L14.8530424,4.09089344 L10.9133948,0.185125746 C10.7926785,0.0647973929 10.6492807,0 10.5062946,0 C10.3412448,0 10.1980529,0.0670970916 10.0771307,0.185125746 L0.183952545,9.93561151 C-0.0533967105,10.1693015 -0.0691124773,10.5441524 0.183952545,10.7593433 C0.403938966,11.0092326 0.782867377,10.9930333 1.02021663,10.7593433 L10.5062946,1.43227264 L19.9703088,10.847273 C20.0688926,10.944469 20.2123591,11 20.3994728,11 C20.5645226,11 20.7074743,10.944469 20.8286367,10.847273 C21.048829,10.6297823 21.0652654,10.2364324 20.8286367,10.0004089 Z" id="Path"></path>
                </g>
            </g>
        </g>
    </g>
</svg>