<?xml version="1.0" encoding="UTF-8"?>
<svg width="27px" height="23px" viewBox="0 0 27 23" version="1.1" xmlns="http://www.w3.org/2000/svg" xmlns:xlink="http://www.w3.org/1999/xlink">
    <!-- Generator: Sketch 52.2 (67145) - http://www.bohemiancoding.com/sketch -->
    <title>Shape</title>
    <desc>Created with Sketch.</desc>
    <g id="Page-1" stroke="none" stroke-width="1" fill="none" fill-rule="evenodd">
        <g id="Страница-работы" transform="translate(-741.000000, -1363.000000)" fill="#FF345F" fill-rule="nonzero">
            <g id="Group-29" transform="translate(742.000000, 1357.000000)">
                <g id="Group-30" transform="translate(0.000000, 4.000000)">
                    <path d="M3.50755602,15.2308941 L12.1868867,23.3200529 L12.1813198,23.3145724 C12.3464626,23.4746336 12.3843782,23.496683 12.5,23.496683 C12.6156218,23.496683 12.6535374,23.4746336 12.8131133,23.3200529 L12.8257773,23.3078271 L21.4853468,15.2376393 C23.5010528,13.2839566 24.5,11.3088089 24.5,9.45821649 C24.5,7.47626212 24.0412577,6.14238167 22.9853468,4.97110034 C21.9643868,3.98155521 20.4635907,3.496683 18.5,3.496683 C18.230251,3.496683 17.97971,3.52599029 17.6850096,3.58719725 C17.5660301,3.61190836 17.4435367,3.6407394 17.2719514,3.68368191 C17.3740082,3.65814576 16.9022205,3.7771521 16.7844131,3.80569771 C16.2996038,3.92317065 15.976366,4.09186619 15.2713575,4.54740979 C14.5475059,5.01512894 14.2343895,5.24274035 13.8479865,5.61725369 L12.8479865,6.58648372 C12.6540648,6.77443842 12.3459352,6.77443842 12.1520135,6.58648372 L11.1520135,5.61725369 C10.9072397,5.38001154 10.6144111,5.17359825 9.94305987,4.73620329 L9.89530912,4.70894813 C9.19030063,4.25340453 8.8670629,4.08470899 8.38225357,3.96723605 C7.42737708,3.73586231 7.02684794,3.65822134 6.66666667,3.65822134 C4.70307599,3.65822134 3.20227988,4.14309355 2.18131984,5.13263868 C1.09408491,6.18641942 0.5,7.68351223 0.5,9.45821649 C0.5,9.79099263 0.574796326,10.1641319 0.801725632,11.0529911 C0.872663773,11.1934281 0.939524416,11.3389871 1.01618079,11.5161585 C1.03440695,11.5582835 1.16999952,11.8774473 1.20728974,11.9617805 C1.33346778,12.2471368 1.42566737,12.4052399 1.57862392,12.5671645 C1.67738495,12.7107477 1.75410868,12.8315875 1.92513248,13.1078565 C2.00798197,13.2416849 2.04383924,13.2992462 2.08877298,13.3700168 C2.27127286,13.6574538 2.40330418,13.8374099 2.51465317,13.9453326 C2.82827775,14.249307 2.99086944,14.4939746 3.24463881,14.9806277 C3.29215383,15.0339259 3.33212296,15.0876265 3.36550095,15.1379086 C3.41736111,15.1603848 3.46548167,15.1916827 3.50755602,15.2308941 Z M13.1520135,4.89918575 C13.5989439,4.46600741 13.9524941,4.20900381 14.7286425,3.70749293 C15.523634,3.19380651 15.9226185,2.98557926 16.5489202,2.83382164 C16.4131215,2.86672669 17.2673896,2.65259335 17.4816571,2.60809167 C17.8393689,2.53379773 18.1566538,2.496683 18.5,2.496683 C20.703076,2.496683 22.4522799,3.06180998 23.7044672,4.27701468 C24.9587423,5.66636448 25.5,7.24017409 25.5,9.45821649 C25.5,11.6073133 24.3771524,13.8274405 22.1742227,15.9624525 L13.5202201,24.0271597 L13.5146532,24.0326403 C13.1797959,24.357194 12.9399337,24.496683 12.5,24.496683 C12.0654284,24.496683 11.826081,24.3605736 11.4921835,24.0391428 L2.92712567,16.0569045 C2.78649474,16.0059175 2.67701092,15.9084148 2.58804275,15.7790689 C2.5194278,15.672553 2.50747045,15.6547487 2.48450924,15.631806 L2.48534683,15.6326306 L2.38897672,15.5028284 C2.16217706,15.0631863 2.04720912,14.8848977 1.81868016,14.6634006 C1.63515736,14.4855248 1.46682238,14.2560876 1.24456035,13.9060252 C1.1969015,13.8309625 1.1586847,13.7696136 1.07486752,13.6342114 C0.912557991,13.3720193 0.841133572,13.259526 0.818680162,13.2095555 C0.611832631,13.0090727 0.467668581,12.7618614 0.292710261,12.3661867 C0.251875476,12.2738374 0.114030548,11.9493719 0.0984025431,11.9132518 C0.0213876766,11.7352519 -0.0428892607,11.596445 -0.111023279,11.46437 L-0.15810276,11.3272825 L-0.150820297,11.3600192 C-0.413164618,10.3429312 -0.5,9.92211393 -0.5,9.45821649 C-0.5,7.42061599 0.197581759,5.66271131 1.48534683,4.41457074 C2.71438678,3.22334832 4.46359068,2.65822134 6.66666667,2.65822134 C7.13981873,2.65822134 7.57262292,2.7421187 8.61774643,2.99535997 C9.24404822,3.1471176 9.64303271,3.35534484 10.3902735,3.8417761 L10.4380242,3.86903127 C11.2189223,4.37361117 11.5372048,4.59796678 11.8479865,4.89918575 L12.5,5.53113681 L13.1520135,4.89918575 Z" id="Shape"></path>
                </g>
            </g>
        </g>
    </g>
</svg>