<?xml version="1.0" encoding="UTF-8"?>
<svg width="22px" height="22px" viewBox="0 0 22 22" version="1.1" xmlns="http://www.w3.org/2000/svg" xmlns:xlink="http://www.w3.org/1999/xlink">
    <!-- Generator: Sketch 52.2 (67145) - http://www.bohemiancoding.com/sketch -->
    <title>Path</title>
    <desc>Created with Sketch.</desc>
    <g id="Page-1" stroke="none" stroke-width="1" fill="none" fill-rule="evenodd">
        <g id="Страница-работы" transform="translate(-952.000000, -1836.000000)" fill="#38C7BF" fill-rule="nonzero">
            <g id="Group-22" transform="translate(150.000000, 1443.000000)">
                <g id="Комментарий" transform="translate(0.000000, 259.000000)">
                    <g id="Group-31" transform="translate(803.000000, 135.000000)">
                        <g id="Vector">
                            <path d="M1,10.0044541 L1,16.4349173 L3.76471516,16.4349173 C3.94219187,16.4349173 4.11647128,16.4821499 4.26966054,16.571766 L5.08258466,17.0474151 C8.14409655,18.7884556 11.5507511,19.3987123 14.7781973,18.7633024 L15.6817238,18.5026381 C16.1327166,18.4102756 16.3401506,17.8876166 16.0877737,17.4742059 C15.7543348,16.9280101 16.0126128,16.2135184 16.6182274,16.0067761 L17.3535791,15.7562528 C17.7931595,15.6212557 17.9535634,14.9644266 17.6376584,14.6410324 L17.520016,14.5205988 C17.0492721,14.038686 17.1800401,13.2386219 17.779722,12.9316669 L18.3269838,12.6555456 C18.814204,12.4560336 18.9055122,11.9107611 18.5274843,11.5717465 L17.8216298,10.9695784 C17.1678421,10.4118288 17.475613,9.3436891 18.3259413,9.2193315 C18.64032,9.17335469 19,8.76637648 19,8.52271969 C19,8.18415526 18.6928645,7.83663337 18.3758512,7.83212996 L13.3170063,7.35039551 C12.5581675,7.27813419 12.1559582,6.41743024 12.5873486,5.7889715 C12.6679278,5.67158202 12.812485,5.45550321 12.999467,5.16655027 C13.3117012,4.68403848 13.6238661,4.17952492 13.914085,3.67964796 C14.0692049,3.41246749 14.2139047,3.15359099 14.3461915,2.90557628 C14.6414005,2.35211096 14.8664917,1.86812988 15.0046814,1.48163583 C15.1153302,1.17216916 15.1504661,0.965998097 15.1837356,1.05147732 C15.1571579,0.983443363 15.1608889,0.986593164 15.0982684,1.01212621 C15.0822582,1.01895508 15.0639845,1.02818822 15.0432317,1.04025535 C14.7686363,1.19992452 12.8974542,3.28934093 12.5625343,3.62555152 C10.7831021,5.41184086 8.62802932,7.01043677 5.67085435,8.5489219 C5.54634742,8.61973225 5.42063592,8.69380914 5.24338262,8.8001497 C5.09756686,8.88781208 5.09756686,8.88781208 4.94874292,8.97709993 C4.8330307,9.04630662 4.73706384,9.10293976 4.64388192,9.15674948 C3.65474311,9.72794702 2.90029908,10.0044541 2,10.0044541 L1,10.0044541 Z M0.898553409,9.92505278 C0.951164622,9.81733383 0.97181012,9.78003795 0.966697053,9.78631887 C0.934263347,9.82616061 0.892078753,9.86431105 0.841630705,9.89725105 L0.898553409,9.92505278 Z M0.352943032,18.4349173 C-0.460861122,18.4349173 -1,17.744937 -1,17.0736322 L-1,9.48618859 C-1,9.33408919 -0.965304386,9.18399384 -0.898553409,9.04732441 C-0.774730548,8.79380303 -0.712011349,8.68050143 -0.584343416,8.52367345 C-0.327926341,8.20868932 0.0283383143,8.00445414 0.470585452,8.00445414 L2,8.00445414 C2.47182203,8.00445414 2.93196182,7.83581084 3.64372699,7.42478814 C3.72683832,7.37679387 3.81450631,7.32505816 3.92215906,7.26067179 C4.06589663,7.17443461 4.06589663,7.17443461 4.21447231,7.08511513 C4.40390174,6.97146967 4.54143057,6.8904293 4.71477257,6.79264018 C7.5196331,5.33265845 9.50896326,3.85700758 11.1456037,2.21406021 C11.2204761,2.13889931 13.4429134,-0.342738987 14.0378934,-0.688702418 C14.1282469,-0.741240314 14.2199437,-0.787571731 14.3269753,-0.833110032 C15.4339601,-1.28642155 16.6111679,-0.790184432 17.0772865,0.413254599 C17.3179543,1.23452472 16.9392099,2.29381114 16.1108611,3.84682083 C15.9666984,4.11710073 15.8103836,4.39675714 15.6437114,4.68383561 C15.4819603,4.96243777 15.3144751,5.24127965 15.1442782,5.51684449 L18.4706485,5.83663337 C19.8562169,5.83663337 21,7.13081675 21,8.52271969 C21,9.20634006 20.6697203,9.88857922 20.158912,10.3962496 C21.144189,11.608679 20.8867589,13.3609103 19.6600269,14.2033266 C20.101893,15.4898053 19.5084663,17.0432496 18.1840207,17.5824572 C18.3167361,18.8769382 17.5151057,20.167869 16.1630209,20.4421107 L15.2532072,20.7040416 C11.4564051,21.4562799 7.56312379,20.7588505 4.08329826,18.7798345 L3.49369832,18.4349173 L0.352943032,18.4349173 Z" id="Path"></path>
                        </g>
                    </g>
                </g>
            </g>
        </g>
    </g>
</svg>