<?xml version="1.0" encoding="UTF-8"?>
<svg width="27px" height="30px" viewBox="0 0 27 30" version="1.1" xmlns="http://www.w3.org/2000/svg" xmlns:xlink="http://www.w3.org/1999/xlink">
    <!-- Generator: Sketch 52.2 (67145) - http://www.bohemiancoding.com/sketch -->
    <title>icon-contacts-soc-2</title>
    <desc>Created with Sketch.</desc>
    <g id="Page-1" stroke="none" stroke-width="1" fill="none" fill-rule="evenodd">
        <g id="Контакты" transform="translate(-533.000000, -731.000000)">
            <g id="Group-11" transform="translate(441.000000, 625.000000)">
                <g id="icon-contacts-soc-2" transform="translate(92.000000, 106.000000)">
                    <path d="M16.5033333,0 L10.514269,0 C4.73502924,0 0.0333918129,4.70163743 0.0333918129,10.4808772 L0.0333918129,14.9726901 C0.0333918129,19.0300585 2.37339181,22.7121053 6.02245614,24.4440936 L6.02245614,29.4462573 C6.02245614,29.8805848 6.56578947,30.1076608 6.87444444,29.7991813 L11.22,25.4535673 L16.5032749,25.4535673 C22.2824561,25.4535673 26.984152,20.7519298 26.984152,14.9726901 L26.984152,10.4808772 C26.984152,4.70163743 22.2824561,0 16.5033333,0 Z" id="Path" fill="#665CAC"></path>
                    <path d="M7.5197076,24.4440351 C3.87064327,22.7119883 1.53064327,19.03 1.53064327,14.9726316 L1.53064327,10.4808187 C1.53064327,4.70163743 6.23233918,0 12.0115205,0 L10.514269,0 C4.73502924,0 0.0333918129,4.70163743 0.0333918129,10.4808772 L0.0333918129,14.9726901 C0.0333918129,19.0300585 2.37339181,22.7121053 6.02245614,24.4440936 L6.02245614,29.4462573 C6.02245614,29.8805848 6.56578947,30.1076608 6.87444444,29.7991813 L7.5197076,29.1539181 L7.5197076,24.4440351 Z" id="Path" fill="#523494"></path>
                    <path d="M21.0438596,18.6023977 L20.5951462,16.1716374 C20.5580117,15.9708187 20.4024561,15.8128655 20.2022222,15.772807 L16.6731579,15.0670175 C16.5092398,15.034386 16.3403509,15.0855556 16.2222807,15.2035088 L14.788538,16.6373099 C12.3728655,15.5549123 11.0321637,14.2112865 9.85251462,11.6919298 L11.2816374,10.2628655 C11.3995906,10.1448538 11.4508187,9.97561404 11.4181287,9.8119883 L10.7123392,6.2828655 C10.6722807,6.08269006 10.5143275,5.92701754 10.3135088,5.88994152 L7.88274854,5.44128655 C7.81619883,5.42906433 7.74766082,5.43035088 7.68157895,5.44538012 C7.03976608,5.59116959 6.45415205,5.9145614 5.9880117,6.38081871 C5.18087719,7.18795322 4.87239766,8.36573099 5.09602339,9.78684211 C5.47140351,12.1731579 6.64052632,15.4940936 8.79754386,17.6597661 L8.82701754,17.6890058 C10.9909942,19.8445029 14.3119883,21.0137427 16.6984211,21.3891813 C16.9990643,21.4365497 17.2885965,21.46 17.5662573,21.46 C18.6010526,21.46 19.4680117,21.1335673 20.1045614,20.4971345 C20.5707018,20.0309357 20.8942105,19.4453216 21.0399415,18.8036257 C21.0547368,18.7374854 21.0561404,18.6690643 21.0438596,18.6023977 Z" id="Path" fill="#FFFFFF"></path>
                    <g id="Group" transform="translate(4.970760, 5.906433)" fill="#E5E5E5">
                        <polygon id="Path" points="5.8228655 4.84438596 6.31081871 4.35637427 6.31134503 4.35584795 5.82280702 4.84432749"></polygon>
                        <polygon id="Rectangle" transform="translate(11.005221, 9.545815) rotate(-45.000000) translate(-11.005221, -9.545815) " points="10.6568031 9.542891 11.3536386 9.542891 11.3536386 9.54873895 10.6568031 9.54873895"></polygon>
                        <path d="M13.5364327,14.6123392 C13.2587719,14.6123392 12.9692398,14.5888889 12.6685965,14.5415205 C10.2822222,14.1660819 6.96122807,12.9968421 4.79719298,10.841345 L4.7677193,10.8121053 C2.61070175,8.64643275 1.44157895,5.32549708 1.06619883,2.93918129 C0.885555556,1.79105263 1.0525731,0.801871345 1.54900585,0.0385380117 C1.35888889,0.165380117 1.18046784,0.310877193 1.01701754,0.474327485 C0.209883041,1.28146199 -0.0985964912,2.45923977 0.12502924,3.88035088 C0.500409357,6.26666667 1.66953216,9.58760234 3.82654971,11.7532749 L3.85602339,11.7825146 C6.02,13.9380117 9.34099415,15.1072515 11.7274269,15.4826901 C12.0280702,15.5300585 12.3176023,15.5535088 12.5952632,15.5535088 C13.6300585,15.5535088 14.4970175,15.2271345 15.1335673,14.5906433 C15.2969591,14.427193 15.4424561,14.2488304 15.5692982,14.0587135 C15.005731,14.4252632 14.3191813,14.6123392 13.5364327,14.6123392 Z" id="Path"></path>
                    </g>
                    <g id="Group" transform="translate(13.450292, 4.444444)" fill="#FFFFFF">
                        <path d="M1.05666667,4.04005848 C0.781052632,4.04005848 0.557602339,4.26350877 0.557602339,4.53912281 C0.557602339,4.81473684 0.781052632,5.03818713 1.05666667,5.03818713 C2.15748538,5.03818713 3.05304094,5.93374269 3.05304094,7.0345614 C3.05304094,7.30649123 3.28017544,7.53362573 3.55210526,7.53362573 C3.82403509,7.53362573 4.05116959,7.30649123 4.05116959,7.0345614 C4.05122807,5.38333333 2.70789474,4.04005848 1.05666667,4.04005848 Z" id="Path"></path>
                        <path d="M1.05666667,2.04368421 C0.872046784,2.04368421 0.685730994,2.05391813 0.502807018,2.07409357 C0.228830409,2.10432749 0.0312280702,2.35093567 0.0614619883,2.62497076 C0.0916959064,2.89900585 0.338830409,3.09608187 0.612339181,3.06631579 C0.759005848,3.05011696 0.908479532,3.04187135 1.05666667,3.04187135 C3.25824561,3.04187135 5.04935673,4.83298246 5.04935673,7.0345614 C5.04935673,7.18280702 5.04111111,7.3322807 5.02491228,7.47894737 C4.99508772,7.74918129 5.19590643,8.00005848 5.46625731,8.02982456 C5.73654971,8.05959064 5.98725146,7.85883041 6.0171345,7.58847953 C6.03730994,7.40555556 6.04754386,7.21923977 6.04754386,7.0345614 C6.04754386,4.28263158 3.80865497,2.04368421 1.05666667,2.04368421 Z" id="Path"></path>
                        <path d="M1.05666667,0.0473684211 C0.878304094,0.0473684211 0.697660819,0.0541520468 0.519883041,0.0676608187 C0.24502924,0.0884795322 0.0390643275,0.328245614 0.0598830409,0.603040936 C0.0806432749,0.877894737 0.32122807,1.08385965 0.595263158,1.06304094 C0.748070175,1.05140351 0.903333333,1.04555556 1.05666667,1.04555556 C4.35906433,1.04555556 7.04573099,3.73222222 7.04573099,7.03461988 C7.04573099,7.50187135 6.99181287,7.96701754 6.88549708,8.41707602 C6.82450292,8.67497076 6.98333333,8.94304094 7.23906433,9.01309942 C7.50812865,9.08678363 7.79280702,8.91807018 7.85690058,8.64666667 C7.98099415,8.12146199 8.04391813,7.57912281 8.04391813,7.03461988 C8.04391813,3.18181287 4.90947368,0.0473684211 1.05666667,0.0473684211 Z" id="Path"></path>
                    </g>
                </g>
            </g>
        </g>
    </g>
</svg>