<?xml version="1.0" encoding="UTF-8"?>
<svg width="24px" height="25px" viewBox="0 0 24 25" version="1.1" xmlns="http://www.w3.org/2000/svg" xmlns:xlink="http://www.w3.org/1999/xlink">
    <!-- Generator: Sketch 52.2 (67145) - http://www.bohemiancoding.com/sketch -->
    <title>Group</title>
    <desc>Created with Sketch.</desc>
    <g id="Symbols" stroke="none" stroke-width="1" fill="none" fill-rule="evenodd">
        <g id="Шапка" transform="translate(-1026.000000, -9.000000)" fill="#777777" fill-rule="nonzero">
            <g id="Верхняя-панель">
                <g>
                    <g id="Купить-оптом" transform="translate(1027.000000, 10.000000)">
                        <g id="Group">
                            <path d="M7.21204206,14.8432525 L8.69595254,14.8432525 L8.69595254,16.1153221 C8.69595254,16.1772142 8.71575435,16.2278797 8.75559566,16.2674833 C8.79532726,16.3073429 8.84612081,16.3272727 8.9079946,16.3272727 L10.0142263,16.3272727 C10.0716387,16.3272727 10.121317,16.3073429 10.1632792,16.2674833 C10.2052415,16.2278797 10.2261587,16.1771959 10.2261587,16.1153221 L10.2261587,14.8432525 L13.5715121,14.8432525 C13.6332579,14.8432525 13.6840698,14.8235787 13.7238928,14.7837191 C13.7637524,14.7438961 13.7835359,14.693194 13.7835359,14.6313019 L13.7835359,13.7833348 C13.7835359,13.7218084 13.7637524,13.6707771 13.7238928,13.6311735 C13.6841795,13.5913139 13.6332579,13.5713841 13.5715121,13.5713841 L10.226049,13.5713841 L10.226049,12.7896607 L12.4783719,12.7896607 C13.361591,12.7896607 14.0824463,12.5205353 14.6412668,11.9815166 C15.1998679,11.4430647 15.4793056,10.7475148 15.4793056,9.89483036 C15.4793056,9.04271271 15.1998679,8.34714453 14.6412668,7.8081441 C14.082556,7.26967392 13.3615727,7 12.4783719,7 L8.9078849,7 C8.84599282,7 8.79530898,7.01991151 8.75548595,7.05953341 C8.71575435,7.09937472 8.69584284,7.15038768 8.69584284,7.21193236 L8.69584284,11.3788323 L7.21204206,11.3788323 C7.15016827,11.3788323 7.09946614,11.3997677 7.05964312,11.4417117 C7.0199298,11.483674 7,11.5333522 7,11.5907463 L7,12.5776918 C7,12.6395839 7.01980181,12.690286 7.05964312,12.730109 C7.09948442,12.7699686 7.15005857,12.7896424 7.21204206,12.7896424 L8.69595254,12.7896424 L8.69595254,13.5713658 L7.21204206,13.5713658 C7.15016827,13.5713658 7.09946614,13.5912956 7.05964312,13.6311552 C7.0199298,13.6707589 7,13.7216804 7,13.7833165 L7,14.6312836 C7,14.6931757 7.01980181,14.7438778 7.05964312,14.7837009 C7.09946614,14.8235787 7.15014999,14.8432525 7.21204206,14.8432525 Z M10.226049,8.41115758 L12.3458845,8.41115758 C12.8139604,8.41115758 13.191493,8.54801494 13.4786466,8.82182109 C13.7656539,9.09564552 13.9092216,9.45348593 13.9092216,9.89494007 C13.9092216,10.3366136 13.7656539,10.6945637 13.4786466,10.968059 C13.191493,11.2421029 12.8139422,11.3789602 12.3458845,11.3789602 L10.226049,11.3789602 L10.226049,8.41115758 Z" id="Shape"></path>
                            <path d="M11,23.25 C4.51065419,23.25 -0.75,17.9893458 -0.75,11.5 C-0.75,5.01065419 4.51065419,-0.25 11,-0.25 C17.4893458,-0.25 22.75,5.01065419 22.75,11.5 C22.75,17.9893458 17.4893458,23.25 11,23.25 Z M11,21.75 C16.6609187,21.75 21.25,17.1609187 21.25,11.5 C21.25,5.83908131 16.6609187,1.25 11,1.25 C5.33908131,1.25 0.75,5.83908131 0.75,11.5 C0.75,17.1609187 5.33908131,21.75 11,21.75 Z" id="Oval-2"></path>
                        </g>
                    </g>
                </g>
            </g>
        </g>
    </g>
</svg>