<?xml version="1.0" encoding="UTF-8"?>
<svg width="20px" height="17px" viewBox="0 0 20 17" version="1.1" xmlns="http://www.w3.org/2000/svg" xmlns:xlink="http://www.w3.org/1999/xlink">
    <!-- Generator: Sketch 52.2 (67145) - http://www.bohemiancoding.com/sketch -->
    <title>Path</title>
    <desc>Created with Sketch.</desc>
    <g id="Page-1" stroke="none" stroke-width="1" fill="none" fill-rule="evenodd">
        <g id="Страница-работы" transform="translate(-992.000000, -1381.000000)" fill="#282828">
            <g id="twitter" transform="translate(984.000000, 1371.000000)">
                <path d="M28,11.9365359 C27.2638889,12.2627124 26.4740523,12.4839216 25.644183,12.5826797 C26.4915359,12.0752614 27.1401634,11.2704248 27.4475817,10.3143464 C26.6527451,10.7842484 25.7753922,11.1254575 24.8405556,11.3104248 C24.0919608,10.5118301 23.0271569,10.0144118 21.8461111,10.0144118 C19.5802941,10.0144118 17.7431373,11.8515686 17.7431373,14.1161438 C17.7431373,14.4373203 17.7793791,14.7510131 17.8493791,15.0509804 C14.4400327,14.8797386 11.4168627,13.2463072 9.39349673,10.7642484 C9.03980392,11.3691503 8.83859477,12.0739869 8.83859477,12.8263725 C8.83859477,14.2498693 9.56346405,15.5058824 10.663268,16.240719 C9.99088235,16.2182353 9.35849673,16.033268 8.80486928,15.725817 L8.80486928,15.7770588 C8.80486928,17.764183 10.2196078,19.4226144 12.0954902,19.8000654 C11.7517974,19.892549 11.3893791,19.9437908 11.0144444,19.9437908 C10.7495098,19.9437908 10.4933007,19.917549 10.2420915,19.867549 C10.7644771,21.4984967 12.2792157,22.6845098 14.0738889,22.7170261 C12.6703922,23.8168301 10.900719,24.4704575 8.97859477,24.4704575 C8.6474183,24.4704575 8.32120915,24.4504575 8.00003268,24.4142157 C9.81594771,25.5802614 11.9717974,26.2601307 14.2888562,26.2601307 C21.8361765,26.2601307 25.9616667,20.0087908 25.9616667,14.5873203 L25.9479085,14.0561765 C26.7539869,13.4812418 27.4513399,12.7588889 28,11.9365359 Z" id="Path"></path>
            </g>
        </g>
    </g>
</svg>