<?xml version="1.0" encoding="UTF-8"?>
<svg width="17px" height="15px" viewBox="0 0 17 15" version="1.1" xmlns="http://www.w3.org/2000/svg" xmlns:xlink="http://www.w3.org/1999/xlink">
    <!-- Generator: Sketch 52.2 (67145) - http://www.bohemiancoding.com/sketch -->
    <title>Shape</title>
    <desc>Created with Sketch.</desc>
    <g id="Page-1" stroke="none" stroke-width="1" fill="none" fill-rule="evenodd">
        <g id="Artboard-Copy" transform="translate(-440.000000, -6032.000000)" fill="#FFFFFF" fill-rule="nonzero">
            <g id="Бонусная-программа" transform="translate(0.000000, 5538.000000)">
                <g id="Group-66" transform="translate(440.000000, 151.000000)">
                    <g id="Group-61" transform="translate(0.000000, 51.000000)">
                        <g id="Group-62" transform="translate(0.000000, 289.000000)">
                            <g id="Vector" transform="translate(0.000000, 3.000000)">
                                <path d="M8.49908246,1.58972476 C8.76248409,1.33928214 9.00182246,1.16409127 9.4452998,0.868439706 C9.98650942,0.507633292 10.2796059,0.349812124 10.7574644,0.2303475 C10.6602865,0.254641966 11.1948663,0.116388583 11.3404709,0.0851875859 C11.6010486,0.0293495073 11.8401702,0.00049 12.1,0.00049 C13.5949657,0.00049 14.8238375,0.410113935 15.7525767,1.34198539 C16.6217055,2.33527549 17,3.4701589 17,5.00049 C17,6.52944322 16.244942,8.06976158 14.7931094,9.52132237 L9.60710678,14.5076068 C9.28630383,14.8284097 8.99948672,15.0005 8.5,15.0005 C8.00439618,15.0005 7.71816833,14.8310749 7.40036873,14.5150614 L2.35284536,9.6616638 C2.19535643,9.57152013 2.06815284,9.44299489 1.96794971,9.2926902 C1.92068102,9.22145066 1.93739058,9.2464512 1.96894544,9.2820104 C1.90528776,9.21524221 1.84918139,9.13492076 1.80557281,9.0477036 C1.70049467,8.83754732 1.66324619,8.77794976 1.59289322,8.70759678 C1.39941501,8.51411857 1.29179922,8.35269488 1.04250707,7.93720798 C0.978527647,7.8305756 0.940045347,7.76723829 0.907784783,7.71643192 C0.753063631,7.53839451 0.64802535,7.34280685 0.53085497,7.0694093 C0.504038705,7.00683801 0.419860741,6.80240581 0.412180618,6.78409168 C0.371362342,6.68675579 0.338595561,6.6137491 0.305572809,6.5477036 L0.2298575,6.34302563 C0.0566209618,5.65007947 0,5.36697466 0,5.00049 C0,3.56385053 0.485983807,2.30029263 1.39289322,1.39338322 C2.2761625,0.510113935 3.50503431,0.10049 5,0.10049 C5.36648466,0.10049 5.64958947,0.157110962 6.34253563,0.3303475 C6.82039412,0.449812124 7.11349058,0.607633292 7.6547002,0.968439706 C8.08641693,1.25625086 8.30260934,1.40940433 8.49908246,1.58972476 Z" id="Shape"></path>
                            </g>
                        </g>
                    </g>
                </g>
            </g>
        </g>
    </g>
</svg>