<?xml version="1.0" encoding="UTF-8"?>
<svg width="25px" height="21px" viewBox="0 0 25 21" version="1.1" xmlns="http://www.w3.org/2000/svg" xmlns:xlink="http://www.w3.org/1999/xlink">
    <!-- Generator: Sketch 52.2 (67145) - http://www.bohemiancoding.com/sketch -->
    <title>Shape</title>
    <desc>Created with Sketch.</desc>
    <g id="Page-1" stroke="none" stroke-width="1" fill="none" fill-rule="evenodd">
        <g id="Мои-работы" transform="translate(-182.000000, -992.000000)" fill="#FFFFFF" fill-rule="nonzero">
            <g id="Group-3" transform="translate(150.000000, 760.000000)">
                <g id="Категории">
                    <g id="Group-33">
                        <g id="Group-39">
                            <g id="Group-21" transform="translate(32.000000, 227.000000)">
                                <g id="Group" transform="translate(0.000000, 2.000000)">
                                    <path d="M22.1015267,23.3354516 L2.88801791,23.3354516 C1.29530535,23.3354516 0,22.0022231 0,20.3628801 L0,8.3075496 C0,6.66820659 1.29530535,5.33497808 2.88801791,5.33497808 L6.80853535,5.33497808 L7.15170327,4.14343641 C7.29175652,3.49143024 7.87084302,3.01287097 8.55193622,3.01287097 L16.4381327,3.01287097 C17.0999779,3.01287097 17.68573,3.48896344 17.8407623,4.14937215 L17.8498994,4.18999727 L18.1627349,5.33490099 L22.1019761,5.33490099 C23.6946886,5.33490099 24.989994,6.6681295 24.989994,8.30747252 L24.989994,20.3627259 C24.9895446,22.0022231 23.6937899,23.3354516 22.1015267,23.3354516 Z M2.88801791,6.32586095 C1.82615961,6.32586095 0.9626976,7.21467995 0.9626976,8.3075496 L0.9626976,20.362803 C0.9626976,21.4557497 1.8262345,22.3444917 2.88801791,22.3444917 L22.1015267,22.3444917 C23.163385,22.3444917 24.026847,21.4556726 24.026847,20.362803 L24.026847,8.3075496 C24.026847,7.21460287 23.1633101,6.32586095 22.1015267,6.32586095 L17.4335593,6.32586095 L16.9065247,4.39119567 C16.857918,4.16625431 16.6610196,4.00329131 16.4376833,4.00329131 L8.55141196,4.00329131 C8.32470543,4.00329131 8.13215093,4.16278538 8.08257059,4.39173529 L7.52617721,6.32586095 L2.88801791,6.32586095 Z M12.4955213,20.3405247 C9.12667882,20.3405247 6.38590407,17.5200468 6.38590407,14.053036 C6.38590407,10.5855627 9.12660392,7.76508479 12.4955213,7.76508479 C15.863465,7.76508479 18.6037155,10.5860252 18.6037155,14.053036 C18.6036406,17.5195843 15.8633901,20.3405247 12.4955213,20.3405247 Z M12.4955213,8.75542805 C9.65753307,8.75542805 7.34860167,11.1314964 7.34860167,14.0525735 C7.34860167,16.9736506 9.65760797,19.3491793 12.4955213,19.3491793 C15.3329852,19.3491793 17.6410179,16.9731109 17.6410179,14.0525735 C17.640943,11.1314964 15.3324609,8.75542805 12.4955213,8.75542805 Z M21.4801247,8.16486062 C20.9891893,8.16486062 20.5920223,8.57458074 20.5920223,9.07896433 C20.5920223,9.58381044 20.9891144,9.99299096 21.4801247,9.99299096 C21.9706106,9.99299096 22.3677028,9.58373336 22.3677028,9.07896433 C22.3672534,8.57458074 21.9700864,8.16486062 21.4801247,8.16486062 Z" id="Shape"></path>
                                </g>
                            </g>
                        </g>
                    </g>
                </g>
            </g>
        </g>
    </g>
</svg>