<?xml version="1.0" encoding="UTF-8"?>
<svg width="22px" height="22px" viewBox="0 0 22 22" version="1.1" xmlns="http://www.w3.org/2000/svg" xmlns:xlink="http://www.w3.org/1999/xlink">
    <!-- Generator: Sketch 53.2 (72643) - https://sketchapp.com -->
    <title>Path</title>
    <desc>Created with Sketch.</desc>
    <g id="Page-1" stroke="none" stroke-width="1" fill="none" fill-rule="evenodd" stroke-linecap="round" stroke-linejoin="round">
        <g id="Страница-работы" transform="translate(-1022.000000, -1837.000000)" fill="#FF345F" stroke="#D0173E" stroke-width="2">
            <g id="Group-22" transform="translate(150.000000, 1443.000000)">
                <g id="Комментарий" transform="translate(0.000000, 259.000000)">
                    <g id="Group-32" transform="translate(873.000000, 135.000000)">
                        <g id="Vector-1" transform="translate(0.000000, 1.000000)">
                            <path d="M0.459091946,10.9955434 L1.95115231,10.9955434 C3.09888987,10.9955434 4.01708914,11.7181582 5.05005756,12.320327 C11.8217138,15.9333703 12.9694667,19.3055215 14.3467425,19.9076749 C14.9205883,20.1485978 15.494434,19.9076749 15.7239722,19.3055215 C16.0684335,18.1012148 13.0842359,13.6450952 13.0842359,13.6450952 L18.0195089,13.1633571 C18.8228929,13.1633571 19.5115077,12.320327 19.5115077,11.4772815 C19.5115077,10.7546821 18.8228929,9.91163659 18.0195089,9.79120592 L18.7081237,9.18903716 C19.6262769,8.34599167 19.3967386,6.90079281 18.2490472,6.41905473 L17.7899706,6.17817799 L17.9047397,6.05774732 C18.7081237,5.21470183 18.3638163,3.64905691 17.2161249,3.28776488 L16.5275101,3.04688815 C17.1013558,2.08341199 16.6422792,0.758643798 15.494434,0.517767065 L14.69105,0.276905716 C11.1330682,-0.445701407 7.57508634,0.276905716 4.47618109,2.08341199 L3.67276634,2.56515007 L0.344322806,2.56515007 C0.11476914,2.56515007 0,2.8060268 0,2.92645748 L0,10.5138053 C0.11476914,10.7546821 0.229538281,10.9955434 0.459091946,10.9955434 Z" id="Path"></path>
                        </g>
                    </g>
                </g>
            </g>
        </g>
    </g>
</svg>