<?xml version="1.0" encoding="UTF-8"?>
<svg width="151px" height="79px" viewBox="0 0 151 79" version="1.1" xmlns="http://www.w3.org/2000/svg" xmlns:xlink="http://www.w3.org/1999/xlink">
    <!-- Generator: Sketch 52.3 (67297) - http://www.bohemiancoding.com/sketch -->
    <title>Group</title>
    <desc>Created with Sketch.</desc>
    <g id="Page-1" stroke="none" stroke-width="1" fill="none" fill-rule="evenodd">
        <g id="Group" transform="translate(-8.000000, -1.000000)">
            <path d="M73.476,51.832 C71.908,51.832 70.592,49.816 70.592,46.4 C70.592,46.008 70.564,45.588 70.564,45.168 L70.564,44.832 C69.332,47.408 68.24,48.752 67.008,48.752 C64.18,48.752 63.984,44.888 63.788,44.888 C63.704,44.888 63.648,45.392 63.648,46.148 C63.648,47.016 63.732,48.304 63.732,49.256 C63.732,50.824 63.424,52 61.52,52 C60.876,52 60.232,51.888 59.644,51.692 C60.232,49.816 60.82,46.288 60.82,43.208 C60.82,42.2 60.708,40.436 60.568,39.624 C60.848,39.344 61.408,39.26 61.884,39.26 C62.808,39.26 64.152,39.54 64.572,41.276 C65.188,43.74 66,46.624 66.952,46.624 C68.716,46.624 69.556,42.312 70.928,40.296 C71.432,39.512 72.104,39.232 72.72,39.232 C73.28,39.232 73.924,39.456 74.176,39.736 C73.924,41.22 73.812,43.04 73.812,44.692 C73.812,46.372 74.036,49.172 75.436,50.264 C75.324,50.908 74.624,51.832 73.476,51.832 Z M87.168,45.812 C87.168,47.044 87.924,49.256 88.624,49.984 C88.26,50.292 87.644,50.404 87.252,50.404 C85.488,50.404 84.872,48.5 84.732,47.352 C83.948,49.508 81.736,51.048 79.944,51.048 C77.872,51.048 76.36,49.368 76.36,47.072 C76.36,43.208 79.328,39.456 83.192,39.456 C85.32,39.456 87.084,41.108 87.392,42.312 C87.168,43.32 87.168,45.028 87.168,45.812 Z M80.56,48.164 C82.156,48.164 83.976,43.768 84.284,41.976 C84.116,41.528 83.808,41.192 83.36,41.192 C81.848,41.192 79.944,45.056 79.944,46.932 C79.944,47.492 80.14,48.164 80.56,48.164 Z M97.668,47.436 C98.004,47.688 98.312,48.192 98.312,48.612 C98.312,50.852 95.148,51.552 94.056,51.552 C91.284,51.552 90.108,49.984 90.108,48.612 C90.108,45.728 93.664,43.488 93.664,42.312 C93.664,42.144 93.58,41.836 93.104,41.836 C91.788,41.836 91.144,43.292 89.996,43.292 C89.688,43.292 89.24,43.124 89.072,42.424 C90.78,39.988 92.012,39.036 94.196,39.036 C95.876,39.036 97.276,39.988 97.276,41.808 C97.276,44.748 93.916,46.456 93.916,48.276 C93.916,48.92 94.364,48.92 95.036,48.92 C95.456,48.92 96.688,48.416 97.668,47.436 Z M109.904,45.812 C109.904,47.044 110.66,49.256 111.36,49.984 C110.996,50.292 110.38,50.404 109.988,50.404 C108.224,50.404 107.608,48.5 107.468,47.352 C106.684,49.508 104.472,51.048 102.68,51.048 C100.608,51.048 99.096,49.368 99.096,47.072 C99.096,43.208 102.064,39.456 105.928,39.456 C108.056,39.456 109.82,41.108 110.128,42.312 C109.904,43.32 109.904,45.028 109.904,45.812 Z M103.296,48.164 C104.892,48.164 106.712,43.768 107.02,41.976 C106.852,41.528 106.544,41.192 106.096,41.192 C104.584,41.192 102.68,45.056 102.68,46.932 C102.68,47.492 102.876,48.164 103.296,48.164 Z M117.408,44.804 C118.948,45.056 121.552,46.792 121.608,49.956 C121.608,54.548 116.988,59 113.572,59 C112.284,59 111.36,58.328 111.36,56.732 C111.36,54.66 113.74,51.132 117.576,48.08 C116.988,47.044 115.756,46.512 113.936,46.148 C113.572,45.532 113.656,44.692 114.216,44.3 C116.484,42.788 117.212,42.06 117.212,41.528 C117.212,41.304 117.1,41.192 116.876,41.192 C116.148,41.192 115,41.36 113.964,41.36 C112.648,41.36 111.528,41.108 111.528,39.988 C111.528,39.484 111.808,38.812 112.424,37.832 C113.236,38.616 115.308,39.316 116.988,39.316 C118.92,39.316 120.236,40.016 120.236,41.332 C120.236,42.34 119.172,43.768 117.408,44.804 Z M113.712,57.096 C114.664,57.096 118.024,53.512 118.024,50.152 L118.024,50.04 C115.252,52.42 113.32,55.08 113.292,56.564 C113.292,56.9 113.404,57.096 113.712,57.096 Z M133.48,46.904 C133.48,48.556 133.9,49.228 134.908,49.816 C134.824,50.488 134.32,51.328 133.228,51.328 C132.332,51.328 130.54,50.824 130.092,48.248 C129,49.816 127.46,51.328 125.612,51.328 C123.932,51.328 122.952,50.32 122.952,47.828 C122.952,46.876 123.036,44.944 123.036,42.984 C123.036,41.696 122.98,41.052 122.812,40.184 C123.512,40.072 124.212,39.96 124.884,39.96 C126.34,39.96 126.676,40.688 126.676,42.088 C126.676,43.04 126.508,45.308 126.508,46.876 C126.508,47.828 126.648,48.5 127.376,48.5 C127.74,48.5 128.524,48.136 130.036,45.812 C130.12,44.636 130.26,43.404 130.26,42.368 C130.26,41.584 130.204,40.772 130.036,40.212 C130.456,40.156 130.876,40.1 131.24,40.1 C132.808,40.1 133.704,40.688 133.704,43.152 C133.704,43.88 133.48,45.588 133.48,46.904 Z M146.248,46.68 C146.248,48.36 146.444,49.172 147.228,49.732 C147.088,50.376 146.668,51.104 145.52,51.104 C144.512,51.104 142.804,50.544 142.804,46.792 L142.804,46.288 C141.88,46.316 140.648,46.344 139.472,46.456 L139.472,47.044 C139.472,48.108 139.5,49.984 139.948,50.936 C139.192,51.16 138.38,51.272 137.904,51.272 C136.252,51.272 135.972,50.04 135.972,47.688 C135.972,46.708 136.168,44.72 136.168,42.676 C136.168,41.332 136.112,40.716 135.944,39.792 C136.7,39.68 137.12,39.568 137.792,39.568 C139.304,39.568 139.668,40.352 139.668,41.78 C139.668,42.704 139.612,43.6 139.556,44.58 C140.592,44.496 141.74,44.44 142.888,44.412 C142.944,43.6 143,42.788 143,42.06 C143,41.22 142.944,40.436 142.776,39.82 C143.196,39.764 143.644,39.708 144.036,39.708 C145.632,39.708 146.528,40.352 146.528,42.872 C146.528,43.628 146.248,45.28 146.248,46.68 Z" id="магазин" fill="#FF345F"></path>
            <path d="M75.996,10.4 C75.968,11.576 75.436,12.416 73.056,12.948 L73.448,29.72 C73.308,30.112 72.496,30.42 71.88,30.42 C71.04,30.42 70.004,30.252 69.752,28.712 C69.64,27.508 69.808,16 69.92,13.396 C68.38,13.536 66.588,13.62 64.908,13.648 L65.104,29.72 C64.964,30.112 64.208,30.42 63.592,30.42 C62.752,30.42 61.884,30.252 61.66,28.712 C61.576,27.536 61.744,16.476 61.856,13.564 C60.736,13.396 59.98,13.06 59.756,12.64 C59.756,12.64 59.504,12.528 59.504,11.884 C59.504,11.352 59.7,10.96 60.316,10.932 C62.416,10.876 65.44,10.876 69.304,10.148 C72.636,9.532 74.848,8.86 75.492,8.608 C75.744,9 75.996,9.812 75.996,10.4 Z M83.78,25.464 C84.396,25.716 84.452,26.388 84.452,26.864 C84.452,28.376 82.52,29.412 80.728,29.412 C78.376,29.412 75.156,27.648 75.156,23.448 C75.156,20.256 77.088,17.176 80.196,17.176 C82.24,17.176 83.724,18.352 83.724,20.48 C83.724,23.14 81.232,24.82 79.384,25.772 C79.832,26.64 80.476,26.976 81.148,26.976 C82.408,26.976 83.276,25.94 83.78,25.464 Z M80.364,19.416 C79.72,19.416 78.768,20.34 78.768,22.608 C78.768,23.14 78.796,23.616 78.852,24.036 C80.252,23.084 81.596,21.992 81.596,20.368 C81.596,19.472 80.728,19.416 80.364,19.416 Z M95.932,18.464 C96.464,19.08 96.744,20.34 96.744,21.124 C96.744,24.232 94.14,27.536 90.64,27.536 C90.248,27.536 89.744,27.424 89.268,27.284 C89.24,27.956 89.212,28.684 89.212,29.496 C89.212,32.1 89.492,34.788 89.744,36.58 C88.988,36.748 88.4,36.832 87.896,36.832 C86.076,36.832 85.684,35.656 85.88,31.792 C86.076,28.18 86.244,24.092 86.244,22.132 C86.244,20.088 86.3,18.996 85.712,16.868 C86.412,16.252 86.944,15.916 87.532,15.916 C88.428,15.916 89.072,16.672 89.072,18.268 C89.072,19.08 88.932,19.976 88.848,20.2 C89.884,19.024 91.9,17.344 93.692,17.344 C94.7,17.344 95.456,17.904 95.932,18.464 Z M90.36,25.828 C91.872,25.828 94,23.924 94,21.432 C94,20.9 93.776,19.752 93.132,19.752 C91.956,19.752 90.08,20.844 89.436,25.632 C89.716,25.744 90.024,25.828 90.36,25.828 Z M104.92,18.66 C107.692,18.66 108.728,21.068 108.728,22.86 C108.728,25.548 106.656,29.356 102.54,29.356 C102.008,29.356 101.168,29.328 100.468,29.216 C99.236,29.188 98.48,28.432 98.48,28.432 C98.172,27.2 97.808,23.56 97.808,20.396 C97.808,18.072 97.948,16.056 98.144,15.048 C98.928,11.016 101.056,9.616 102.792,9.616 C104.836,9.616 106.124,11.1 106.124,13.06 C106.124,15.44 104.78,17.428 103.408,18.94 C103.884,18.772 104.388,18.66 104.92,18.66 Z M101.504,13.648 C101,15.02 101.056,17.484 101,19.024 C102.484,17.904 103.604,15.384 103.604,12.864 C103.604,11.996 103.38,11.772 102.988,11.772 C102.512,11.772 101.924,12.528 101.504,13.648 Z M102.204,27.368 C103.912,27.368 105.144,25.548 105.144,23.168 C105.144,22.244 105.06,20.592 103.408,20.592 C102.652,20.592 101.784,20.984 100.972,22.188 C101,24.288 101.14,25.912 101.252,27.004 C101.532,27.2 101.84,27.368 102.204,27.368 Z M124.324,25.688 C124.324,27.004 124.772,27.9 125.836,28.32 C125.724,28.964 125.248,29.832 124.128,29.832 C122.196,29.832 120.6,27.732 120.6,24.428 C120.6,22.692 120.908,21.152 120.908,19.668 C120.908,18.8 120.824,18.072 120.46,17.288 C121.02,17.12 121.608,17.036 122.112,17.036 C124.016,17.036 124.604,18.464 124.604,20.312 C124.604,22.048 124.324,24.26 124.324,25.688 Z M115.728,21.264 C117.744,21.264 119.676,22.692 119.676,25.128 C119.676,28.012 117.66,29.916 114.972,29.916 C111.024,29.916 109.932,26.752 109.932,23.756 C109.932,21.796 110.156,20.004 110.156,18.604 C110.156,18.016 110.156,17.568 109.904,17.092 C110.156,17.064 110.296,17.064 110.492,17.064 C113.348,17.064 113.796,18.548 113.796,20.004 C113.796,20.62 113.74,21.32 113.656,22.048 C114.216,21.6 114.916,21.264 115.728,21.264 Z M115.112,28.264 C116.372,28.264 116.792,26.64 116.792,25.352 C116.792,23.812 116.26,22.972 115.392,22.972 C114.748,22.972 113.992,23.476 113.46,24.092 C113.432,24.54 113.432,24.988 113.432,25.408 C113.46,26.64 113.796,28.264 115.112,28.264 Z M132.416,16.784 C131.1,16.784 128.44,16.28 128.44,13.956 C128.44,13.34 128.86,13.032 129.392,13.032 C129.728,13.032 130.064,13.144 130.372,13.284 C131.408,13.76 131.044,14.824 132.36,14.824 C134.292,14.824 133.564,13.172 135.356,13.172 C135.888,13.172 136.616,13.48 136.616,14.124 C136.616,16.168 133.956,16.784 132.416,16.784 Z M137.624,24.596 C137.624,26.248 138.044,26.92 139.052,27.508 C138.968,28.18 138.464,29.02 137.372,29.02 C136.476,29.02 134.684,28.516 134.236,25.94 C133.144,27.508 131.604,29.02 129.756,29.02 C128.076,29.02 127.096,28.012 127.096,25.52 C127.096,24.568 127.18,22.636 127.18,20.676 C127.18,19.388 127.124,18.744 126.956,17.876 C127.656,17.764 128.356,17.652 129.028,17.652 C130.484,17.652 130.82,18.38 130.82,19.78 C130.82,20.732 130.652,23 130.652,24.568 C130.652,25.52 130.792,26.192 131.52,26.192 C131.884,26.192 132.668,25.828 134.18,23.504 C134.264,22.328 134.404,21.096 134.404,20.06 C134.404,19.276 134.348,18.464 134.18,17.904 C134.6,17.848 135.02,17.792 135.384,17.792 C136.952,17.792 137.848,18.38 137.848,20.844 C137.848,21.572 137.624,23.28 137.624,24.596 Z" id="Первый" fill="#FF345F"></path>
            <path d="M59.1575,69.72 C59.1575,69.6033327 59.1633333,69.4983338 59.175,69.405 C59.1866667,69.3116662 59.224583,69.2270837 59.28875,69.15125 C59.352917,69.0754163 59.4462494,69.0141669 59.56875,68.9675 C59.6912506,68.9208331 59.8691655,68.8858335 60.1025,68.8625 C60.2658342,68.6058321 60.411666,68.2354191 60.54,67.75125 C60.668334,67.2670809 60.7791662,66.7625026 60.8725,66.2375 C60.9658338,65.7124974 61.0416664,65.2050024 61.1,64.715 C61.1583336,64.2249975 61.1991666,63.8400014 61.2225,63.56 C61.2575002,63.0699975 61.3858322,62.7462508 61.6075,62.58875 C61.8291678,62.4312492 62.0624988,62.3525 62.3075,62.3525 L62.815,62.3525 C63.0833347,62.3525 63.3779151,62.3554166 63.69875,62.36125 C64.0195849,62.3670834 64.3374984,62.3758333 64.6525,62.3875 C64.9675016,62.3991667 65.2066659,62.4108333 65.37,62.4225 C65.5216674,62.4341667 65.6470828,62.472083 65.74625,62.53625 C65.8454172,62.600417 65.9212497,62.6762496 65.97375,62.76375 C66.0262503,62.8512504 66.0612499,62.9387496 66.07875,63.02625 C66.0962501,63.1137504 66.105,63.1924997 66.105,63.2625 L66.0525,63.4725 C65.9941664,63.600834 65.9416669,63.6883331 65.895,63.735 C65.8366664,64.2600026 65.7900002,64.7762475 65.755,65.28375 C65.7199998,65.7912525 65.7025,66.3308305 65.7025,66.9025 C65.7025,67.1825014 65.7054166,67.4683319 65.71125,67.76 C65.7170834,68.0516681 65.7433331,68.3374986 65.79,68.6175 C65.9766676,68.6291667 66.1254161,68.6787496 66.23625,68.76625 C66.3470839,68.8537504 66.4287497,68.961666 66.48125,69.09 C66.5337503,69.218334 66.5658333,69.3641659 66.5775,69.5275 C66.5891667,69.6908342 66.595,69.8483326 66.595,70 C66.595,70.1983343 66.5775002,70.4170821 66.5425,70.65625 C66.5074998,70.8954179 66.457917,71.1170823 66.39375,71.32125 C66.329583,71.5254177 66.2479172,71.6974993 66.14875,71.8375 C66.0495828,71.9775007 65.9416672,72.0475 65.825,72.0475 C65.6499991,72.0475 65.4837508,72.0212503 65.32625,71.96875 C65.1687492,71.9162497 65.09,71.8083342 65.09,71.645 C65.09,71.5516662 65.0929166,71.4350007 65.09875,71.295 C65.1045834,71.1549993 65.1104166,71.0091674 65.11625,70.8575 C65.1220834,70.7058326 65.1279166,70.5600007 65.13375,70.42 C65.1395834,70.2799993 65.1425,70.1633338 65.1425,70.07 C64.7691648,70.07 64.3637522,70.0758333 63.92625,70.0875 C63.4887478,70.0991667 63.0600021,70.1137499 62.64,70.13125 C62.2199979,70.1487501 61.8320851,70.1662499 61.47625,70.18375 C61.1204149,70.2012501 60.8433343,70.2216666 60.645,70.245 C60.645,70.2800002 60.6537499,70.3645827 60.67125,70.49875 C60.6887501,70.6329173 60.7062499,70.7787492 60.72375,70.93625 C60.7412501,71.0937508 60.7616666,71.2424993 60.785,71.3825 C60.8083334,71.5225007 60.8258333,71.6216664 60.8375,71.68 C60.7674996,71.7733338 60.6887504,71.8491664 60.60125,71.9075 C60.5137496,71.9658336 60.3591678,72.0124998 60.1375,72.0475 C60.0441662,72.0475 59.9304173,72.0358334 59.79625,72.0125 C59.6620827,71.9891665 59.5133341,71.9075007 59.35,71.7675 C59.3266665,71.6624995 59.3033334,71.5108343 59.28,71.3125 C59.2566665,71.1141657 59.2362501,70.9129177 59.21875,70.70875 C59.2012499,70.5045823 59.1866667,70.3120842 59.175,70.13125 C59.1633333,69.9504158 59.1575,69.8133338 59.1575,69.72 Z M62.64,63.8225 C62.6166665,64.160835 62.5787503,64.5399979 62.52625,64.96 C62.4737497,65.3800021 62.4037504,65.8116644 62.31625,66.255 C62.2287496,66.6983355 62.1325005,67.1358312 62.0275,67.5675 C61.9224995,67.9991688 61.805834,68.384165 61.6775,68.7225 C61.8525009,68.7108333 62.0537489,68.6991667 62.28125,68.6875 C62.5087511,68.6758333 62.7449988,68.6670834 62.99,68.66125 C63.2350012,68.6554166 63.4741655,68.6525 63.7075,68.6525 L64.3025,68.6525 C64.2441664,68.314165 64.2120834,67.9612518 64.20625,67.59375 C64.2004166,67.2262482 64.1975,66.8558352 64.1975,66.4825 L64.1975,65.7825 C64.1975,65.5724989 64.2004166,65.3683343 64.20625,65.17 C64.2120834,64.9716657 64.2179166,64.7645844 64.22375,64.54875 C64.2295834,64.3329156 64.2383333,64.0908347 64.25,63.8225 L62.64,63.8225 Z M69.255,63.5075 C69.255,63.3441658 69.2899996,63.2100005 69.36,63.105 C69.4300004,62.9999995 69.5816655,62.9125004 69.815,62.8425 C69.9783341,62.7841664 70.1299993,62.7141671 70.27,62.6325 C70.4100007,62.5508329 70.5908322,62.51 70.8125,62.51 C70.8941671,62.51 70.9641664,62.5216665 71.0225,62.545 C71.0341667,62.545 71.0983327,62.5420834 71.215,62.53625 C71.3316673,62.5304166 71.4716658,62.5187501 71.635,62.50125 C71.7983342,62.4837499 71.9704158,62.4662501 72.15125,62.44875 C72.3320842,62.4312499 72.4983326,62.4108334 72.65,62.3875 C72.7433338,62.3758333 72.8570827,62.3612501 72.99125,62.34375 C73.1254173,62.3262499 73.2537494,62.3087501 73.37625,62.29125 C73.4987506,62.2737499 73.6066662,62.2591667 73.7,62.2475 C73.7933338,62.2358333 73.8574998,62.23 73.8925,62.23 C73.9625003,62.23 74.0499995,62.2591664 74.155,62.3175 C74.2600005,62.3758336 74.3562496,62.4458329 74.44375,62.5275 C74.5312504,62.6091671 74.607083,62.6966662 74.67125,62.79 C74.735417,62.8833338 74.7675,62.9708329 74.7675,63.0525 C74.7675,63.1108336 74.7558334,63.1604165 74.7325,63.20125 C74.7091666,63.2420835 74.6829168,63.2887497 74.65375,63.34125 C74.6245832,63.3937503 74.5954168,63.4549996 74.56625,63.525 C74.5370832,63.5950003 74.5108335,63.6883328 74.4875,63.805 C74.4058329,64.4700033 74.3475002,65.1379133 74.3125,65.80875 C74.2774998,66.4795867 74.26,67.1008305 74.26,67.6725 C74.26,68.1275023 74.3066662,68.5212483 74.4,68.85375 C74.4933338,69.1862517 74.604166,69.4516657 74.7325,69.65 C74.5924993,69.8483343 74.458334,69.979583 74.33,70.04375 C74.201666,70.107917 74.0616674,70.14 73.91,70.14 C73.699999,70.14 73.5191674,70.107917 73.3675,70.04375 C73.2158326,69.979583 73.0904172,69.8600009 72.99125,69.685 C72.8920828,69.5099991 72.8191669,69.2737515 72.7725,68.97625 C72.7258331,68.6787485 72.7025,68.296669 72.7025,67.83 C72.7025,67.3983312 72.7141666,67.0016685 72.7375,66.64 C72.7608335,66.2783315 72.7899998,65.9341683 72.825,65.6075 C72.8600002,65.2808317 72.8920832,64.9716681 72.92125,64.68 C72.9504168,64.3883319 72.9708333,64.0966681 72.9825,63.805 C72.9825,63.7583331 72.9416671,63.7320834 72.86,63.72625 C72.7783329,63.7204166 72.5916681,63.7175 72.3,63.7175 C72.0899989,63.7175 71.888751,63.7291666 71.69625,63.7525 C71.503749,63.7758335 71.4075,63.7991666 71.4075,63.8225 C71.4308334,64.3825028 71.4512499,64.8812478 71.46875,65.31875 C71.4862501,65.7562522 71.495,66.1499982 71.495,66.5 C71.495,67.0250026 71.4775002,67.4799981 71.4425,67.865 C71.4074998,68.2500019 71.3491671,68.6349981 71.2675,69.02 C71.2091664,69.3233349 71.1070841,69.5683324 70.96125,69.755 C70.8154159,69.9416676 70.6491676,70.0904161 70.4625,70.20125 C70.2758324,70.3120839 70.0745844,70.3879165 69.85875,70.42875 C69.6429156,70.4695835 69.4358343,70.49 69.2375,70.49 C69.0508324,70.49 68.8437511,70.457917 68.61625,70.39375 C68.3887489,70.329583 68.1758343,70.2304173 67.9775,70.09625 C67.7791657,69.9620827 67.6129173,69.7900011 67.47875,69.58 C67.3445827,69.3699989 67.2775,69.1191681 67.2775,68.8275 C67.2775,68.5941655 67.341666,68.4104173 67.47,68.27625 C67.598334,68.1420827 67.767499,68.075 67.9775,68.075 C68.1758343,68.075 68.3216662,68.1479159 68.415,68.29375 C68.5083338,68.4395841 68.587083,68.6029158 68.65125,68.78375 C68.715417,68.9645842 68.779583,69.1279159 68.84375,69.27375 C68.907917,69.4195841 69.0099993,69.4925 69.15,69.4925 C69.3600011,69.4925 69.5466658,69.1775032 69.71,68.5475 C69.8733342,67.9174968 69.955,66.9900061 69.955,65.765 L69.955,65.07375 C69.955,64.8462489 69.9491667,64.6158345 69.9375,64.3825 L69.8675,64.3825 C69.7041658,64.3825 69.5612506,64.286251 69.43875,64.09375 C69.3162494,63.901249 69.255,63.7058343 69.255,63.5075 Z M75.975,69.755 C75.975,69.5333322 76.0595825,69.3029179 76.22875,69.06375 C76.3979175,68.8245821 76.6079154,68.6000011 76.85875,68.39 C77.1095846,68.1799989 77.3749986,67.9933341 77.655,67.83 C77.9350014,67.6666659 78.1858322,67.5500004 78.4075,67.48 C77.8708307,67.351666 77.4216685,67.1125018 77.06,66.7625 C76.6983315,66.4124982 76.5175,65.9283364 76.5175,65.31 C76.5175,64.8549977 76.6049991,64.4466685 76.78,64.085 C76.9550009,63.7233315 77.1912485,63.4141679 77.48875,63.1575 C77.7862515,62.900832 78.136248,62.7025007 78.53875,62.5625 C78.941252,62.4224993 79.3699977,62.3525 79.825,62.3525 C80.0466678,62.3525 80.2187494,62.3583333 80.34125,62.37 C80.4637506,62.3816667 80.5483331,62.3875 80.595,62.3875 C80.6650003,62.3875 80.732083,62.355417 80.79625,62.29125 C80.860417,62.227083 80.9683326,62.195 81.12,62.195 C81.4116681,62.195 81.6333326,62.299999 81.785,62.51 C81.9600009,62.5566669 82.0999995,62.6295828 82.205,62.72875 C82.3100005,62.8279172 82.3625,62.9941655 82.3625,63.2275 C82.3625,63.4608345 82.3158338,63.6124997 82.2225,63.6825 C82.1291662,63.7525003 82.018334,63.7991666 81.89,63.8225 C81.8783333,64.0325011 81.8666667,64.2483322 81.855,64.47 C81.8433333,64.6916678 81.8345834,64.9104156 81.82875,65.12625 C81.8229166,65.3420844 81.82,65.5491657 81.82,65.7475 L81.82,66.255 C81.82,66.3483338 81.8783327,66.4124998 81.995,66.4475 C82.1583342,66.5058336 82.2691664,66.5962494 82.3275,66.71875 C82.3858336,66.8412506 82.415,66.966666 82.415,67.095 C82.415,67.2816676 82.3887503,67.4216662 82.33625,67.515 C82.2837497,67.6083338 82.2283336,67.6812497 82.17,67.73375 C82.1116664,67.7862503 82.0562503,67.8358331 82.00375,67.8825 C81.9512497,67.9291669 81.925,67.9933329 81.925,68.075 C81.925,68.3550014 81.8900004,68.6758315 81.82,69.0375 C81.7499997,69.3991685 81.6683338,69.6908322 81.575,69.9125 C81.5049997,70.0758341 81.4000007,70.1924997 81.26,70.2625 C81.1199993,70.3325004 80.9625009,70.3675 80.7875,70.3675 C80.7524998,70.3675 80.6912504,70.3616667 80.60375,70.35 C80.5162496,70.3383333 80.4287504,70.3120835 80.34125,70.27125 C80.2537496,70.2304165 80.1750004,70.1750004 80.105,70.105 C80.0349997,70.0349997 80,69.9416672 80,69.825 C80,69.7316662 80.0174998,69.6587503 80.0525,69.60625 C80.0875002,69.5537497 80.1341664,69.4808338 80.1925,69.3875 C80.2508336,69.3174997 80.3033331,69.2037508 80.35,69.04625 C80.3966669,68.8887492 80.42,68.576669 80.42,68.11 C80.42,68.0166662 80.355834,67.97 80.2275,67.97 C80.0874993,67.97 79.8775014,68.0429159 79.5975,68.18875 C79.3174986,68.3345841 79.0025017,68.5416653 78.6525,68.81 C78.1274974,69.2183354 77.7716676,69.518749 77.585,69.71125 C77.3983324,69.903751 77.305,70.0524995 77.305,70.1575 C77.305,70.2275003 77.2495839,70.2829165 77.13875,70.32375 C77.0279161,70.3645835 76.8791676,70.385 76.6925,70.385 C76.4591655,70.385 76.2812506,70.3383338 76.15875,70.245 C76.0362494,70.1516662 75.975,69.9883345 75.975,69.755 Z M78.1625,65.1175 C78.1625,65.6075024 78.3054152,65.9808321 78.59125,66.2375 C78.8770848,66.494168 79.2883307,66.6516664 79.825,66.71 C80.0700012,66.6399996 80.297499,66.5875002 80.5075,66.5525 C80.4958333,66.0624976 80.4695835,65.5666692 80.42875,65.065 C80.3879165,64.5633308 80.3266671,64.0850023 80.245,63.63 C80.1633329,63.6183333 80.0845837,63.6095834 80.00875,63.60375 C79.9329163,63.5979166 79.8600004,63.595 79.79,63.595 C79.2299972,63.595 78.821668,63.7379152 78.565,64.02375 C78.3083321,64.3095848 78.1741667,64.6741645 78.1625,65.1175 Z M93.16,70.5425 C92.7283312,70.8691683 92.3783347,71.0325 92.11,71.0325 C91.8999989,71.0325 91.657918,70.9158345 91.38375,70.6825 C91.109582,70.4491655 90.8062517,70.1487518 90.47375,69.78125 C90.1412483,69.4137482 89.7795853,69.0054189 89.38875,68.55625 C88.9979147,68.1070811 88.5866688,67.6725021 88.155,67.2525 C88.1316666,67.2291666 88.1025002,67.2175 88.0675,67.2175 C88.0324998,67.2175 88.015,67.2408331 88.015,67.2875 L88.015,68.7925 C88.015,68.8858338 88.0529163,69.0229158 88.12875,69.20375 C88.2045837,69.3845842 88.2425,69.5274995 88.2425,69.6325 C88.2425,69.7958342 88.1579175,69.9387494 87.98875,70.06125 C87.8195825,70.1837506 87.6475009,70.245 87.4725,70.245 C87.1691651,70.245 86.9183343,70.1458343 86.72,69.9475 C86.5216657,69.7491657 86.4225,69.1658382 86.4225,68.1975 C86.4225,67.8941651 86.4283333,67.6287511 86.44,67.40125 C86.4516667,67.1737489 86.4604166,66.955001 86.46625,66.745 C86.4720834,66.534999 86.4808333,66.3162511 86.4925,66.08875 C86.5041667,65.8612489 86.51,65.5958349 86.51,65.2925 C86.51,64.954165 86.4983335,64.647918 86.475,64.37375 C86.4516665,64.099582 86.4050003,63.8050016 86.335,63.49 C86.2883331,63.3499993 86.265,63.1983342 86.265,63.035 C86.265,62.9299995 86.2999997,62.8279172 86.37,62.72875 C86.4400003,62.6295828 86.5304161,62.5420837 86.64125,62.46625 C86.7520839,62.3904163 86.871666,62.3262503 87,62.27375 C87.128334,62.2212497 87.2508328,62.195 87.3675,62.195 C87.4491671,62.195 87.5424995,62.2124998 87.6475,62.2475 C87.7525005,62.2825002 87.8487496,62.332083 87.93625,62.39625 C88.0237504,62.460417 88.0966664,62.5304163 88.155,62.60625 C88.2133336,62.6820837 88.2425,62.7608329 88.2425,62.8425 C88.2425,62.8891669 88.2075004,63.0554152 88.1375,63.34125 C88.0674997,63.6270848 88.0325,63.9566648 88.0325,64.33 L88.0325,64.995 L89.9225,63.2625 C90.4241692,62.8074977 90.8208319,62.4604179 91.1125,62.22125 C91.4041681,61.9820821 91.5966662,61.8625 91.69,61.8625 C92.0050016,61.8625 92.2324993,61.958749 92.3725,62.15125 C92.5125007,62.343751 92.5825,62.6266648 92.5825,63 C92.5825,63.0700004 92.5241673,63.1574995 92.4075,63.2625 C92.2908328,63.3675005 92.1420842,63.484166 91.96125,63.6125 C91.7804158,63.740834 91.5733345,63.8837492 91.34,64.04125 C91.1066655,64.1987508 90.8733345,64.3708324 90.64,64.5575 C89.6366617,65.3508373 89.135,65.8699988 89.135,66.115 C89.135,66.1383335 89.2137492,66.2345825 89.37125,66.40375 C89.5287508,66.5729175 89.7649984,66.8441648 90.08,67.2175 C90.4766687,67.684169 90.812082,68.0720818 91.08625,68.38125 C91.360418,68.6904182 91.6083322,68.9470823 91.83,69.15125 C92.0516678,69.3554177 92.2645823,69.521666 92.46875,69.65 C92.6729177,69.778334 92.9033321,69.8891662 93.16,69.9825 C93.2300004,70.0058334 93.265,70.0991658 93.265,70.2625 C93.265,70.4025007 93.2300004,70.4958331 93.16,70.5425 Z M100.3175,66.5525 C100.3175,67.6025053 100.055003,68.5008296 99.53,69.2475 C98.9233303,70.0991709 98.1183384,70.525 97.115,70.525 C96.0883282,70.525 95.3125026,70.1750035 94.7875,69.475 C94.3091643,68.8566636 94.07,68.016672 94.07,66.955 C94.07,65.9049948 94.3324974,64.913338 94.8575,63.98 C95.4641697,62.8716611 96.2516618,62.3175 97.22,62.3175 C97.5233348,62.3175 97.9024977,62.4516653 98.3575,62.72 C99.6641732,63.5016706 100.3175,64.7791578 100.3175,66.5525 Z M98.7775,66.5175 C98.7775,64.7324911 98.3458377,63.84 97.4825,63.84 C96.8641636,63.84 96.3975016,64.2191629 96.0825,64.9775 C95.8491655,65.5491695 95.7325,66.196663 95.7325,66.92 C95.7325,68.4716744 96.1933287,69.2475 97.115,69.2475 C97.710003,69.2475 98.1533319,68.9266699 98.445,68.285 C98.6666678,67.7949976 98.7775,67.2058368 98.7775,66.5175 Z M107.4925,63.7 C107.399166,63.8050005 107.32625,64.0295816 107.27375,64.37375 C107.22125,64.7179184 107.195,65.2108301 107.195,65.8525 C107.195,65.9108336 107.215416,65.9545832 107.25625,65.98375 C107.297084,66.0129168 107.34375,66.0420832 107.39625,66.07125 C107.44875,66.1004168 107.495416,66.1441664 107.53625,66.2025 C107.577084,66.2608336 107.5975,66.354166 107.5975,66.4825 C107.5975,66.6225007 107.574167,66.7304163 107.5275,66.80625 C107.480833,66.8820837 107.43125,66.9462497 107.37875,66.99875 C107.32625,67.0512503 107.279584,67.0949998 107.23875,67.13 C107.197916,67.1650002 107.1775,67.2116664 107.1775,67.27 C107.1775,67.3633338 107.183333,67.4916659 107.195,67.655 C107.206667,67.8183341 107.224167,67.9904158 107.2475,68.17125 C107.270833,68.3520842 107.297083,68.5241659 107.32625,68.6875 C107.355417,68.8508341 107.3875,68.9849995 107.4225,69.09 C107.445833,69.1716671 107.472083,69.2416664 107.50125,69.3 C107.530417,69.3583336 107.545,69.4166664 107.545,69.475 C107.545,69.6616676 107.469167,69.8454158 107.3175,70.02625 C107.165833,70.2070842 106.990834,70.2975 106.7925,70.2975 C106.605832,70.2975 106.457084,70.2275007 106.34625,70.0875 C106.235416,69.9474993 106.147917,69.7725011 106.08375,69.5625 C106.019583,69.3524989 105.97,69.1279179 105.935,68.88875 C105.9,68.6495821 105.865,68.425001 105.83,68.215 C105.795,68.004999 105.76,67.8300007 105.725,67.69 C105.69,67.5499993 105.6375,67.48 105.5675,67.48 C105.369166,67.4916667 105.127085,67.5266664 104.84125,67.585 C104.555415,67.6433336 104.281251,67.7104163 104.01875,67.78625 C103.756249,67.8620837 103.531668,67.9437496 103.345,68.03125 C103.158332,68.1187504 103.065,68.1974996 103.065,68.2675 C103.065,68.4658343 103.076667,68.702082 103.1,68.97625 C103.123333,69.250418 103.204999,69.451666 103.345,69.58 C103.275,69.9066683 103.135001,70.1224995 102.925,70.2275 C102.714999,70.3325005 102.528334,70.385 102.365,70.385 C102.096665,70.385 101.898334,70.0933362 101.77,69.51 C101.641666,68.9266638 101.5775,68.0050063 101.5775,66.745 C101.5775,66.0099963 101.583333,65.3683361 101.595,64.82 C101.606667,64.2716639 101.6475,63.8137518 101.7175,63.44625 C101.7875,63.0787482 101.898333,62.8045842 102.05,62.62375 C102.201667,62.4429158 102.411665,62.3525 102.68,62.3525 C102.773334,62.3525 102.872499,62.3758331 102.9775,62.4225 C103.082501,62.4691669 103.17875,62.5274996 103.26625,62.5975 C103.35375,62.6675003 103.426666,62.7491662 103.485,62.8425 C103.543334,62.9358338 103.5725,63.0349995 103.5725,63.14 C103.5725,63.268334 103.54625,63.3908328 103.49375,63.5075 C103.44125,63.6241672 103.3975,63.746666 103.3625,63.875 C103.304166,64.0966678 103.242917,64.4495809 103.17875,64.93375 C103.114583,65.4179191 103.076667,65.9924967 103.065,66.6575 C103.065,66.7975007 103.129166,66.8675 103.2575,66.8675 C103.234167,66.8675 103.347915,66.8412503 103.59875,66.78875 C103.849585,66.7362497 104.132498,66.6662504 104.4475,66.57875 C104.762502,66.4912496 105.054165,66.4008338 105.3225,66.3075 C105.590835,66.2141662 105.730833,66.1208338 105.7425,66.0275 C105.7775,65.5958312 105.789167,65.1612522 105.7775,64.72375 C105.765833,64.2862478 105.774583,63.8925018 105.80375,63.5425 C105.832917,63.1924982 105.908749,62.9066678 106.03125,62.685 C106.153751,62.4633322 106.366665,62.3525 106.67,62.3525 C107.043335,62.3525 107.311666,62.4341658 107.475,62.5975 C107.638334,62.7608342 107.72,62.8949995 107.72,63 C107.72,63.128334 107.705417,63.2420828 107.67625,63.34125 C107.647083,63.4404172 107.585834,63.5599993 107.4925,63.7 Z M108.6125,69.72 C108.6125,69.6033327 108.618333,69.4983338 108.63,69.405 C108.641667,69.3116662 108.679583,69.2270837 108.74375,69.15125 C108.807917,69.0754163 108.901249,69.0141669 109.02375,68.9675 C109.146251,68.9208331 109.324166,68.8858335 109.5575,68.8625 C109.720834,68.6058321 109.866666,68.2354191 109.995,67.75125 C110.123334,67.2670809 110.234166,66.7625026 110.3275,66.2375 C110.420834,65.7124974 110.496666,65.2050024 110.555,64.715 C110.613334,64.2249975 110.654167,63.8400014 110.6775,63.56 C110.7125,63.0699975 110.840832,62.7462508 111.0625,62.58875 C111.284168,62.4312492 111.517499,62.3525 111.7625,62.3525 L112.27,62.3525 C112.538335,62.3525 112.832915,62.3554166 113.15375,62.36125 C113.474585,62.3670834 113.792498,62.3758333 114.1075,62.3875 C114.422502,62.3991667 114.661666,62.4108333 114.825,62.4225 C114.976667,62.4341667 115.102083,62.472083 115.20125,62.53625 C115.300417,62.600417 115.37625,62.6762496 115.42875,62.76375 C115.48125,62.8512504 115.51625,62.9387496 115.53375,63.02625 C115.55125,63.1137504 115.56,63.1924997 115.56,63.2625 L115.5075,63.4725 C115.449166,63.600834 115.396667,63.6883331 115.35,63.735 C115.291666,64.2600026 115.245,64.7762475 115.21,65.28375 C115.175,65.7912525 115.1575,66.3308305 115.1575,66.9025 C115.1575,67.1825014 115.160417,67.4683319 115.16625,67.76 C115.172083,68.0516681 115.198333,68.3374986 115.245,68.6175 C115.431668,68.6291667 115.580416,68.6787496 115.69125,68.76625 C115.802084,68.8537504 115.88375,68.961666 115.93625,69.09 C115.98875,69.218334 116.020833,69.3641659 116.0325,69.5275 C116.044167,69.6908342 116.05,69.8483326 116.05,70 C116.05,70.1983343 116.0325,70.4170821 115.9975,70.65625 C115.9625,70.8954179 115.912917,71.1170823 115.84875,71.32125 C115.784583,71.5254177 115.702917,71.6974993 115.60375,71.8375 C115.504583,71.9775007 115.396667,72.0475 115.28,72.0475 C115.104999,72.0475 114.938751,72.0212503 114.78125,71.96875 C114.623749,71.9162497 114.545,71.8083342 114.545,71.645 C114.545,71.5516662 114.547917,71.4350007 114.55375,71.295 C114.559583,71.1549993 114.565417,71.0091674 114.57125,70.8575 C114.577083,70.7058326 114.582917,70.5600007 114.58875,70.42 C114.594583,70.2799993 114.5975,70.1633338 114.5975,70.07 C114.224165,70.07 113.818752,70.0758333 113.38125,70.0875 C112.943748,70.0991667 112.515002,70.1137499 112.095,70.13125 C111.674998,70.1487501 111.287085,70.1662499 110.93125,70.18375 C110.575415,70.2012501 110.298334,70.2216666 110.1,70.245 C110.1,70.2800002 110.10875,70.3645827 110.12625,70.49875 C110.14375,70.6329173 110.16125,70.7787492 110.17875,70.93625 C110.19625,71.0937508 110.216667,71.2424993 110.24,71.3825 C110.263333,71.5225007 110.280833,71.6216664 110.2925,71.68 C110.2225,71.7733338 110.14375,71.8491664 110.05625,71.9075 C109.96875,71.9658336 109.814168,72.0124998 109.5925,72.0475 C109.499166,72.0475 109.385417,72.0358334 109.25125,72.0125 C109.117083,71.9891665 108.968334,71.9075007 108.805,71.7675 C108.781667,71.6624995 108.758333,71.5108343 108.735,71.3125 C108.711667,71.1141657 108.69125,70.9129177 108.67375,70.70875 C108.65625,70.5045823 108.641667,70.3120842 108.63,70.13125 C108.618333,69.9504158 108.6125,69.8133338 108.6125,69.72 Z M112.095,63.8225 C112.071667,64.160835 112.03375,64.5399979 111.98125,64.96 C111.92875,65.3800021 111.85875,65.8116644 111.77125,66.255 C111.68375,66.6983355 111.587501,67.1358312 111.4825,67.5675 C111.377499,67.9991688 111.260834,68.384165 111.1325,68.7225 C111.307501,68.7108333 111.508749,68.6991667 111.73625,68.6875 C111.963751,68.6758333 112.199999,68.6670834 112.445,68.66125 C112.690001,68.6554166 112.929166,68.6525 113.1625,68.6525 L113.7575,68.6525 C113.699166,68.314165 113.667083,67.9612518 113.66125,67.59375 C113.655417,67.2262482 113.6525,66.8558352 113.6525,66.4825 L113.6525,65.7825 C113.6525,65.5724989 113.655417,65.3683343 113.66125,65.17 C113.667083,64.9716657 113.672917,64.7645844 113.67875,64.54875 C113.684583,64.3329156 113.693333,64.0908347 113.705,63.8225 L112.095,63.8225 Z M117.03,68.425 C117.03,67.9116641 117.032917,67.3925026 117.03875,66.8675 C117.044583,66.3424974 117.05625,65.8408357 117.07375,65.3625 C117.09125,64.8841643 117.111667,64.4495853 117.135,64.05875 C117.158333,63.6679147 117.1875,63.3558345 117.2225,63.1225 C117.234167,63.0524997 117.280833,62.9708338 117.3625,62.8775 C117.444167,62.7841662 117.543333,62.6966671 117.66,62.615 C117.776667,62.5333329 117.896249,62.4662503 118.01875,62.41375 C118.141251,62.3612497 118.249166,62.335 118.3425,62.335 C118.4125,62.335 118.494166,62.3554165 118.5875,62.39625 C118.680834,62.4370835 118.765416,62.489583 118.84125,62.55375 C118.917084,62.617917 118.984166,62.6879163 119.0425,62.76375 C119.100834,62.8395837 119.13,62.9066664 119.13,62.965 C119.118333,63.0583338 119.109583,63.1487496 119.10375,63.23625 C119.097917,63.3237504 119.065834,63.4491658 119.0075,63.6125 C118.949166,63.7758341 118.882084,64.0383315 118.80625,64.4 C118.730416,64.7616685 118.6575,65.2224972 118.5875,65.7825 C118.529166,66.1908354 118.470834,66.6137478 118.4125,67.05125 C118.354166,67.4887522 118.325,67.940831 118.325,68.4075 C118.325,68.5125005 118.365833,68.565 118.4475,68.565 C118.505834,68.565 118.572916,68.5445835 118.64875,68.50375 C118.724584,68.4629165 118.809166,68.3608342 118.9025,68.1975 C119.112501,67.8124981 119.296249,67.4654182 119.45375,67.15625 C119.611251,66.8470818 119.748333,66.5466681 119.865,66.255 C119.981667,65.9633319 120.089583,65.6687515 120.18875,65.37125 C120.287917,65.0737485 120.389999,64.7441685 120.495,64.3825 C120.611667,63.9741646 120.722499,63.6416679 120.8275,63.385 C120.932501,63.128332 121.052083,62.9241674 121.18625,62.7725 C121.320417,62.6208326 121.469166,62.5187503 121.6325,62.46625 C121.795834,62.4137497 121.994166,62.3875 122.2275,62.3875 C122.950837,62.3875 123.3125,62.5916646 123.3125,63 C123.324167,63.0700004 123.315417,63.1312497 123.28625,63.18375 C123.257083,63.2362503 123.230833,63.326666 123.2075,63.455 C123.079166,64.3183377 123.00625,65.0941632 122.98875,65.7825 C122.97125,66.4708368 122.9625,67.1533299 122.9625,67.83 C122.9625,68.7866715 123.143332,69.4808312 123.505,69.9125 C123.364999,70.0758341 123.233751,70.1866664 123.11125,70.245 C122.988749,70.3033336 122.834168,70.3325 122.6475,70.3325 C122.379165,70.3325 122.166251,70.2508342 122.00875,70.0875 C121.851249,69.9241659 121.72875,69.7200012 121.64125,69.475 C121.55375,69.2299988 121.495417,68.9558349 121.46625,68.6525 C121.437083,68.3491652 121.4225,68.0575014 121.4225,67.7775 C121.4225,67.5324988 121.442916,67.2525016 121.48375,66.9375 C121.524584,66.6224984 121.57125,66.3220848 121.62375,66.03625 C121.67625,65.7504152 121.722916,65.4995844 121.76375,65.28375 C121.804584,65.0679156 121.825,64.9308336 121.825,64.8725 C121.825,64.8141664 121.8075,64.785 121.7725,64.785 C121.714166,64.785 121.632501,64.9016655 121.5275,65.135 C121.422499,65.3683345 121.311667,65.6337485 121.195,65.93125 C121.078333,66.2287515 120.970417,66.5116653 120.87125,66.78 C120.772083,67.0483347 120.705,67.2174997 120.67,67.2875 C120.401665,67.9058364 120.171251,68.4045814 119.97875,68.78375 C119.786249,69.1629186 119.605418,69.4545823 119.43625,69.65875 C119.267082,69.8629177 119.095001,69.9999997 118.92,70.07 C118.744999,70.1400004 118.546668,70.175 118.325,70.175 C117.869998,70.175 117.540418,70.0320848 117.33625,69.74625 C117.132082,69.4604152 117.03,69.020003 117.03,68.425 Z M130.855,63.0525 C130.855,63.1225003 130.799584,63.2158327 130.68875,63.3325 C130.577916,63.4491673 130.411668,63.5424996 130.19,63.6125 C129.898332,63.7058338 129.560002,63.7641665 129.175,63.7875 C128.789998,63.8108335 128.463335,63.8399998 128.195,63.875 C128.195,63.9450004 128.192083,64.0587492 128.18625,64.21625 C128.180417,64.3737508 128.174583,64.5574989 128.16875,64.7675 C128.162917,64.9775011 128.16,65.2049988 128.16,65.45 L128.16,66.92 C128.16,67.0366672 128.16875,67.2437485 128.18625,67.54125 C128.20375,67.8387515 128.23,68.1041655 128.265,68.3375 C128.311667,68.5708345 128.34375,68.7691659 128.36125,68.9325 C128.37875,69.0958342 128.3875,69.2358328 128.3875,69.3525 C128.3875,69.5391676 128.294168,69.7054159 128.1075,69.85125 C127.920832,69.9970841 127.734168,70.07 127.5475,70.07 C127.244165,70.07 126.999168,69.8191692 126.8125,69.3175 C126.730833,69.1191657 126.660834,68.8158354 126.6025,68.4075 C126.544166,67.9991646 126.515,67.4625033 126.515,66.7975 L126.515,64.75 C126.515,64.4466652 126.520833,64.1608347 126.5325,63.8925 L125.29,63.9975 C124.916665,64.0091667 124.604585,63.9683338 124.35375,63.875 C124.102915,63.7816662 123.9775,63.6475009 123.9775,63.4725 C123.9775,63.2041653 124.108749,63.0145839 124.37125,62.90375 C124.633751,62.7929161 124.945832,62.7258334 125.3075,62.7025 L129.4375,62.3875 C129.892502,62.3641666 130.242499,62.4108327 130.4875,62.5275 C130.732501,62.6441673 130.855,62.8191655 130.855,63.0525 Z M136.91,68.46 C136.91,69.0433362 136.513337,69.4983317 135.72,69.825 C135.101664,70.0816679 134.45417,70.21 133.7775,70.21 C131.980824,70.21 131.0825,69.1891769 131.0825,67.1475 C131.0825,66.3074958 131.286665,65.3741718 131.695,64.3475 C132.196669,63.0874937 132.80333,62.4575 133.515,62.4575 C134.15667,62.4575 134.847913,62.7433305 135.58875,63.315 C136.329587,63.8866695 136.7,64.4816636 136.7,65.1 C136.7,65.8700039 136.355837,66.4824977 135.6675,66.9375 C135.06083,67.3458354 134.337504,67.55 133.4975,67.55 C133.334166,67.55 133.071668,67.4508343 132.71,67.2525 C132.756667,68.3608389 133.08333,68.915 133.69,68.915 C134.203336,68.915 134.707914,68.7691681 135.20375,68.4775 C135.699586,68.1858319 136.017499,68.04 136.1575,68.04 C136.659169,68.04 136.91,68.1799986 136.91,68.46 Z M135.0025,65.1525 C135.0025,64.8608319 134.917918,64.5837513 134.74875,64.32125 C134.579582,64.0587487 134.355001,63.9275 134.075,63.9275 C133.689998,63.9275 133.392501,64.096665 133.1825,64.435 C133.007499,64.7266681 132.92,65.0708313 132.92,65.4675 C132.92,65.6891678 132.995833,65.8699993 133.1475,66.01 C133.299167,66.1500007 133.491666,66.22 133.725,66.22 C134.576671,66.22 135.0025,65.8641702 135.0025,65.1525 Z M143.8575,65.835 C143.8575,67.025006 143.647502,68.0341625 143.2275,68.8625 C142.702497,69.9358387 141.909172,70.4725 140.8475,70.4725 C140.27583,70.4725 139.785835,70.3091683 139.3775,69.9825 L139.3775,71.0325 C139.3775,72.1525056 139.505832,73.0333301 139.7625,73.675 C139.879167,73.931668 139.9375,74.0949997 139.9375,74.165 C139.9375,74.5616687 139.704169,74.76 139.2375,74.76 C138.887498,74.76 138.625001,74.695834 138.45,74.5675 C138.321666,74.4858329 138.193334,74.1941692 138.065,73.6925 C137.959999,73.2491644 137.9075,72.9108345 137.9075,72.6775 L137.9075,68.46 C137.9075,68.0749981 137.930833,67.5500033 137.9775,66.885 C138.024167,66.1383296 138.053333,65.6191681 138.065,65.3275 C138.076667,65.0358319 138.076667,64.6508357 138.065,64.1725 C138.053333,63.5658303 138.0475,63.1750009 138.0475,63 C138.0475,62.0083284 138.374163,61.5125 139.0275,61.5125 C139.190834,61.5125 139.342499,61.5679161 139.4825,61.67875 C139.622501,61.7895839 139.6925,61.9208326 139.6925,62.0725 C139.6925,62.3291679 139.663334,62.7958299 139.605,63.4725 C140.060002,62.8308301 140.60833,62.51 141.25,62.51 C142.113338,62.51 142.778331,62.8599965 143.245,63.56 C143.653335,64.1666697 143.8575,64.9249954 143.8575,65.835 Z M142.3,65.6775 C142.3,64.4174937 142.031669,63.7875 141.495,63.7875 C141.261666,63.7875 140.958335,64.0149977 140.585,64.47 C139.861663,65.3450044 139.465,66.5524923 139.395,68.0925 C139.523334,68.1625004 139.750832,68.4074979 140.0775,68.8275 C140.334168,69.1425016 140.590832,69.3 140.8475,69.3 C141.815838,69.3 142.3,68.0925121 142.3,65.6775 Z M151.19,66.5525 C151.19,67.6025053 150.927503,68.5008296 150.4025,69.2475 C149.79583,70.0991709 148.990838,70.525 147.9875,70.525 C146.960828,70.525 146.185003,70.1750035 145.66,69.475 C145.181664,68.8566636 144.9425,68.016672 144.9425,66.955 C144.9425,65.9049948 145.204997,64.913338 145.73,63.98 C146.33667,62.8716611 147.124162,62.3175 148.0925,62.3175 C148.395835,62.3175 148.774998,62.4516653 149.23,62.72 C150.536673,63.5016706 151.19,64.7791578 151.19,66.5525 Z M149.65,66.5175 C149.65,64.7324911 149.218338,63.84 148.355,63.84 C147.736664,63.84 147.270002,64.2191629 146.955,64.9775 C146.721666,65.5491695 146.605,66.196663 146.605,66.92 C146.605,68.4716744 147.065829,69.2475 147.9875,69.2475 C148.582503,69.2475 149.025832,68.9266699 149.3175,68.285 C149.539168,67.7949976 149.65,67.2058368 149.65,66.5175 Z M158.8375,67.8825 C158.8375,68.3025021 158.715001,68.6524986 158.47,68.9325 C158.224999,69.2125014 157.924585,69.4399991 157.56875,69.615 C157.212915,69.7900009 156.842502,69.9124997 156.4575,69.9825 C156.072498,70.0525004 155.740001,70.0875 155.46,70.0875 C155.051665,70.0875 154.614169,70.0525004 154.1475,69.9825 C154.089166,70.0641671 154.010417,70.1312497 153.91125,70.18375 C153.812083,70.2362503 153.686667,70.2625 153.535,70.2625 C153.301666,70.2625 153.123751,70.2129172 153.00125,70.11375 C152.878749,70.0145828 152.811667,69.8133349 152.8,69.51 C152.484998,69.3583326 152.3275,69.154168 152.3275,68.8975 C152.3275,68.7341658 152.356666,68.6116671 152.415,68.53 C152.473334,68.4483329 152.549166,68.3841669 152.6425,68.3375 C152.654167,68.1508324 152.662917,67.9816674 152.66875,67.83 C152.674583,67.6783326 152.6775,67.5558338 152.6775,67.4625 C152.6775,67.4041664 152.662917,67.3575002 152.63375,67.3225 C152.604583,67.2874998 152.575417,67.2554168 152.54625,67.22625 C152.517083,67.1970832 152.487917,67.1650002 152.45875,67.13 C152.429583,67.0949998 152.415,67.0425003 152.415,66.9725 C152.415,66.8674995 152.452916,66.7770837 152.52875,66.70125 C152.604584,66.6254163 152.6425,66.5525004 152.6425,66.4825 L152.6425,63.5075 C152.6425,63.4258329 152.671666,63.3354172 152.73,63.23625 C152.788334,63.1370828 152.864166,63.0466671 152.9575,62.965 C153.050834,62.8833329 153.149999,62.8162503 153.255,62.76375 C153.360001,62.7112497 153.464999,62.685 153.57,62.685 C153.861668,62.685 154.05125,62.7462494 154.13875,62.86875 C154.22625,62.9912506 154.275833,63.1983319 154.2875,63.49 C154.450834,63.2449988 154.660832,63.0145844 154.9175,62.79875 C155.174168,62.5829156 155.518331,62.475 155.95,62.475 C156.253335,62.475 156.521666,62.5304161 156.755,62.64125 C156.988335,62.7520839 157.221666,62.8891658 157.455,63.0525 C157.828335,63.3325014 158.108332,63.6037487 158.295,63.86625 C158.481668,64.1287513 158.575,64.4524981 158.575,64.8375 C158.575,65.1291681 158.481668,65.4354151 158.295,65.75625 C158.108332,66.0770849 157.834168,66.3366657 157.4725,66.535 C157.845835,66.6166671 158.166665,66.7829154 158.435,67.03375 C158.703335,67.2845846 158.8375,67.5674984 158.8375,67.8825 Z M157.14,64.8025 C157.14,64.4991651 157.011668,64.2483343 156.755,64.05 C156.498332,63.8516657 156.218335,63.7525 155.915,63.7525 C155.634999,63.7525 155.390001,63.8458324 155.18,64.0325 C154.969999,64.2191676 154.792084,64.4466653 154.64625,64.715 C154.500416,64.9833347 154.3925,65.2662485 154.3225,65.56375 C154.2525,65.8612515 154.2175,66.1208322 154.2175,66.3425 C154.85917,66.3308333 155.372498,66.2900003 155.7575,66.22 C156.142502,66.1499996 156.437082,66.0537506 156.64125,65.93125 C156.845418,65.8087494 156.979583,65.6541676 157.04375,65.4675 C157.107917,65.2808324 157.14,65.059168 157.14,64.8025 Z M157.2625,67.83 C157.2625,67.7833331 157.247917,67.727917 157.21875,67.66375 C157.189583,67.599583 157.119584,67.5412503 157.00875,67.48875 C156.897916,67.4362497 156.734584,67.3925002 156.51875,67.3575 C156.302916,67.3224998 156.014168,67.305 155.6525,67.305 C155.244165,67.305 154.760003,67.3399996 154.2,67.41 C154.2,67.6083343 154.2,67.8154156 154.2,68.03125 C154.2,68.2470844 154.205833,68.4366658 154.2175,68.6 C154.392501,68.6816671 154.584999,68.7370832 154.795,68.76625 C155.005001,68.7954168 155.214999,68.81 155.425,68.81 C155.798335,68.81 156.104582,68.7808336 156.34375,68.7225 C156.582918,68.6641664 156.769583,68.5883338 156.90375,68.495 C157.037917,68.4016662 157.13125,68.2966672 157.18375,68.18 C157.23625,68.0633328 157.2625,67.9466673 157.2625,67.83 Z" id="для-кондитеров" fill="#C51D41"></path>
            <g id="cupcake" fill="#FF345F">
                <g id="Group-2" transform="translate(8.000000, 0.000000)">
                    <path d="M32.847661,17.7999374 C33.2203042,18.6049453 33.4036175,19.7673544 33.3195497,21.3714622 L31.6812034,77.9112021 C31.140195,79.2063189 28.3491848,80.0999174 26.2730962,79.9911142 C23.4420662,79.8427462 19.980107,79.0941113 19.4025379,73.8644964 C19.2805251,70.8525489 20.6683908,48.9013428 21.7383875,34.1282836 C20.3981567,35.8657504 19.0289746,37.5954544 17.6739415,39.2660309 C15.932682,41.3411831 13.6534192,43.9106362 10.8361531,46.9743901 C7.97258273,49.505861 5.46474732,50.7321842 3.8940495,50.4010705 C3.8940495,50.4010705 3.05810436,50.8098449 1.39479812,49.4141653 C0.0207625199,48.2612125 -0.566493495,46.9049451 0.69750425,45.2517047 C5.10848963,39.7011639 11.6685835,31.8831486 18.1706663,20.3157374 C23.8079293,10.3664447 26.8708925,3.19134989 27.6170906,0.980266654 C29.1762123,1.17830951 31.820099,2.28657824 33.3387699,3.56089445 C36.3153702,6.1819159 37.3308095,9.37775922 33.5418083,16.6837796 L32.847661,17.7999374 Z" id="Combined-Shape"></path>
                </g>
            </g>
        </g>
    </g>
</svg>